<svg id="svg" xmlns="http://www.w3.org/2000/svg" xmlns:xlink="http://www.w3.org/1999/xlink" width="400" height="436.3356428021555" viewBox="0, 0, 400,436.3356428021555" version="1.1"><g id="svgg"><path id="path0" d="M197.149 17.550 C 192.924 20.127,194.845 26.861,199.805 26.861 C 205.081 26.861,206.941 19.793,202.298 17.392 C 201.011 16.726,198.367 16.808,197.149 17.550 M161.047 22.536 C 157.759 24.227,157.430 28.964,160.452 31.116 C 161.974 32.200,164.556 32.310,165.966 31.352 C 171.451 27.625,166.923 19.512,161.047 22.536 M234.488 22.544 C 230.123 25.050,231.675 31.602,236.716 31.955 C 241.884 32.317,244.052 25.828,239.813 22.688 C 238.523 21.732,236.020 21.665,234.488 22.544 M196.746 35.643 C 192.726 37.681,191.899 43.085,195.115 46.301 C 198.174 49.360,203.435 48.737,205.590 45.059 C 209.082 39.101,202.903 32.522,196.746 35.643 M126.559 38.221 C 122.776 39.730,122.340 45.262,125.842 47.315 C 130.559 50.079,135.556 44.778,132.656 40.086 C 131.552 38.299,128.615 37.401,126.559 38.221 M268.907 38.520 C 264.374 40.763,265.747 47.552,270.819 47.972 C 274.217 48.254,276.376 46.096,276.156 42.638 C 275.911 38.795,272.391 36.795,268.907 38.520 M165.631 39.532 C 158.264 42.164,160.513 53.236,168.284 52.592 C 175.714 51.975,176.799 41.460,169.644 39.408 C 168.252 39.009,166.985 39.048,165.631 39.532 M229.597 39.542 C 224.191 41.552,223.700 49.291,228.816 51.841 C 234.804 54.825,240.825 48.752,237.798 42.782 C 236.317 39.859,232.645 38.409,229.597 39.542 M137.654 52.691 C 131.484 55.153,132.286 64.347,138.777 65.571 C 145.083 66.761,149.325 59.587,145.244 54.635 C 143.608 52.650,140.043 51.737,137.654 52.691 M258.199 52.932 C 252.445 55.595,253.390 64.202,259.584 65.552 C 265.610 66.864,270.016 60.312,266.551 55.191 C 264.756 52.538,261.154 51.564,258.199 52.932 M197.598 56.775 C 190.493 58.757,189.311 68.625,195.759 72.134 C 202.526 75.817,210.232 69.345,207.751 62.062 C 206.359 57.977,201.800 55.603,197.598 56.775 M171.664 60.156 C 163.517 63.950,166.074 76.067,175.019 76.057 C 179.957 76.051,183.384 72.635,183.361 67.744 C 183.330 61.545,177.210 57.574,171.664 60.156 M221.806 59.839 C 212.591 63.236,215.604 76.688,225.422 75.986 C 235.940 75.233,235.188 59.477,224.634 59.477 C 223.618 59.477,222.346 59.640,221.806 59.839 M97.883 63.569 C 95.248 65.359,95.020 69.773,97.462 71.695 C 101.163 74.605,106.480 71.577,105.787 66.953 C 105.258 63.430,100.859 61.546,97.883 63.569 M296.382 63.390 C 291.404 66.465,294.585 74.192,300.205 72.678 C 305.967 71.127,304.950 62.820,298.999 62.820 C 297.888 62.820,296.988 63.016,296.382 63.390 M149.553 70.634 C 140.285 73.218,142.043 86.878,151.655 86.969 C 158.114 87.031,162.078 80.684,159.190 74.905 C 157.395 71.312,153.427 69.554,149.553 70.634 M246.497 70.403 C 236.457 72.895,237.772 87.031,248.037 86.962 C 258.571 86.892,259.145 71.446,248.653 70.403 C 247.806 70.319,246.836 70.319,246.497 70.403 M112.898 73.122 C 107.696 74.977,107.185 82.779,112.101 85.301 C 116.798 87.710,121.940 84.641,121.940 79.428 C 121.940 74.579,117.499 71.482,112.898 73.122 M281.951 73.122 C 275.933 75.268,276.515 84.433,282.765 85.933 C 287.133 86.981,290.969 83.912,290.986 79.356 C 291.004 74.606,286.502 71.500,281.951 73.122 M180.153 83.169 C 173.627 84.449,168.928 91.367,169.979 98.150 C 172.285 113.046,193.659 113.133,196.210 98.256 C 197.793 89.026,189.590 81.319,180.153 83.169 M213.087 83.327 C 206.715 85.032,202.408 91.641,203.474 98.077 C 205.957 113.062,227.128 113.193,229.762 98.240 C 231.409 88.889,222.403 80.834,213.087 83.327 M129.831 87.580 C 120.906 90.879,123.919 104.355,133.438 103.712 C 143.906 103.005,143.665 87.679,133.179 87.232 C 131.849 87.175,130.567 87.308,129.831 87.580 M264.049 87.497 C 255.509 90.652,257.634 103.753,266.689 103.769 C 277.653 103.788,278.266 87.693,267.318 87.251 C 266.029 87.198,264.557 87.309,264.049 87.497 M77.859 93.924 C 74.531 95.682,74.562 100.993,77.910 102.764 C 81.450 104.636,85.384 102.330,85.384 98.383 C 85.384 94.451,81.368 92.070,77.859 93.924 M316.737 93.983 C 312.419 96.522,314.370 103.491,319.390 103.457 C 324.217 103.425,326.274 96.984,322.350 94.189 C 320.892 93.151,318.312 93.057,316.737 93.983 M95.512 100.735 C 94.109 101.140,91.886 103.433,91.480 104.896 C 89.556 111.824,97.529 116.826,102.602 111.872 C 107.710 106.884,102.512 98.719,95.512 100.735 M298.787 101.165 C 294.488 103.307,293.886 109.241,297.651 112.345 C 301.942 115.882,308.560 112.747,308.538 107.188 C 308.518 101.951,303.468 98.832,298.787 101.165 M151.165 102.509 C 143.687 104.901,140.018 113.884,143.577 121.085 C 149.132 132.325,166.050 130.016,168.453 117.691 C 170.403 107.691,160.940 99.381,151.165 102.509 M239.943 102.507 C 230.616 105.728,227.951 117.919,235.096 124.677 C 242.941 132.096,255.726 127.823,257.421 117.215 C 258.987 107.414,249.310 99.271,239.943 102.507 M117.528 108.509 C 109.657 110.704,109.319 122.014,117.050 124.511 C 125.573 127.264,131.879 116.709,125.430 110.485 C 123.363 108.489,120.325 107.730,117.528 108.509 M278.902 108.404 C 272.224 110.061,270.113 118.379,275.228 122.881 C 280.271 127.320,288.367 124.164,289.055 117.490 C 289.639 111.834,284.307 107.062,278.902 108.404 M68.201 130.049 C 63.110 132.366,64.656 139.800,70.228 139.800 C 76.543 139.800,76.953 130.411,70.665 129.780 C 69.705 129.684,68.782 129.785,68.201 130.049 M327.934 130.331 C 323.231 132.705,324.970 139.800,330.254 139.800 C 335.618 139.800,337.328 132.769,332.557 130.331 C 331.811 129.950,330.775 129.638,330.254 129.638 C 329.733 129.638,328.689 129.950,327.934 130.331 M87.450 131.140 C 79.913 133.601,81.294 144.405,89.145 144.405 C 97.538 144.405,98.065 131.768,89.704 131.021 C 88.889 130.948,87.874 131.002,87.450 131.140 M137.786 131.299 C 127.669 133.757,124.118 146.330,131.465 153.677 C 139.152 161.364,152.315 156.993,153.996 146.195 C 155.424 137.022,146.810 129.107,137.786 131.299 M256.230 131.184 C 244.016 133.756,241.745 150.627,252.878 156.099 C 263.867 161.501,275.588 150.856,271.280 139.386 C 269.110 133.610,262.309 129.904,256.230 131.184 M308.891 131.178 C 304.977 132.103,302.775 136.823,304.510 140.570 C 307.189 146.356,315.760 145.378,317.148 139.128 C 318.240 134.212,313.868 130.003,308.891 131.178 M110.638 132.421 C 103.256 133.898,101.716 144.300,108.345 147.906 C 115.202 151.636,122.912 144.970,120.277 137.591 C 118.966 133.920,114.668 131.615,110.638 132.421 M286.374 132.385 C 279.888 133.706,277.414 141.878,282.087 146.551 C 287.303 151.767,296.303 148.077,296.315 140.716 C 296.324 135.347,291.537 131.334,286.374 132.385 M109.725 158.211 C 101.754 161.059,102.467 172.579,110.721 174.292 C 118.547 175.917,123.917 166.648,118.715 160.493 C 116.744 158.161,112.723 157.140,109.725 158.211 M285.149 158.243 C 279.659 160.199,277.862 167.412,281.801 171.684 C 287.046 177.375,296.273 173.856,296.317 166.149 C 296.350 160.271,290.695 156.268,285.149 158.243 M87.606 163.171 C 79.988 165.120,81.230 176.443,89.062 176.443 C 97.406 176.443,98.199 164.037,89.915 163.093 C 89.153 163.006,88.114 163.041,87.606 163.171 M308.613 163.335 C 300.981 165.787,303.198 177.040,311.183 176.378 C 317.890 175.821,319.636 166.764,313.622 163.730 C 312.215 163.020,310.110 162.854,308.613 163.335 M143.219 164.921 C 133.414 167.558,130.068 179.987,137.233 187.157 C 143.592 193.520,154.685 191.728,158.580 183.708 C 163.585 173.404,154.229 161.961,143.219 164.921 M250.962 164.928 C 244.554 166.642,240.230 173.367,241.370 179.842 C 243.982 194.672,265.025 194.672,267.637 179.842 C 269.284 170.490,260.279 162.435,250.962 164.928 M67.809 167.411 C 64.127 169.226,64.201 174.653,67.931 176.459 C 72.413 178.629,76.926 173.796,74.564 169.356 C 73.415 167.198,70.150 166.257,67.809 167.411 M328.083 167.331 C 324.099 169.066,324.303 175.046,328.399 176.611 C 334.235 178.840,338.064 171.122,332.875 167.590 C 331.702 166.792,329.583 166.678,328.083 167.331 M117.076 182.244 C 108.195 185.406,110.241 198.370,119.630 198.433 C 130.333 198.504,131.033 182.920,120.376 181.834 C 119.170 181.711,118.254 181.825,117.076 182.244 M278.830 181.950 C 269.712 184.345,270.534 197.246,279.883 198.486 C 284.458 199.093,289.145 194.973,289.145 190.345 C 289.145 184.985,283.809 180.643,278.830 181.950 M164.588 189.792 C 151.842 194.003,152.283 212.018,165.215 215.386 C 178.123 218.749,187.313 203.026,178.091 193.358 C 174.808 189.915,168.921 188.361,164.588 189.792 M228.241 189.942 C 214.749 194.740,217.432 214.677,231.717 215.770 C 246.171 216.875,251.474 196.976,238.435 190.558 C 235.770 189.246,231.009 188.958,228.241 189.942 M94.996 194.255 C 89.209 197.012,90.223 205.719,96.467 206.885 C 103.732 208.242,107.703 199.022,101.678 194.787 C 99.959 193.580,96.921 193.337,94.996 194.255 M298.735 194.352 C 296.358 195.529,294.705 198.850,295.200 201.452 C 296.668 209.173,307.832 208.747,308.479 200.945 C 308.918 195.655,303.504 191.992,298.735 194.352 M195.934 200.280 C 186.820 203.667,184.338 215.639,191.370 222.290 C 199.215 229.709,211.860 225.494,213.715 214.841 C 215.432 204.979,205.399 196.763,195.934 200.280 M77.952 203.140 C 73.987 205.094,74.912 211.824,79.258 212.639 C 83.867 213.504,87.238 208.241,84.460 204.520 C 83.125 202.732,80.087 202.088,77.952 203.140 M316.914 203.118 C 312.640 205.297,313.993 212.154,318.804 212.697 C 323.907 213.272,326.527 206.479,322.350 203.504 C 321.048 202.577,318.351 202.386,316.914 203.118 M130.366 203.242 C 121.246 206.059,123.319 219.554,132.871 219.554 C 143.584 219.554,144.031 203.569,133.333 203.043 C 132.232 202.988,130.897 203.078,130.366 203.242 M264.509 203.213 C 258.572 205.019,256.578 212.831,260.939 217.193 C 265.353 221.606,273.147 219.682,274.870 213.753 C 276.736 207.335,270.802 201.299,264.509 203.213 M149.553 219.980 C 140.320 222.554,142.084 236.261,151.655 236.322 C 158.122 236.363,162.077 230.028,159.190 224.251 C 157.395 220.658,153.427 218.900,149.553 219.980 M246.497 219.749 C 236.457 222.241,237.772 236.377,248.037 236.308 C 258.571 236.237,259.145 220.792,248.653 219.749 C 247.806 219.665,246.836 219.665,246.497 219.749 M112.545 220.436 C 106.597 223.138,107.848 232.176,114.322 233.270 C 120.407 234.298,124.546 226.542,120.304 222.056 C 118.311 219.948,115.097 219.277,112.545 220.436 M281.755 220.352 C 278.416 221.799,276.800 225.917,278.229 229.336 C 280.420 234.581,288.325 234.581,290.516 229.336 C 292.842 223.771,287.205 217.992,281.755 220.352 M173.409 230.051 C 166.740 231.338,164.449 239.793,169.507 244.455 C 173.572 248.202,180.449 246.817,182.666 241.805 C 185.472 235.461,180.181 228.744,173.409 230.051 M223.047 230.041 C 216.349 231.341,213.942 239.639,218.914 244.290 C 224.391 249.413,233.014 245.560,232.925 238.029 C 232.863 232.839,228.173 229.046,223.047 230.041 M197.482 233.835 C 188.204 236.867,190.264 250.240,200.000 250.179 C 210.569 250.112,210.967 234.396,200.421 233.548 C 199.482 233.473,198.213 233.597,197.482 233.835 M98.237 235.315 C 92.753 239.042,97.280 247.155,103.156 244.131 C 106.439 242.442,106.738 237.664,103.699 235.450 C 102.355 234.470,99.580 234.402,98.237 235.315 M297.152 234.864 C 293.004 236.423,292.741 242.473,296.744 244.244 C 301.266 246.244,305.563 241.726,303.424 237.218 C 302.511 235.295,299.256 234.073,297.152 234.864 M138.188 240.473 C 131.184 242.731,132.225 252.966,139.530 253.668 C 145.015 254.195,148.676 248.289,145.852 243.471 C 144.423 241.033,140.821 239.624,138.188 240.473 M259.274 240.472 C 254.246 242.002,252.643 248.044,256.297 251.693 C 261.265 256.653,269.439 251.799,267.478 245.053 C 266.466 241.574,262.653 239.445,259.274 240.472 M164.874 253.992 C 160.665 255.959,159.791 261.498,163.160 264.857 C 167.619 269.303,175.325 265.528,174.474 259.315 C 173.853 254.782,168.973 252.076,164.874 253.992 M229.416 253.768 C 222.633 256.476,224.547 266.698,231.846 266.743 C 239.037 266.786,241.314 256.960,234.799 254.000 C 233.452 253.388,230.669 253.269,229.416 253.768 M196.746 258.584 C 192.874 260.547,191.927 265.640,194.836 268.860 C 200.058 274.640,209.160 268.728,205.924 261.659 C 204.274 258.056,200.369 256.747,196.746 258.584 M126.242 259.969 C 121.443 262.394,123.073 269.438,128.432 269.438 C 132.914 269.438,135.189 264.411,132.203 261.106 C 130.501 259.222,128.483 258.837,126.242 259.969 M269.621 259.597 C 266.437 260.549,265.173 264.992,267.311 267.710 C 269.335 270.284,273.891 270.008,275.598 267.208 C 278.009 263.254,274.088 258.261,269.621 259.597 M160.736 274.750 C 156.635 277.541,158.026 283.454,162.932 284.085 C 167.097 284.620,170.059 279.480,167.586 276.006 C 166.180 274.033,162.722 273.398,160.736 274.750 M234.362 274.723 C 230.234 277.555,231.597 283.451,236.527 284.085 C 241.437 284.716,244.123 277.785,240.083 274.908 C 238.627 273.872,235.740 273.778,234.362 274.723 M197.149 280.522 C 194.349 282.229,194.073 286.785,196.647 288.809 C 201.364 292.520,207.531 286.352,203.821 281.635 C 202.413 279.845,199.151 279.301,197.149 280.522 M22.325 281.974 C 20.329 282.462,19.533 285.524,21.036 286.936 L 21.749 287.606 72.125 287.606 L 122.501 287.606 123.298 286.658 C 124.362 285.395,124.329 284.181,123.197 282.915 L 122.298 281.909 72.620 281.866 C 45.296 281.843,22.664 281.892,22.325 281.974 M277.872 282.055 C 275.977 282.826,275.397 285.108,276.702 286.658 L 277.499 287.606 327.918 287.606 L 378.338 287.606 379.007 286.893 C 380.005 285.831,379.941 283.650,378.882 282.656 L 378.087 281.909 328.305 281.850 C 300.924 281.817,278.229 281.909,277.872 282.055 M147.806 303.793 C 147.383 303.867,145.997 304.081,144.727 304.267 C 130.807 306.311,122.283 316.005,121.726 330.426 C 121.151 345.292,127.469 352.394,151.567 363.966 C 167.036 371.394,170.005 374.286,170.025 381.944 C 170.071 399.822,145.250 403.451,132.880 387.375 C 129.746 383.302,127.074 377.499,125.472 371.286 L 124.618 367.975 122.509 367.975 L 120.400 367.975 120.400 385.219 L 120.400 402.463 122.556 402.463 C 124.122 402.463,124.711 402.354,124.711 402.062 C 124.711 401.841,125.059 400.962,125.485 400.108 C 126.887 397.294,128.254 397.210,135.403 399.499 C 154.997 405.772,173.519 401.690,181.977 389.237 C 188.944 378.977,188.457 364.914,180.802 355.281 C 176.924 350.401,175.315 349.360,159.742 341.657 C 141.033 332.402,138.472 330.457,137.325 324.625 C 134.216 308.820,154.300 302.375,167.762 314.858 C 172.046 318.830,175.849 324.961,177.861 331.141 L 178.726 333.795 180.818 333.795 L 182.910 333.795 182.910 318.707 L 182.910 303.618 180.673 303.618 L 178.436 303.618 177.911 305.095 C 176.651 308.644,175.073 308.914,168.395 306.724 C 160.624 304.176,152.348 302.998,147.806 303.793 M25.250 307.591 L 25.250 309.408 27.175 309.610 C 32.488 310.165,34.751 311.223,36.193 313.825 L 37.105 315.473 37.105 352.887 L 37.105 390.300 36.415 391.591 C 35.124 394.007,33.057 395.028,28.099 395.699 L 25.250 396.084 25.250 397.889 L 25.250 399.694 65.966 399.616 L 106.682 399.538 109.365 385.681 C 110.841 378.060,112.057 371.582,112.067 371.286 C 112.084 370.823,111.794 370.749,110.008 370.760 L 107.929 370.772 106.335 374.070 C 99.299 388.618,88.755 395.046,71.889 395.067 C 59.809 395.082,60.228 395.896,60.109 372.209 L 60.019 354.119 61.187 354.119 C 73.863 354.129,80.673 360.481,82.068 373.595 L 82.289 375.674 84.255 375.674 L 86.220 375.674 86.220 352.117 L 86.220 328.560 84.219 328.560 C 82.409 328.560,82.217 328.621,82.217 329.189 C 82.217 330.219,81.310 334.418,80.624 336.567 C 77.930 345.004,73.166 348.422,63.188 349.076 L 60.017 349.284 60.109 331.917 C 60.228 309.216,59.349 310.826,71.594 310.890 C 90.667 310.990,98.539 316.514,101.351 331.774 L 101.723 333.795 103.671 333.795 L 105.620 333.795 105.620 319.784 L 105.620 305.774 65.435 305.774 L 25.250 305.774 25.250 307.591 M196.151 307.606 C 196.151 308.911,196.268 309.469,196.544 309.469 C 202.705 309.469,206.371 311.453,207.636 315.473 L 208.314 317.629 208.314 352.887 C 208.314 390.698,208.344 389.948,206.756 392.373 C 205.567 394.189,202.802 395.273,197.921 395.837 L 196.151 396.041 196.151 397.867 L 196.151 399.692 219.861 399.692 L 243.572 399.692 243.572 397.882 L 243.572 396.072 241.186 395.719 C 231.424 394.275,231.255 393.861,231.255 371.445 L 231.255 356.243 232.969 356.336 L 234.682 356.428 248.937 377.983 L 263.192 399.538 277.708 399.618 L 292.225 399.698 292.225 397.848 L 292.225 395.997 291.224 395.990 C 289.896 395.981,287.950 395.053,286.960 393.957 C 285.224 392.035,258.923 354.351,259.169 354.136 C 259.313 354.011,260.539 353.531,261.894 353.071 C 274.434 348.811,280.216 341.632,280.216 330.319 C 280.216 317.158,271.747 309.555,253.686 306.502 C 250.858 306.024,247.446 305.951,223.326 305.853 L 196.151 305.743 196.151 307.606 M294.996 307.591 L 294.996 309.408 296.921 309.610 C 304.060 310.356,306.137 311.856,307.002 316.891 C 307.534 319.988,307.280 388.967,306.731 390.607 C 305.740 393.565,303.159 395.031,297.712 395.729 L 294.996 396.077 294.996 397.885 L 294.996 399.692 320.092 399.692 L 345.189 399.692 345.189 397.906 L 345.189 396.119 341.109 395.771 C 334.737 395.227,332.531 394.248,330.929 391.253 C 330.260 390.003,330.253 389.844,330.168 372.023 L 330.081 354.053 332.631 354.275 C 343.498 355.224,348.366 360.124,350.371 372.132 L 350.936 375.520 352.835 375.611 L 354.734 375.703 354.734 352.132 L 354.734 328.560 352.793 328.560 L 350.851 328.560 350.451 330.947 C 348.401 343.158,343.477 348.191,332.728 349.063 L 330.081 349.278 330.167 331.592 C 330.278 309.112,329.413 310.833,340.570 310.883 C 358.550 310.964,365.749 315.662,369.317 329.638 L 370.338 333.641 372.236 333.733 L 374.134 333.825 374.134 319.799 L 374.134 305.774 334.565 305.774 L 294.996 305.774 294.996 307.591 M245.420 311.487 C 253.314 313.884,256.439 319.866,256.108 331.948 C 255.703 346.772,249.980 351.625,232.871 351.652 L 231.255 351.655 231.268 333.564 C 231.283 313.301,231.311 313.009,233.304 311.856 C 235.440 310.620,241.917 310.423,245.420 311.487 M20.993 414.262 C 20.036 415.280,20.059 417.505,21.036 418.422 L 21.749 419.092 200.043 419.092 L 378.338 419.092 379.007 418.379 C 379.964 417.361,379.941 415.136,378.964 414.218 L 378.251 413.549 199.957 413.549 L 21.662 413.549 20.993 414.262 " stroke="none" fill="#142474" fill-rule="evenodd"></path><path id="path1" d="" stroke="none" fill="#182474" fill-rule="evenodd"></path></g></svg>