<?xml version="1.0" encoding="UTF-8"?>
<!-- Created with Inkscape (http://www.inkscape.org/) -->
<svg width="111.35" height="130.85" version="1.1" viewBox="0 0 111.35 130.85" xml:space="preserve" xmlns="http://www.w3.org/2000/svg" xmlns:cc="http://creativecommons.org/ns#" xmlns:dc="http://purl.org/dc/elements/1.1/" xmlns:rdf="http://www.w3.org/1999/02/22-rdf-syntax-ns#"><metadata><rdf:rdf><cc:work rdf:about=""><dc:format>image/svg+xml</dc:format><dc:type rdf:resource="http://purl.org/dc/dcmitype/StillImage"/><dc:title/></cc:work></rdf:rdf><rdf:RDF><cc:Work rdf:about=""><dc:format>image/svg+xml</dc:format><dc:type rdf:resource="http://purl.org/dc/dcmitype/StillImage"/><dc:title/></cc:Work></rdf:RDF></metadata><defs><clipPath><path d="m464.75 512.39z"/></clipPath><clipPath><path d="m148.62 201.76z"/></clipPath><clipPath id="clipPath176"><path d="M 0,841.89 H 595.28 V 0 H 0 Z"/></clipPath><clipPath id="clipPath200"><path d="m284.96 234.64h131.13v-82.125h-131.13z"/></clipPath><clipPath id="clipPath216"><path d="m276.33 247.68h17.333v-14.517h-17.333z"/></clipPath><clipPath id="clipPath232"><path d="m254.67 247.72h19.5v-26.042h-19.5z"/></clipPath><clipPath id="clipPath252"><path d="m248.21 227.35h33.167v-19h-33.167z"/></clipPath><clipPath id="clipPath184-7"><path d="m282.3 241.52h22.293v-8.079h-22.293z"/></clipPath></defs><g transform="matrix(1.25 0 0 -1.25 -145.97 -19.592)"><g><path d="m158.72-113.09c-7.8637-0.0199-15.771 0.29172-23.594 0.0625 6.6143 31.94 13.234 63.902 19.844 95.844l22.781 0.0625c8.8446-0.0414 19.47-0.73051 23.906-9.8125 5.4695-12.182 1.2975-29.652-11.719-35.188-6.6913-0.71824-0.0161-3.0911 2.5312-4.125 8.0634-5.3155 8.2919-16.257 6.5-24.781-0.72863-9.4471-7.6968-17.694-16.844-20.094-7.7174-1.5903-15.543-1.9488-23.406-1.9688zm44.875 10.844c-57.876-12.062-28.938-6.0312 0 0z" fill="#272a7c"/><path d="m133.51-114.59 0.375 1.8125 2.6875 13.062c0.24709 0.98024 0.5079 2.4396 0.78125 3.5938l16.375 79.156 0.21875 1.1875h1.2188c8.1042 0.01559 16.208 0.09375 24.312 0.09375l-0.14142 0.0082c9.1575-0.15822 15.9-1.6803 19.906-5.5 4.1613-3.8782 6.3289-9.5242 6.3289-16.414 0-2.5052-0.17058-4.8988-0.53125-7.1562v-0.03125c-0.82713-4.8687-2.9246-9.2163-6.2188-12.969-2.2761-2.6002-5.0891-4.5379-8.3125-5.875 3.1278-1.3784 5.5973-3.1824 7.3125-5.5 9e-3 -0.01111 0.0225-0.02011 0.0312-0.03125 2.5278-3.2293 3.6875-7.7496 3.6875-13.406 0-2.6938-0.28285-5.5873-0.8125-8.6875-2e-3 -0.01051 2e-3 -0.02074 0-0.03125-1.3577-8.6432-5.3313-15.077-11.812-18.781-6.452-3.6468-15.702-4.5313-26.906-4.5312h-26.656-1.8438zm3.6875 3h24.812c11.031-8e-5 19.901 1.0272 25.438 4.1562 5.6709 3.2412 9.0908 8.6375 10.344 16.656 0.50854 2.9673 0.75 5.7103 0.75 8.2188 0 5.2679-1.0926 9.0935-3.0625 11.594l-0.0312 0.03125c-1.9113 2.5995-5.1686 4.6058-10 5.9375l0.0937 2.9062c4.5878 0.9836 8.1652 3.1053 11 6.3438 2.9598 3.3716 4.7944 7.1314 5.5312 11.469 0.33335 2.0865 0.5 4.3287 0.5 6.6875 0 6.3138-1.7673 10.91-5.25 14.156-3.2359 3.0852-9.6896 4.75-19.344 4.75h-1.5l-20.062-0.09375-16.188-78.188-0.0312-0.1875-0.0625-0.15625-0.1875-0.375 0.125-0.03125-0.28125-1.3125-2.5938-12.562z" color="#000000" fill="#272a7c" style="text-decoration-line:none;text-indent:0;text-transform:none"/><path d="m172.48-57.61c-5.7724-0.05366-9.8489-4.9002-12.9-9.2311-4.2847-4.6495-9.5947-8.2157-14.338-12.376-2.0556-2.2034-5.723-3.6492-6.2704-6.8103 1.5612-3.7722-1.9758-5.9844-4.1993-8.3637-5.5641-5.7428-11.561-11.159-16.269-17.656-1.4999-1.6742-2.2363-5.3234 0.91933-5.1653 0.97623-0.91876 1.7087-0.92383 1.434-2.4822 2.8963 0.99146 5.2543 3.2481 7.7102 5.0648 6.2321 5.1253 11.34 11.486 17.654 16.504 5.3348 4.0846 12.007 5.5596 18.005 8.3081 4.8857 2.7559 8.7627 7.3879 9.8458 12.979 1.1367 3.729 0.79263 8.1548 3.0823 11.328 3.2324 0.85569 6.6119 1.411 9.85 2.125-2.7112 0.43124-5.4225 0.86232-8.1 1.475-0.20329 3.0425-3.8374 4.284-6.425 4.3z" fill="#46ac32" stroke="#fff" stroke-width=".88"/></g><g transform="translate(-100.8,-264)" clip-path="url(#clipPath176)"><g clip-path="url(#clipPath200)" opacity=".7"><g transform="translate(284.96 234.64)"><path d="m1.6971-0.91924 19.191-14.496 0.81001 3.2772-0.31568 3.6608z" fill="#fff"/></g></g><g clip-path="url(#clipPath216)" opacity=".5"/><g transform="matrix(1.048 0 0 1 -13.146 0)"><g clip-path="url(#clipPath232)" opacity=".5"><g transform="translate(274.17 221.68)"><path d="m-0.35355 0.70711-19.146 17.376 1.667 7.875 9.25 0.084z" fill="#fff"/></g></g></g><g transform="translate(273.69 202.39)"><path d="m0 0c0-0.76-0.615-1.375-1.375-1.375s-1.375 0.615-1.375 1.375 0.615 1.375 1.375 1.375 1.375-0.615 1.375-1.375" fill="#283172"/></g><g transform="matrix(1.0241 0 0 1 -6.7515 0)"><g clip-path="url(#clipPath252)" opacity=".8"><g transform="translate(281.38 217.06)"><path d="m-0.84853 0.6364-32.318-9.3454 3.917 19z" fill="#fff"/></g></g></g><g transform="matrix(1.0443 0 0 1 -13.602 .36176)"><g transform="rotate(2.2516 293.45 237.48)"><g clip-path="url(#clipPath184-7)" opacity=".8"><g transform="translate(282.3 235.19)"><path d="m-0.13254 0.075976 18.34 6.253s1.421-1.484 2.543-3.662c1.269-2.463 1.542-4.417 1.542-4.417z" fill="#fff"/></g></g></g></g><g transform="translate(290.45 227.91)" stroke="#fff" stroke-width=".88"><path d="m0-1.3879c0-4.846-3.93-8.775-8.775-8.775-4.846 0-8.776 3.929-8.776 8.775 0 4.847 3.93 8.775 8.776 8.775 4.845 0 8.775-3.928 8.775-8.775" fill="#46ac32" stroke="#fff" stroke-width=".88"/></g></g><path d="m187.25-16.979s-3.1368 0.62003-6.0164 0.71139c-3.1817 0.24345-6.2496-0.0198-6.2496-0.0198l-1.1779-16.074z" fill="#fff" opacity=".5"/></g></svg>
