<?xml version="1.0" encoding="UTF-8"?>
<svg id="svg20" version="1.1" viewBox="0 0 32 32" xml:space="preserve" xmlns="http://www.w3.org/2000/svg" xmlns:cc="http://creativecommons.org/ns#" xmlns:dc="http://purl.org/dc/elements/1.1/" xmlns:rdf="http://www.w3.org/1999/02/22-rdf-syntax-ns#"><metadata id="metadata26"><rdf:RDF><cc:Work rdf:about=""><dc:format>image/svg+xml</dc:format><dc:type rdf:resource="http://purl.org/dc/dcmitype/StillImage"/></cc:Work></rdf:RDF></metadata><rect id="rect812" x="4.2712" y="4.339" width="23.525" height="23.525" fill="none" stroke="#00a651" stroke-linecap="square" stroke-miterlimit="10" stroke-width="1.574"/><ellipse id="path814" cx="20" cy="12.542" rx="4.3157" ry="4.1801" fill="none" stroke="#00a651" stroke-linecap="square" stroke-miterlimit="10" stroke-width="1.7562"/><path id="path816" d="m27.84 13.219c0 5.3423-2.1649 9.4006-7.2871 9.4006s-9.2745-4.3308-9.2745-9.673 4.3932-8.6512 9.5154-8.6512" fill="none" stroke="#00a651" stroke-linecap="round" stroke-miterlimit="10" stroke-width="1.487"/><path id="path818" d="m20.428 27.818c-7.475-0.81504-14.941-5.6107-13.342-13.822 1.0905-5.599 2.7241-5.875 3.079-9.271" fill="none" stroke="#00a651" stroke-linecap="round" stroke-miterlimit="10" stroke-width="1.5324"/><rect id="rect828" x="4.2712" y="4.339" width="4.705" height="4.705" ry="0" fill="#2a768e"/><rect id="rect828-1" x="8.9762" y="4.339" width="4.705" height="4.705" ry="0" fill="#2e6e8e"/><rect id="rect828-5" x="13.681" y="4.339" width="4.705" height="4.705" ry="0" fill="#2e6d8e"/><rect id="rect828-1-2" x="18.386" y="4.339" width="4.705" height="4.705" ry="0" fill="#26828e"/><rect id="rect828-5-8" x="23.091" y="4.339" width="4.705" height="4.705" ry="0" fill="#472e7c"/><rect id="rect828-18" x="4.2712" y="9.044" width="4.705" height="4.705" ry="0" fill="#20928c"/><rect id="rect828-1-9" x="8.9762" y="9.044" width="4.705" height="4.705" ry="0" fill="#1fa386"/><rect id="rect828-5-6" x="13.681" y="9.044" width="4.705" height="4.705" ry="0" fill="#95d83f"/><rect id="rect828-1-2-4" x="18.386" y="9.044" width="4.705" height="4.705" ry="0" fill="#20a486"/><rect id="rect828-5-8-3" x="23.091" y="9.044" width="4.705" height="4.705" ry="0" fill="#2e6d8e"/><rect id="rect828-8" x="4.2712" y="13.749" width="4.705" height="4.705" ry="0" fill="#32658e"/><rect id="rect828-1-97" x="8.9762" y="13.749" width="4.705" height="4.705" ry="0" fill="#38b977"/><rect id="rect828-5-7" x="13.681" y="13.749" width="4.705" height="4.705" ry="0" fill="#fee724"/><rect id="rect828-1-2-6" x="18.386" y="13.749" width="4.705" height="4.705" ry="0" fill="#6cce5a"/><rect id="rect828-5-8-4" x="23.091" y="13.749" width="4.705" height="4.705" ry="0" fill="#218e8d"/><rect id="rect828-54" x="4.2712" y="18.454" width="4.705" height="4.705" ry="0" fill="#1f938c"/><rect id="rect828-1-0" x="8.9762" y="18.454" width="4.705" height="4.705" ry="0" fill="#27ae81"/><rect id="rect828-5-5" x="13.681" y="18.454" width="4.705" height="4.705" ry="0" fill="#7cd24f"/><rect id="rect828-1-2-9" x="18.386" y="18.454" width="4.705" height="4.705" ry="0" fill="#4dc36b"/><rect id="rect828-5-8-46" x="23.091" y="18.454" width="4.705" height="4.705" ry="0" fill="#33628d"/><rect id="rect828-81" x="4.2712" y="23.159" width="4.705" height="4.705" ry="0" fill="#414387"/><rect id="rect828-1-28" x="8.9762" y="23.159" width="4.705" height="4.705" ry="0" fill="#1f938c"/><rect id="rect828-5-9" x="13.681" y="23.159" width="4.705" height="4.705" ry="0" fill="#26ad81"/><rect id="rect828-1-2-3" x="18.386" y="23.159" width="4.705" height="4.705" ry="0" fill="#21a785"/><rect id="rect828-5-8-6" x="23.091" y="23.159" width="4.705" height="4.705" ry="0" fill="#433882"/></svg>
