<?xml version="1.0" encoding="UTF-8"?>
<!-- Created with Inkscape (http://www.inkscape.org/) -->
<svg id="svg2" width="32" height="32" version="1.1" xmlns="http://www.w3.org/2000/svg" xmlns:cc="http://creativecommons.org/ns#" xmlns:dc="http://purl.org/dc/elements/1.1/" xmlns:rdf="http://www.w3.org/1999/02/22-rdf-syntax-ns#">
 <metadata id="metadata4">
  <rdf:RDF>
   <cc:Work rdf:about="">
    <dc:format>image/svg+xml</dc:format>
    <dc:type rdf:resource="http://purl.org/dc/dcmitype/StillImage"/>
    <dc:title/>
   </cc:Work>
  </rdf:RDF>
 </metadata>
 <rect id="rect3234" x="3.7708" y="5.3981" width="24.538" height="21.87" color="#000000" fill="none" stroke="#000" stroke-linecap="round" stroke-width="2.6107"/>
 <g id="text817" stroke-width=".18743" aria-label="Lima">
  <path id="path819" d="m6.5243 13.33h1.4094v4.4001h2.4746v1.0653h-3.884z"/>
  <path id="path821" d="m11.239 14.695h1.3105v4.1h-1.3105zm0-1.5961h1.3105v1.0689h-1.3105z"/>
  <path id="path823" d="m17.616 15.376q0.24893-0.38071 0.58937-0.57839 0.3441-0.20134 0.7541-0.20134 0.70651 0 1.0762 0.43562 0.36973 0.43562 0.36973 1.2666v2.4966h-1.3178v-2.1378q0.0037-0.04759 0.0037-0.09884 0.0037-0.05125 0.0037-0.14643 0-0.43562-0.12812-0.62964-0.12812-0.19768-0.41366-0.19768-0.37339 0-0.57839 0.3075-0.20134 0.3075-0.20866 0.88954v2.0134h-1.3178v-2.1378q0-0.68089-0.11714-0.8749-0.11714-0.19768-0.41732-0.19768-0.37705 0-0.58205 0.31116-0.205 0.3075-0.205 0.88222v2.017h-1.3178v-4.1h1.3178v0.60035q0.2416-0.34776 0.55276-0.52348 0.31482-0.17571 0.69187-0.17571 0.42464 0 0.75044 0.205t0.49419 0.57473z"/>
  <path id="path825" d="m23.473 16.95q-0.41 0-0.61866 0.13911-0.205 0.13911-0.205 0.41 0 0.24893 0.16473 0.39169 0.16839 0.13911 0.46491 0.13911 0.36973 0 0.62232-0.26357 0.25259-0.26723 0.25259-0.66624v-0.15009zm2.0024-0.49419v2.3392h-1.3215v-0.60767q-0.26357 0.37339-0.59303 0.54544-0.32946 0.16839-0.80169 0.16839-0.63696 0-1.036-0.36973-0.39535-0.37339-0.39535-0.96642 0-0.72115 0.49419-1.0579 0.49785-0.33678 1.5595-0.33678h0.7724v-0.1025q0-0.31116-0.24527-0.45392-0.24527-0.14643-0.76508-0.14643-0.42098 0-0.78339 0.0842t-0.67357 0.25259v-0.99937q0.42098-0.1025 0.84562-0.15375 0.42464-0.05491 0.84928-0.05491 1.1092 0 1.5997 0.43928 0.49419 0.43562 0.49419 1.4203z"/>
 </g>
</svg>
