<?xml version="1.0" encoding="UTF-8"?>
<!-- Created with Inkscape (http://www.inkscape.org/) -->
<svg id="svg2" width="32" height="32" version="1.1" xmlns="http://www.w3.org/2000/svg" xmlns:cc="http://creativecommons.org/ns#" xmlns:dc="http://purl.org/dc/elements/1.1/" xmlns:rdf="http://www.w3.org/1999/02/22-rdf-syntax-ns#">
 <metadata id="metadata4">
  <rdf:RDF>
   <cc:Work rdf:about="">
    <dc:format>image/svg+xml</dc:format>
    <dc:type rdf:resource="http://purl.org/dc/dcmitype/StillImage"/>
    <dc:title/>
   </cc:Work>
  </rdf:RDF>
 </metadata>
 <rect id="rect3234" x="3.7708" y="5.3981" width="24.538" height="21.87" color="#000000" fill="none" stroke="#000" stroke-linecap="round" stroke-width="2.6107"/>
 <g id="layer1" transform="matrix(.35498 0 0 .35498 7.3362 8.0024)">
  <path id="path3243" d="m23.25 0.46875c-0.46544 0.031846-0.91783 0.10393-1.375 0.15625h-0.03125l-1.0938 5.9688c-1.7827 0.40599-3.4599 1.095-4.9688 2.0312l-4.9062-3.5312c-1.3263 1.0297-2.5332 2.2306-3.5938 3.5312l3.4062 4.9688c-1.0342 1.5805-1.812 3.3852-2.25 5.2812-7.5e-5 9e-3 -6.09e-5 0.02969 0 0.03125l-5.9375 0.9375c-0.10855 0.88663-0.15625 1.8029-0.15625 2.7188 1e-7 0.7493 0.020689 1.4886 0.09375 2.2188l5.9375 1.0625c0.42228 2.0619 1.2245 3.9875 2.3438 5.6875l-3.5312 4.8438c1.0113 1.2555 2.1789 2.3986 3.4375 3.4062l5-3.4375c1.7474 1.1147 3.6981 1.8964 5.8125 2.2812l0.9375 5.9062c0.66618 0.06064 1.3493 0.0625 2.0312 0.0625 0.96268-1e-6 1.8822-0.03648 2.8125-0.15625l1.125-6.0312c2.0076-0.4996 3.8935-1.3663 5.5312-2.5312l4.8125 3.5c1.248-1.0618 2.3893-2.2823 3.375-3.5938l-3.5-5.0625c0.94785-1.637 1.6046-3.4431 1.9375-5.375l5.9062-0.9375c0.05179-0.61635 0.0625-1.2141 0.0625-1.8438 0-1.0942-0.12718-2.1671-0.28125-3.2188l-6-1.0938c-0.47019-1.7362-1.2417-3.3561-2.2188-4.8125l3.5312-4.8438c-1.0946-1.3386-2.3432-2.5752-3.7188-3.625l-5.0938 3.5c-1.464-0.86584-3.0395-1.5302-4.75-1.9062l-0.9375-5.9375c-0.8533-0.10038-1.7136-0.15625-2.5938-0.15625-0.23787 1e-8 -0.48268-0.007485-0.71875 0-0.11508 0.003649-0.22897-0.006695-0.34375 0-0.03109 0.001813-0.06272-0.002123-0.09375 0zm0.8125 15.188c0.11417-0.0058 0.22815 0 0.34375 0 3.6991 0 6.7188 3.0196 6.7188 6.7188 1e-6 3.6991-3.0196 6.6875-6.7188 6.6875-3.6991 1e-6 -6.6875-2.9884-6.6875-6.6875 1e-6 -3.5835 2.8046-6.5392 6.3438-6.7188z" color="#000000"/>
 </g>
</svg>
