<?xml version="1.0" encoding="UTF-8"?>
<svg id="svg8295" version="1.1" viewBox="0 0 32 32" xml:space="preserve" xmlns="http://www.w3.org/2000/svg" xmlns:cc="http://creativecommons.org/ns#" xmlns:dc="http://purl.org/dc/elements/1.1/" xmlns:rdf="http://www.w3.org/1999/02/22-rdf-syntax-ns#"><metadata id="metadata8301"><rdf:RDF><cc:Work rdf:about=""><dc:format>image/svg+xml</dc:format><dc:type rdf:resource="http://purl.org/dc/dcmitype/StillImage"/><dc:title/></cc:Work></rdf:RDF></metadata><g id="text8305" transform="scale(.8179 1.2226)" stroke-width=".39147" aria-label="10m"><path id="path4743" d="m6.7421 12.593h1.965v-5.6885q0-0.35171 0.022938-0.734l-1.3227 1.1392q-0.12998 0.10704-0.25996 0.12998-0.12998 0.022938-0.24467 0-0.11469-0.022938-0.20644-0.076459-0.084105-0.061167-0.12998-0.12233l-0.58109-0.79517 3.0507-2.6455h1.5139v8.7928h1.7356v1.3763h-5.5433z"/><path id="path4745" d="m20.505 8.8852q0 1.3304-0.2829 2.3091-0.27525 0.97867-0.77224 1.6209-0.48934 0.64225-1.1622 0.95574-0.66519 0.30584-1.4451 0.30584t-1.4451-0.30584q-0.65755-0.31348-1.1469-0.95574-0.48934-0.64225-0.76459-1.6209-0.27525-0.97867-0.27525-2.3091 0-1.3304 0.27525-2.3014 0.27525-0.97867 0.76459-1.6133 0.48934-0.64225 1.1469-0.95574 0.66519-0.31348 1.4451-0.31348t1.4451 0.31348q0.67284 0.31348 1.1622 0.95574 0.49698 0.63461 0.77224 1.6133 0.2829 0.97103 0.2829 2.3014zm-1.9038 0q0-1.0857-0.15292-1.7891-0.14527-0.71107-0.38994-1.1239-0.24467-0.42052-0.5658-0.58109-0.31348-0.16821-0.6499-0.16821t-0.6499 0.16821q-0.30584 0.16056-0.5505 0.58109-0.23702 0.41288-0.38229 1.1239-0.14527 0.70342-0.14527 1.7891 0 1.0934 0.14527 1.8044 0.14527 0.70342 0.38229 1.1239 0.24467 0.41288 0.5505 0.58109 0.31348 0.16056 0.6499 0.16056t0.6499-0.16056q0.32113-0.16821 0.5658-0.58109 0.24467-0.42052 0.38994-1.1239 0.15292-0.71107 0.15292-1.8044z"/><path id="path4747" d="m21.82 13.97v-7.5924h1.1928q0.1835 0 0.30584 0.084105 0.12998 0.084105 0.16821 0.25996l0.12998 0.53521q0.20644-0.21408 0.42052-0.39759 0.22173-0.1835 0.47404-0.31348 0.25231-0.13763 0.53521-0.21408 0.29054-0.076459 0.63461-0.076459 0.72636 0 1.1928 0.38994 0.47404 0.38229 0.70342 1.0169 0.1835-0.37465 0.45111-0.64225 0.27525-0.26761 0.60402-0.43582 0.32877-0.16821 0.68813-0.24467 0.367-0.084105 0.734-0.084105 0.64225 0 1.1392 0.19879 0.50463 0.19115 0.84105 0.5658 0.34406 0.367 0.51992 0.90221 0.17586 0.53521 0.17586 1.2157v4.8322h-1.9421v-4.8322q0-1.3686-1.2233-1.3686-0.27525 0-0.51227 0.091751-0.23702 0.084105-0.42052 0.25996-0.17586 0.16821-0.2829 0.42817-0.0994 0.25231-0.0994 0.58873v4.8322h-1.9421v-4.8322q0-0.734-0.30584-1.0475-0.30584-0.32113-0.88692-0.32113-0.38994 0-0.72636 0.17586-0.33642 0.17586-0.62696 0.49698v5.528z"/></g>

<line id="line8287" x1="25.712" x2="6.7701" y1="22.685" y2="22.685" fill="none" stroke="#00a14b" stroke-miterlimit="10" stroke-width="1.5"/><polygon id="polygon8289" transform="translate(-.22991)" points="25.47 24.417 25.463 20.953 28.467 22.68" fill="#00a14b" stroke="#00a14b" stroke-miterlimit="10" stroke-width="1.5"/><polygon id="polygon8291" transform="translate(-.22991)" points="6.988 24.417 3.993 22.676 7 20.953" fill="#00a14b" stroke="#00a14b" stroke-miterlimit="10" stroke-width="1.5"/><line id="line8287-2" x1="2.1686" x2="2.1686" y1="26.413" y2="18.957" fill="none" stroke="#00a14b" stroke-miterlimit="10" stroke-width="1.5"/><line id="line8287-2-1" x1="29.831" x2="29.831" y1="26.413" y2="18.957" fill="none" stroke="#00a14b" stroke-miterlimit="10" stroke-width="1.5"/></svg>
