<?xml version="1.0" encoding="UTF-8"?>
<svg id="svg8295" version="1.1" viewBox="0 0 32 32" xml:space="preserve" xmlns="http://www.w3.org/2000/svg" xmlns:cc="http://creativecommons.org/ns#" xmlns:dc="http://purl.org/dc/elements/1.1/" xmlns:rdf="http://www.w3.org/1999/02/22-rdf-syntax-ns#"><metadata id="metadata8301"><rdf:RDF><cc:Work rdf:about=""><dc:format>image/svg+xml</dc:format><dc:type rdf:resource="http://purl.org/dc/dcmitype/StillImage"/><dc:title/></cc:Work></rdf:RDF></metadata><line id="line8287" x1="25.712" x2="6.7701" y1="22.685" y2="22.685" fill="none" stroke="#00a14b" stroke-miterlimit="10" stroke-width="1.5"/><polygon id="polygon8289" transform="translate(-.22991)" points="25.463 20.953 28.467 22.68 25.47 24.417" fill="#00a14b" stroke="#00a14b" stroke-miterlimit="10" stroke-width="1.5"/><polygon id="polygon8291" transform="translate(-.22991)" points="3.993 22.676 7 20.953 6.988 24.417" fill="#00a14b" stroke="#00a14b" stroke-miterlimit="10" stroke-width="1.5"/><g id="text8305" transform="scale(1.1483 .87086)" aria-label="x"><path id="path4723" d="m12.146 13.723-2.9627-5.1633h2.6192q0.28983 0 0.41864 0.085875 0.13955 0.075141 0.24689 0.25763l1.6853 3.2633q0.05367-0.12881 0.11808-0.25763 0.06441-0.13955 0.15028-0.2791l1.1593-2.6836q0.23616-0.38644 0.60113-0.38644h2.5011l-2.9734 5.0237 3.1022 5.6356h-2.6192q-0.28983 0-0.47231-0.15028-0.18249-0.16102-0.28983-0.3435l-1.696-3.3813q-0.04294 0.11808-0.09661 0.22542-0.04294 0.10734-0.09661 0.19322l-1.3418 2.9627q-0.11808 0.18248-0.28983 0.3435-0.16102 0.15028-0.42938 0.15028h-2.426z" stroke-width=".5496"/></g>
<line id="line8287-2" x1="2.1686" x2="2.1686" y1="26.413" y2="18.957" fill="none" stroke="#00a14b" stroke-miterlimit="10" stroke-width="1.5" style="font-variant-east_asian:normal"/><line id="line8287-2-1" x1="29.831" x2="29.831" y1="26.413" y2="18.957" fill="none" stroke="#00a14b" stroke-miterlimit="10" stroke-width="1.5"/></svg>
