<?xml version="1.0" encoding="UTF-8"?>
<svg id="svg8295" version="1.1" viewBox="0 0 32 32" xml:space="preserve" xmlns="http://www.w3.org/2000/svg" xmlns:cc="http://creativecommons.org/ns#" xmlns:dc="http://purl.org/dc/elements/1.1/" xmlns:rdf="http://www.w3.org/1999/02/22-rdf-syntax-ns#"><metadata id="metadata8301"><rdf:RDF><cc:Work rdf:about=""><dc:format>image/svg+xml</dc:format><dc:type rdf:resource="http://purl.org/dc/dcmitype/StillImage"/><dc:title/></cc:Work></rdf:RDF></metadata><g id="text8305" transform="scale(.89393 1.1187)" stroke-width=".42786" aria-label="5m"><path id="path4726" d="m6.5547 15.192m6.936-10.254q0 0.42619-0.27577 0.70196-0.27577 0.26741-0.91087 0.26741h-2.8413l-0.36769 2.1811q0.66017-0.13371 1.2702-0.13371 0.85238 0 1.5042 0.26741 0.66018 0.25906 1.1031 0.71867t0.66853 1.078q0.22563 0.61839 0.22563 1.3287 0 0.8858-0.3092 1.6212-0.30084 0.72703-0.84402 1.2451t-1.2953 0.81059q-0.74374 0.28413-1.6295 0.28413-0.51811 0-0.98608-0.10864-0.45962-0.10864-0.86909-0.29248-0.40948-0.18385-0.76045-0.42619-0.34262-0.24234-0.61839-0.50976l0.61839-0.85238q0.20892-0.27577 0.51811-0.27577 0.20056 0 0.39276 0.12535 0.1922 0.11699 0.43455 0.26741 0.2507 0.15042 0.57661 0.27577 0.33427 0.11699 0.81059 0.11699 0.49304 0 0.85238-0.16713 0.36769-0.16713 0.61004-0.45962 0.24234-0.29248 0.35934-0.68524 0.12535-0.40112 0.12535-0.86909 0-0.8858-0.49304-1.3705-0.49304-0.48469-1.429-0.48469-0.37605 0-0.76045 0.07521-0.38441 0.066853-0.76881 0.20892l-1.2451-0.34262 0.90252-5.4402h5.4318z"/><path id="path4728" d="m15.822 15.192v-8.2981h1.3036q0.20056 0 0.33427 0.091923 0.14206 0.091923 0.18385 0.28413l0.14206 0.58497q0.22563-0.23399 0.45962-0.43455 0.24234-0.20056 0.51811-0.34262 0.27577-0.15042 0.58496-0.23399 0.31755-0.083566 0.6936-0.083566 0.79388 0 1.3036 0.42619 0.51811 0.41783 0.76881 1.1114 0.20056-0.40948 0.49304-0.70196 0.30084-0.29248 0.66018-0.47633 0.35934-0.18385 0.7521-0.26741 0.40112-0.091923 0.80224-0.091923 0.70196 0 1.2451 0.21727 0.55154 0.20892 0.91923 0.61839 0.37605 0.40112 0.56825 0.98608 0.1922 0.58497 0.1922 1.3287v5.2814h-2.1226v-5.2814q0-1.4958-1.3371-1.4958-0.30084 0-0.5599 0.10028-0.25906 0.091923-0.45962 0.28413-0.1922 0.18385-0.3092 0.46797-0.10864 0.27577-0.10864 0.64346v5.2814h-2.1226v-5.2814q0-0.80224-0.33426-1.1449-0.33427-0.35098-0.96937-0.35098-0.42619 0-0.79388 0.1922-0.36769 0.1922-0.68524 0.54318v6.0419z"/></g>

<line id="line8287" x1="25.712" x2="6.7701" y1="22.685" y2="22.685" fill="none" stroke="#00a14b" stroke-miterlimit="10" stroke-width="1.5"/><polygon id="polygon8289" transform="translate(-.22991)" points="25.47 24.417 25.463 20.953 28.467 22.68" fill="#00a14b" stroke="#00a14b" stroke-miterlimit="10" stroke-width="1.5"/><polygon id="polygon8291" transform="translate(-.22991)" points="6.988 24.417 3.993 22.676 7 20.953" fill="#00a14b" stroke="#00a14b" stroke-miterlimit="10" stroke-width="1.5"/><line id="line8287-2" x1="2.1686" x2="2.1686" y1="26.413" y2="18.957" fill="none" stroke="#00a14b" stroke-miterlimit="10" stroke-width="1.5"/><line id="line8287-2-1" x1="29.831" x2="29.831" y1="26.413" y2="18.957" fill="none" stroke="#00a14b" stroke-miterlimit="10" stroke-width="1.5"/></svg>
