<?xml version="1.0" encoding="UTF-8"?>
<svg id="svg8295" version="1.1" viewBox="0 0 32 32" xml:space="preserve" xmlns="http://www.w3.org/2000/svg" xmlns:cc="http://creativecommons.org/ns#" xmlns:dc="http://purl.org/dc/elements/1.1/" xmlns:rdf="http://www.w3.org/1999/02/22-rdf-syntax-ns#"><metadata id="metadata8301"><rdf:RDF><cc:Work rdf:about=""><dc:format>image/svg+xml</dc:format><dc:type rdf:resource="http://purl.org/dc/dcmitype/StillImage"/><dc:title/></cc:Work></rdf:RDF></metadata><g id="text8305" transform="scale(.89393 1.1187)" stroke-width=".42786" aria-label="2m"><path id="path818" d="m7.344 15.192m3.9193-11.223q0.76881 0 1.3956 0.23399 0.6351 0.22563 1.078 0.64346 0.45126 0.41783 0.6936 1.0112 0.2507 0.58497 0.2507 1.2953 0 0.61004-0.17549 1.1365-0.17549 0.51811-0.46797 0.99444-0.29248 0.46797-0.68524 0.91923-0.39276 0.4429-0.82731 0.89416l-2.3566 2.4652q0.37605-0.11699 0.7521-0.17549 0.37605-0.06685 0.70196-0.06685h2.5154q0.31755 0 0.50976 0.18385 0.20056 0.18385 0.20056 0.48469v1.2034h-7.5043v-0.67689q0-0.1922 0.07521-0.40948 0.083566-0.22563 0.28413-0.41783l3.2257-3.3176q0.40948-0.42619 0.71867-0.81059 0.31755-0.38441 0.52647-0.76045 0.21727-0.38441 0.32591-0.76881 0.10864-0.39276 0.10864-0.81895 0-0.76881-0.38441-1.1616-0.3844-0.39276-1.0864-0.39276-0.30084 0-0.55154 0.091923-0.2507 0.09192-0.45126 0.2507-0.20056 0.15878-0.34262 0.37605-0.14206 0.21727-0.21727 0.46797-0.13371 0.38441-0.36769 0.5014-0.22563 0.11699-0.62675 0.05014l-1.0697-0.18385q0.12535-0.81059 0.45126-1.4123 0.32591-0.61004 0.81059-1.0112 0.49304-0.40948 1.1281-0.61004 0.6351-0.20892 1.3621-0.20892z"/><path id="path820" d="m16.528 15.192v-8.2981h1.3036q0.20056 0 0.33427 0.091923 0.14206 0.091923 0.18385 0.28413l0.14206 0.58497q0.22563-0.23399 0.45962-0.43455 0.24234-0.20056 0.51811-0.34262 0.27577-0.15042 0.58496-0.23399 0.31755-0.083566 0.6936-0.083566 0.79388 0 1.3036 0.42619 0.51811 0.41783 0.76881 1.1114 0.20056-0.40948 0.49304-0.70196 0.30084-0.29248 0.66018-0.47633 0.35934-0.18385 0.7521-0.26741 0.40112-0.091923 0.80224-0.091923 0.70196 0 1.2451 0.21727 0.55154 0.20892 0.91923 0.61839 0.37605 0.40112 0.56825 0.98608 0.1922 0.58497 0.1922 1.3287v5.2814h-2.1226v-5.2814q0-1.4958-1.3371-1.4958-0.30084 0-0.5599 0.10028-0.25906 0.091923-0.45962 0.28413-0.1922 0.18385-0.3092 0.46797-0.10864 0.27577-0.10864 0.64346v5.2814h-2.1226v-5.2814q0-0.80224-0.33427-1.1449-0.33427-0.35098-0.96937-0.35098-0.42619 0-0.79388 0.1922t-0.68524 0.54318v6.0419z"/></g>

<line id="line8287" x1="25.712" x2="6.7701" y1="22.685" y2="22.685" fill="none" stroke="#00a14b" stroke-miterlimit="10" stroke-width="1.5"/><polygon id="polygon8289" transform="translate(-.22991)" points="25.47 24.417 25.463 20.953 28.467 22.68" fill="#00a14b" stroke="#00a14b" stroke-miterlimit="10" stroke-width="1.5"/><polygon id="polygon8291" transform="translate(-.22991)" points="6.988 24.417 3.993 22.676 7 20.953" fill="#00a14b" stroke="#00a14b" stroke-miterlimit="10" stroke-width="1.5"/><line id="line8287-2" x1="2.1686" x2="2.1686" y1="26.413" y2="18.957" fill="none" stroke="#00a14b" stroke-miterlimit="10" stroke-width="1.5"/><line id="line8287-2-1" x1="29.831" x2="29.831" y1="26.413" y2="18.957" fill="none" stroke="#00a14b" stroke-miterlimit="10" stroke-width="1.5"/></svg>
