<?xml version="1.0" encoding="UTF-8"?>
<svg id="svg8295" version="1.1" viewBox="0 0 32 32" xml:space="preserve" xmlns="http://www.w3.org/2000/svg" xmlns:cc="http://creativecommons.org/ns#" xmlns:dc="http://purl.org/dc/elements/1.1/" xmlns:rdf="http://www.w3.org/1999/02/22-rdf-syntax-ns#"><metadata id="metadata8301"><rdf:RDF><cc:Work rdf:about=""><dc:format>image/svg+xml</dc:format><dc:type rdf:resource="http://purl.org/dc/dcmitype/StillImage"/><dc:title/></cc:Work></rdf:RDF></metadata><g id="text8305" transform="scale(.89393 1.1187)" stroke-width=".42786" aria-label="30s"><path id="path11914" d="m6.3287 15.192m4.053-11.223q0.76881 0 1.3788 0.22563 0.61839 0.22563 1.0446 0.61839 0.42619 0.38441 0.65182 0.91087 0.23399 0.51811 0.23399 1.1114 0 0.52647-0.11699 0.92759-0.10864 0.40112-0.32591 0.70196t-0.53482 0.50976q-0.31755 0.20892-0.71867 0.34262 1.897 0.64346 1.897 2.5655 0 0.84402-0.3092 1.4875-0.30084 0.6351-0.81895 1.0696-0.50976 0.43455-1.195 0.65182-0.67689 0.21727-1.429 0.21727-0.79388 0-1.4039-0.18385-0.60168-0.18385-1.0613-0.55154-0.45126-0.37605-0.78552-0.92759-0.32591-0.55154-0.5599-1.2786l0.8858-0.37605q0.35098-0.14206 0.65182-0.06685 0.3092 0.06685 0.43455 0.32591 0.15042 0.28413 0.31755 0.53482 0.16713 0.24234 0.37605 0.43454 0.21727 0.18385 0.49304 0.29248 0.27577 0.10864 0.6351 0.10864 0.4429 0 0.76881-0.14206 0.33427-0.15042 0.55154-0.3844 0.21727-0.24234 0.32591-0.54318t0.10864-0.60168q0-0.3844-0.07521-0.70196-0.06685-0.31755-0.31755-0.54318-0.24234-0.22563-0.71867-0.35098-0.47633-0.12535-1.2953-0.12535v-1.429q0.68525-0.00836 1.1198-0.12535 0.4429-0.11699 0.6936-0.32591 0.2507-0.21727 0.34262-0.50976 0.09192-0.29248 0.09192-0.65182 0-0.76045-0.38441-1.1449-0.37605-0.38441-1.0613-0.38441-0.61004 0-1.0195 0.34262-0.40947 0.34262-0.56825 0.84402-0.13371 0.38441-0.35934 0.5014-0.21727 0.11699-0.62675 0.05014l-1.0613-0.18385q0.11699-0.81059 0.4429-1.4123 0.32591-0.61004 0.81895-1.0112 0.49304-0.40948 1.1198-0.61004 0.6351-0.20892 1.3621-0.20892z"/><path id="path11916" d="m22.708 9.6346q0 1.4541-0.3092 2.5237-0.30084 1.0696-0.84402 1.7716-0.53483 0.70196-1.2702 1.0446-0.72703 0.33426-1.5794 0.33426t-1.5794-0.33426q-0.71867-0.34262-1.2535-1.0446t-0.83566-1.7716q-0.30084-1.0697-0.30084-2.5237 0-1.4541 0.30084-2.5153 0.30084-1.0697 0.83566-1.7633 0.53482-0.70196 1.2535-1.0446 0.72703-0.34262 1.5794-0.34262t1.5794 0.34262q0.73538 0.34262 1.2702 1.0446 0.54318 0.6936 0.84402 1.7633 0.3092 1.0613 0.3092 2.5153zm-2.0808 0q0-1.1866-0.16713-1.9555-0.15878-0.77717-0.42619-1.2284-0.26741-0.45962-0.61839-0.6351-0.34262-0.18385-0.71032-0.18385t-0.71032 0.18385q-0.33426 0.17549-0.60168 0.6351-0.25906 0.45126-0.41783 1.2284-0.15878 0.76881-0.15878 1.9555 0 1.195 0.15878 1.9722 0.15878 0.76881 0.41783 1.2284 0.26741 0.45126 0.60168 0.6351 0.34262 0.17549 0.71032 0.17549t0.71032-0.17549q0.35098-0.18385 0.61839-0.6351 0.26741-0.45962 0.42619-1.2284 0.16713-0.77717 0.16713-1.9722z"/><path id="path11918" d="m28.925 8.5649q-0.08357 0.14206-0.18385 0.20056-0.09192 0.05014-0.23399 0.05014-0.15042 0-0.31755-0.07521-0.15878-0.083566-0.35934-0.17549-0.1922-0.10028-0.4429-0.17549-0.2507-0.083566-0.57661-0.083566-0.5014 0-0.77717 0.23399-0.27577 0.22563-0.27577 0.61004 0 0.25906 0.15878 0.43455 0.15878 0.16713 0.41783 0.30084 0.26741 0.12535 0.59332 0.23399 0.33427 0.10864 0.68524 0.23399 0.35098 0.12535 0.67689 0.30084 0.33427 0.16713 0.59332 0.41783 0.26741 0.2507 0.42619 0.61004t0.15878 0.86073q0 0.60168-0.20892 1.1114t-0.61839 0.87745q-0.40112 0.36769-1.0028 0.57661-0.59332 0.20892-1.3788 0.20892-0.40112 0-0.79388-0.07521t-0.7521-0.20892q-0.35934-0.14206-0.67689-0.32591-0.3092-0.18385-0.53482-0.40112l0.49304-0.80224q0.09192-0.14206 0.21727-0.22563 0.12535-0.08357 0.32591-0.08357 0.18385 0 0.34262 0.10028 0.16713 0.10028 0.35934 0.22563 0.1922 0.11699 0.45962 0.21727 0.26741 0.10028 0.66853 0.10028 0.30084 0 0.50976-0.07521 0.21727-0.07521 0.34262-0.20056 0.13371-0.13371 0.1922-0.30084 0.06685-0.16713 0.06685-0.34262 0-0.36769-0.27577-0.56825-0.27577-0.20892-0.6936-0.35934-0.41783-0.15042-0.90252-0.3092-0.47633-0.15878-0.89416-0.43455-0.41783-0.27577-0.6936-0.72703-0.27577-0.45126-0.27577-1.195 0-0.51811 0.1922-0.97773 0.1922-0.46797 0.56825-0.81895 0.3844-0.35098 0.9443-0.5599 0.56825-0.20892 1.3203-0.20892 0.40948 0 0.79388 0.07521 0.38441 0.07521 0.71867 0.21727 0.34262 0.13371 0.61839 0.32591 0.28413 0.1922 0.5014 0.41783z"/></g>
<line id="line8287" x1="25.712" x2="6.7701" y1="22.685" y2="22.685" fill="none" stroke="#00a14b" stroke-miterlimit="10" stroke-width="1.5"/><polygon id="polygon8289" transform="translate(-.22991)" points="28.467 22.68 25.47 24.417 25.463 20.953" fill="#00a14b" stroke="#00a14b" stroke-miterlimit="10" stroke-width="1.5"/><polygon id="polygon8291" transform="translate(-.22991)" points="7 20.953 6.988 24.417 3.993 22.676" fill="#00a14b" stroke="#00a14b" stroke-miterlimit="10" stroke-width="1.5"/><line id="line8287-2" x1="2.1686" x2="2.1686" y1="26.413" y2="18.957" fill="none" stroke="#00a14b" stroke-miterlimit="10" stroke-width="1.5"/><line id="line8287-2-1" x1="29.831" x2="29.831" y1="26.413" y2="18.957" fill="none" stroke="#00a14b" stroke-miterlimit="10" stroke-width="1.5"/></svg>
