<?xml version="1.0" encoding="UTF-8" standalone="no"?>
<svg
   xmlns:dc="http://purl.org/dc/elements/1.1/"
   xmlns:cc="http://creativecommons.org/ns#"
   xmlns:rdf="http://www.w3.org/1999/02/22-rdf-syntax-ns#"
   xmlns:svg="http://www.w3.org/2000/svg"
   xmlns="http://www.w3.org/2000/svg"
   xmlns:sodipodi="http://sodipodi.sourceforge.net/DTD/sodipodi-0.dtd"
   xmlns:inkscape="http://www.inkscape.org/namespaces/inkscape"
   version="1.1"
   viewBox="0 0 32 32"
   xml:space="preserve"
   id="svg33"
   sodipodi:docname="item-state.svg"
   inkscape:version="0.92.4 (5da689c313, 2019-01-14)"><metadata
     id="metadata39"><rdf:RDF><cc:Work
         rdf:about=""><dc:format>image/svg+xml</dc:format><dc:type
           rdf:resource="http://purl.org/dc/dcmitype/StillImage" /></cc:Work></rdf:RDF></metadata><defs
     id="defs37" /><sodipodi:namedview
     pagecolor="#ffffff"
     bordercolor="#666666"
     borderopacity="1"
     objecttolerance="10"
     gridtolerance="10"
     guidetolerance="10"
     inkscape:pageopacity="0"
     inkscape:pageshadow="2"
     inkscape:window-width="1389"
     inkscape:window-height="873"
     id="namedview35"
     showgrid="false"
     inkscape:zoom="10.429825"
     inkscape:cx="9.1403245"
     inkscape:cy="6.6824358"
     inkscape:window-x="825"
     inkscape:window-y="199"
     inkscape:window-maximized="0"
     inkscape:current-layer="svg33" /><linearGradient
     id="a"
     x1="7"
     x2="26.5"
     y1="16.334"
     y2="16.334"
     gradientUnits="userSpaceOnUse"><stop
       stop-color="#fff"
       offset="0"
       id="stop2" /><stop
       stop-color="#fdfdfd"
       stop-opacity=".9623"
       offset=".3769"
       id="stop4" /><stop
       stop-color="#f6f6f6"
       stop-opacity=".9487"
       offset=".5127"
       id="stop6" /><stop
       stop-color="#ebebeb"
       stop-opacity=".9391"
       offset=".6094"
       id="stop8" /><stop
       stop-color="#dadada"
       stop-opacity=".9312"
       offset=".6877"
       id="stop10" /><stop
       stop-color="#c4c4c4"
       stop-opacity=".9245"
       offset=".7548"
       id="stop12" /><stop
       stop-color="#a8a8a8"
       stop-opacity=".9186"
       offset=".8142"
       id="stop14" /><stop
       stop-color="#888"
       stop-opacity=".9132"
       offset=".8679"
       id="stop16" /><stop
       stop-color="#626262"
       stop-opacity=".9083"
       offset=".9172"
       id="stop18" /><stop
       stop-color="#393939"
       stop-opacity=".9039"
       offset=".9612"
       id="stop20" /><stop
       stop-color="#0e0e0e"
       stop-opacity=".9"
       offset="1"
       id="stop22" /></linearGradient><line
     x1="14.325738"
     x2="4.9863496"
     y1="9.6920538"
     y2="9.6920538"
     stroke-miterlimit="10"
     id="line27"
     style="fill:none;stroke:#000000;stroke-width:1.96811032;stroke-miterlimit:10;stroke-opacity:1" /><polyline
     points="7.3 7.418 14.349 14.71 7.3 25.159"
     stroke-miterlimit="10"
     id="polyline29"
     style="fill:none;stroke:#000000;stroke-width:2.79999995;stroke-miterlimit:10;stroke-opacity:1"
     transform="matrix(0.70289655,0,0,0.70289655,0.71273876,4.7127352)" /><line
     x1="5.0608563"
     x2="14.400243"
     y1="22.694937"
     y2="22.694937"
     stroke-miterlimit="10"
     id="line31"
     style="fill:none;stroke:#121212;stroke-width:1.96811032;stroke-miterlimit:10;stroke-opacity:1" /><path
     style="fill:none;stroke:#00a14b;stroke-width:1.32816803;stroke-miterlimit:10"
     inkscape:connector-curvature="0"
     id="path2"
     stroke-miterlimit="10"
     d="M -18.713899,23.783902" /><path
     style="stroke-width:0.88544536"
     inkscape:connector-curvature="0"
     id="path8"
     d="m 18.517736,11.105184 c -0.627,1.150147 -1.111,2.825584 -1.111,5.062375 0,2.200726 0.496,3.863619 1.111,5.025527 h -1.166 c -0.594,-0.961985 -1.254,-2.624878 -1.254,-5.038072 0.011,-2.424953 0.66,-4.075301 1.254,-5.04983 z" /><path
     style="stroke-width:0.88544536"
     inkscape:connector-curvature="0"
     id="path10"
     d="m 20.883736,13.630492 0.527,1.012945 c 0.154,0.312821 0.297,0.624859 0.439,0.912592 h 0.023 c 0.143,-0.324582 0.275,-0.637404 0.418,-0.936896 l 0.473,-0.987857 h 1.814 l -1.77,2.91261 1.793,3.200343 h -1.893 l -0.539,-1.099187 c -0.154,-0.300278 -0.287,-0.612316 -0.418,-0.925137 h -0.033 c -0.133,0.324582 -0.275,0.624859 -0.408,0.925137 l -0.506,1.099187 h -1.836 l 1.826,-3.112534 -1.783,-3.00042 h 1.873 z" /><path
     style="stroke-width:0.88544536"
     inkscape:connector-curvature="0"
     id="path12"
     d="m 25.072736,21.19387 c 0.605,-1.150149 1.111,-2.837345 1.111,-5.049832 0,-2.212486 -0.494,-3.875379 -1.111,-5.03807 h 1.166 c 0.584,0.962769 1.256,2.599788 1.256,5.03807 -0.012,2.437499 -0.672,4.075303 -1.256,5.049832 z" /></svg>