<?xml version="1.0" encoding="UTF-8"?>
<svg id="svg33" version="1.1" viewBox="0 0 32 32" xml:space="preserve" xmlns="http://www.w3.org/2000/svg" xmlns:cc="http://creativecommons.org/ns#" xmlns:dc="http://purl.org/dc/elements/1.1/" xmlns:rdf="http://www.w3.org/1999/02/22-rdf-syntax-ns#"><metadata id="metadata39"><rdf:RDF><cc:Work rdf:about=""><dc:format>image/svg+xml</dc:format><dc:type rdf:resource="http://purl.org/dc/dcmitype/StillImage"/></cc:Work></rdf:RDF></metadata><line id="line27" x1="14.326" x2="4.9863" y1="9.6921" y2="9.6921" fill="none" stroke="#000" stroke-miterlimit="10" stroke-width="1.9681"/><polyline id="polyline29" transform="matrix(.7029 0 0 .7029 .71274 4.7127)" points="7.3 7.418 14.349 14.71 7.3 25.159" fill="none" stroke="#000" stroke-miterlimit="10" stroke-width="2.8"/><line id="line31" x1="5.0609" x2="14.4" y1="22.695" y2="22.695" fill="none" stroke="#121212" stroke-miterlimit="10" stroke-width="1.9681"/><path id="path2" d="m-18.714 23.784" fill="none" stroke="#00a14b" stroke-miterlimit="10" stroke-width="1.3282"/><path id="path8" d="m18.518 11.105c-0.627 1.1501-1.111 2.8256-1.111 5.0624 0 2.2007 0.496 3.8636 1.111 5.0255h-1.166c-0.594-0.96198-1.254-2.6249-1.254-5.0381 0.011-2.425 0.66-4.0753 1.254-5.0498z" stroke-width=".88545"/><path id="path10" d="m20.884 13.63 0.527 1.0129c0.154 0.31282 0.297 0.62486 0.439 0.91259h0.023c0.143-0.32458 0.275-0.6374 0.418-0.9369l0.473-0.98786h1.814l-1.77 2.9126 1.793 3.2003h-1.893l-0.539-1.0992c-0.154-0.30028-0.287-0.61232-0.418-0.92514h-0.033c-0.133 0.32458-0.275 0.62486-0.408 0.92514l-0.506 1.0992h-1.836l1.826-3.1125-1.783-3.0004h1.873z" stroke-width=".88545"/><path id="path12" d="m25.073 21.194c0.605-1.1501 1.111-2.8373 1.111-5.0498s-0.494-3.8754-1.111-5.0381h1.166c0.584 0.96277 1.256 2.5998 1.256 5.0381-0.012 2.4375-0.672 4.0753-1.256 5.0498z" stroke-width=".88545"/></svg>
