<?xml version="1.0" encoding="UTF-8"?>
<svg id="svg14" enable-background="new 0 0 32 32" version="1.1" viewBox="0 0 32 32" xml:space="preserve" xmlns="http://www.w3.org/2000/svg" xmlns:cc="http://creativecommons.org/ns#" xmlns:dc="http://purl.org/dc/elements/1.1/" xmlns:rdf="http://www.w3.org/1999/02/22-rdf-syntax-ns#"><metadata id="metadata20"><rdf:RDF><cc:Work rdf:about=""><dc:format>image/svg+xml</dc:format><dc:type rdf:resource="http://purl.org/dc/dcmitype/StillImage"/></cc:Work></rdf:RDF></metadata>
	
	
	
	
	
	<g id="g4535" transform="translate(-1.6357 2.0692)"><path id="path2" d="m9.085 21.631" fill="none" stroke="#00a14b" stroke-miterlimit="10" stroke-width="1.3282"/><path id="path4" d="m9.1635 20.98v-8.08h-1.189v-1.8816h1.188v-0.42964c0-1.2889 0.306-2.5778 1.063-3.3963 0.648-0.69542 1.53-0.9612 2.287-0.9612 0.594 0 1.062 0.10192 1.422 0.2454l-0.162 1.9436c-0.234-0.10192-0.54-0.18424-0.937-0.18424-1.098 0-1.476 1.0435-1.476 2.2705v0.51118h1.926v1.8816h-1.907v8.08h-2.215z" stroke-width=".88545"/><path id="path8" d="m18.32 10.774c-0.627 1.1501-1.111 2.8256-1.111 5.0624 0 2.2007 0.496 3.8636 1.111 5.0255h-1.166c-0.594-0.96198-1.254-2.6249-1.254-5.0381 0.011-2.425 0.66-4.0753 1.254-5.0498z" stroke-width=".88545"/><path id="path10" d="m20.686 13.299 0.527 1.0129c0.154 0.31282 0.297 0.62486 0.439 0.91259h0.023c0.143-0.32458 0.275-0.6374 0.418-0.9369l0.473-0.98786h1.814l-1.77 2.9126 1.793 3.2003h-1.893l-0.539-1.0992c-0.154-0.30028-0.287-0.61232-0.418-0.92514h-0.033c-0.133 0.32458-0.275 0.62486-0.408 0.92514l-0.506 1.0992h-1.836l1.826-3.1125-1.783-3.0004h1.873z" stroke-width=".88545"/><path id="path12" d="m24.875 20.862c0.605-1.1501 1.111-2.8373 1.111-5.0498s-0.494-3.8754-1.111-5.0381h1.166c0.584 0.96277 1.256 2.5998 1.256 5.0381-0.012 2.4375-0.672 4.0753-1.256 5.0498z" stroke-width=".88545"/></g>
</svg>
