<?xml version="1.0" encoding="UTF-8" standalone="no"?>
<svg
   xmlns:dc="http://purl.org/dc/elements/1.1/"
   xmlns:cc="http://creativecommons.org/ns#"
   xmlns:rdf="http://www.w3.org/1999/02/22-rdf-syntax-ns#"
   xmlns:svg="http://www.w3.org/2000/svg"
   xmlns="http://www.w3.org/2000/svg"
   xmlns:sodipodi="http://sodipodi.sourceforge.net/DTD/sodipodi-0.dtd"
   xmlns:inkscape="http://www.inkscape.org/namespaces/inkscape"
   enable-background="new 0 0 32 32"
   version="1.1"
   viewBox="0 0 32 32"
   xml:space="preserve"
   id="svg14"
   sodipodi:docname="item-func.svg"
   inkscape:version="0.92.4 (5da689c313, 2019-01-14)"
   inkscape:export-filename="N:\workspace\bliss.git\bliss\flint\resources\icons\item-func.png"
   inkscape:export-xdpi="300"
   inkscape:export-ydpi="300"><metadata
   id="metadata20"><rdf:RDF><cc:Work
       rdf:about=""><dc:format>image/svg+xml</dc:format><dc:type
         rdf:resource="http://purl.org/dc/dcmitype/StillImage" /></cc:Work></rdf:RDF></metadata><defs
   id="defs18" /><sodipodi:namedview
   pagecolor="#ffffff"
   bordercolor="#666666"
   borderopacity="1"
   objecttolerance="10"
   gridtolerance="10"
   guidetolerance="10"
   inkscape:pageopacity="0"
   inkscape:pageshadow="2"
   inkscape:window-width="1477"
   inkscape:window-height="905"
   id="namedview16"
   showgrid="false"
   inkscape:zoom="14.75"
   inkscape:cx="19.261719"
   inkscape:cy="16.604194"
   inkscape:window-x="854"
   inkscape:window-y="290"
   inkscape:window-maximized="0"
   inkscape:current-layer="svg14" />
	
	
	
	
	
	<g
   id="g4535"
   transform="translate(-1.6357373,2.0692035)"><path
     style="fill:none;stroke:#00a14b;stroke-width:1.32816803;stroke-miterlimit:10"
     inkscape:connector-curvature="0"
     id="path2"
     stroke-miterlimit="10"
     d="M 9.085,21.630593" /><path
     style="stroke-width:0.88544536"
     inkscape:connector-curvature="0"
     id="path4"
     d="m 9.1634746,20.979862 v -8.080043 h -1.189 v -1.881633 h 1.188 v -0.429639 c 0,-1.2889182 0.306,-2.5778364 1.0630004,-3.3963465 0.648,-0.6954199 1.53,-0.9612005 2.287,-0.9612005 0.594,0 1.062,0.1019218 1.422,0.2453962 l -0.162,1.9435695 c -0.234,-0.1019218 -0.54,-0.1842432 -0.937,-0.1842432 -1.098,0 -1.476,1.043522 -1.476,2.2705035 v 0.511176 h 1.926 v 1.881633 h -1.907 v 8.080043 H 9.1634746 Z" /><path
     style="stroke-width:0.88544536"
     inkscape:connector-curvature="0"
     id="path8"
     d="m 18.32,10.773574 c -0.627,1.150148 -1.111,2.825585 -1.111,5.062375 0,2.200726 0.496,3.863619 1.111,5.025527 H 17.154 C 16.56,19.899491 15.9,18.236599 15.9,15.823405 c 0.011,-2.424954 0.66,-4.075302 1.254,-5.049831 z" /><path
     style="stroke-width:0.88544536"
     inkscape:connector-curvature="0"
     id="path10"
     d="m 20.686,13.298882 0.527,1.012945 c 0.154,0.312821 0.297,0.624859 0.439,0.912592 h 0.023 c 0.143,-0.324582 0.275,-0.637403 0.418,-0.936896 l 0.473,-0.987857 h 1.814 l -1.77,2.91261 1.793,3.200343 H 22.51 L 21.971,18.313432 C 21.817,18.013155 21.684,17.701117 21.553,17.388296 H 21.52 c -0.133,0.324582 -0.275,0.624859 -0.408,0.925136 l -0.506,1.099187 H 18.77 l 1.826,-3.112534 -1.783,-3.000419 h 1.873 z" /><path
     style="stroke-width:0.88544536"
     inkscape:connector-curvature="0"
     id="path12"
     d="m 24.875,20.86226 c 0.605,-1.150148 1.111,-2.837345 1.111,-5.049831 0,-2.212486 -0.494,-3.875379 -1.111,-5.038071 h 1.166 c 0.584,0.962769 1.256,2.599789 1.256,5.038071 -0.012,2.437498 -0.672,4.075302 -1.256,5.049831 z" /></g>
</svg>