<?xml version="1.0" encoding="UTF-8"?>
<svg enable-background="new 0 0 32 32" version="1.1" viewBox="0 0 32 32" xml:space="preserve" xmlns="http://www.w3.org/2000/svg" xmlns:cc="http://creativecommons.org/ns#" xmlns:dc="http://purl.org/dc/elements/1.1/" xmlns:rdf="http://www.w3.org/1999/02/22-rdf-syntax-ns#"><metadata><rdf:RDF><cc:Work rdf:about=""><dc:format>image/svg+xml</dc:format><dc:type rdf:resource="http://purl.org/dc/dcmitype/StillImage"/><dc:title/></cc:Work></rdf:RDF></metadata><path d="m17.161 36.095" fill="none" stroke="#00a14b" stroke-miterlimit="10" stroke-width=".6851"/><g transform="matrix(1.1761 0 0 1.1761 -85.375 -31.923)"><g transform="translate(.21838 .12559)" fill="#00a14b"><path d="m81.1 32.987q0 1.6718-0.7787 2.4556-0.77252 0.77962-2.4041 0.77962-1.6563 0-2.4226-0.79213-0.76016-0.79213-0.76016-2.4347 0-1.6551 0.77252-2.4431 0.77252-0.79213 2.4103-0.79213 1.6563 0 2.4164 0.80464 0.76634 0.80046 0.76634 2.4222zm-1.6254 1.8928q0.21631-0.3377 0.29047-0.79213 0.08034-0.4586 0.08034-1.1006 0-0.6337-0.08034-1.1006-0.07416-0.46694-0.29665-0.79213-0.21631-0.32102-0.5933-0.48362-0.37081-0.16259-0.95792-0.16259-0.58093 0-0.9641 0.16259-0.37699 0.1626-0.59948 0.49195-0.21012 0.30851-0.29047 0.80464-0.07416 0.49612-0.07416 1.0881 0 0.65038 0.06799 1.0881 0.06798 0.43775 0.29047 0.78379 0.20394 0.32519 0.57475 0.49612 0.37699 0.17093 0.995 0.17093 0.58093 0 0.9641-0.1626 0.38317-0.16259 0.59329-0.49195z"/><path d="m88.646 36.093h-4.9812v-0.6337h1.9158v-4.1608h-1.9158v-0.567q0.38935 0 0.83432-0.04168 0.44497-0.04587 0.67364-0.12924 0.28429-0.10424 0.44497-0.26265 0.16686-0.16259 0.19158-0.43358h0.95792v5.5949h1.8788z"/><path d="m97.218 32.987q0 1.6718-0.7787 2.4556-0.77252 0.77962-2.4041 0.77962-1.6563 0-2.4226-0.79213-0.76016-0.79213-0.76016-2.4347 0-1.6551 0.77252-2.4431 0.77252-0.79213 2.4103-0.79213 1.6563 0 2.4164 0.80464 0.76634 0.80046 0.76634 2.4222zm-1.6254 1.8928q0.2163-0.3377 0.29047-0.79213 0.08034-0.4586 0.08034-1.1006 0-0.6337-0.08034-1.1006-0.07416-0.46694-0.29665-0.79213-0.2163-0.32102-0.59329-0.48362-0.37081-0.16259-0.95792-0.16259-0.58093 0-0.9641 0.16259-0.37699 0.1626-0.59947 0.49195-0.21012 0.30851-0.29047 0.80464-0.07416 0.49612-0.07416 1.0881 0 0.65038 0.06798 1.0881 0.06799 0.43775 0.29047 0.78379 0.20395 0.32519 0.57475 0.49612 0.37699 0.17093 0.995 0.17093 0.58093 0 0.9641-0.1626 0.38317-0.16259 0.59329-0.49195z"/><path d="m80.587 43.644h-4.9812v-0.6337h1.9158v-4.1607h-1.9158v-0.567q0.38935 0 0.83432-0.04168 0.44497-0.04586 0.67364-0.12924 0.28429-0.10424 0.44497-0.26265 0.16686-0.16259 0.19158-0.43358h0.95792v5.5949h1.8788z"/><path d="m88.646 43.644h-4.9812v-0.6337h1.9158v-4.1607h-1.9158v-0.567q0.38935 0 0.83432-0.04168 0.44497-0.04586 0.67364-0.12924 0.28429-0.10424 0.44497-0.26265 0.16686-0.16259 0.19158-0.43358h0.95792v5.5949h1.8788z"/><path d="m97.218 40.538q0 1.6718-0.7787 2.4556-0.77252 0.77962-2.4041 0.77962-1.6563 0-2.4226-0.79213-0.76016-0.79213-0.76016-2.4347 0-1.6551 0.77252-2.4431 0.77252-0.79213 2.4103-0.79213 1.6563 0 2.4164 0.80463 0.76634 0.80046 0.76634 2.4222zm-1.6254 1.8928q0.2163-0.3377 0.29047-0.79212 0.08034-0.4586 0.08034-1.1006 0-0.6337-0.08034-1.1006-0.07416-0.46694-0.29665-0.79213-0.2163-0.32102-0.59329-0.48361-0.37081-0.1626-0.95792-0.1626-0.58093 0-0.9641 0.1626-0.37699 0.16259-0.59947 0.49195-0.21012 0.30851-0.29047 0.80464-0.07416 0.49612-0.07416 1.0881 0 0.65038 0.06798 1.0881 0.06799 0.43775 0.29047 0.78379 0.20395 0.32519 0.57475 0.49612 0.37699 0.17093 0.995 0.17093 0.58093 0 0.9641-0.16259 0.38317-0.1626 0.59329-0.49195z"/><path d="m81.1 48.247q0 1.6718-0.7787 2.4556-0.77252 0.77962-2.4041 0.77962-1.6563 0-2.4226-0.79213-0.76016-0.79213-0.76016-2.4347 0-1.6551 0.77252-2.4431 0.77252-0.79213 2.4103-0.79213 1.6563 0 2.4164 0.80464 0.76634 0.80046 0.76634 2.4222zm-1.6254 1.8928q0.21631-0.3377 0.29047-0.79213 0.08034-0.4586 0.08034-1.1006 0-0.6337-0.08034-1.1006-0.07416-0.46694-0.29665-0.79213-0.21631-0.32102-0.5933-0.48361-0.37081-0.1626-0.95792-0.1626-0.58093 0-0.9641 0.1626-0.37699 0.16259-0.59948 0.49195-0.21012 0.30851-0.29047 0.80464-0.07416 0.49612-0.07416 1.0881 0 0.65038 0.06799 1.0881 0.06798 0.43775 0.29047 0.78379 0.20394 0.32519 0.57475 0.49612 0.37699 0.17093 0.995 0.17093 0.58093 0 0.9641-0.16259t0.59329-0.49195z"/><path d="m88.646 51.353h-4.9812v-0.6337h1.9158v-4.1608h-1.9158v-0.567q0.38935 0 0.83432-0.04168 0.44497-0.04586 0.67364-0.12924 0.28429-0.10424 0.44497-0.26265 0.16686-0.16259 0.19158-0.43358h0.95792v5.5949h1.8788z"/><path d="m96.705 51.353h-4.9812v-0.6337h1.9158v-4.1608h-1.9158v-0.567q0.38935 0 0.83432-0.04168 0.44497-0.04586 0.67364-0.12924 0.28429-0.10424 0.44497-0.26265 0.16686-0.16259 0.19158-0.43358h0.95792v5.5949h1.8788z"/></g></g></svg>
