<?xml version="1.0" encoding="UTF-8"?>
<svg id="svg12" enable-background="new 0 0 32 32" version="1.1" viewBox="0 0 32 32" xml:space="preserve" xmlns="http://www.w3.org/2000/svg" xmlns:cc="http://creativecommons.org/ns#" xmlns:dc="http://purl.org/dc/elements/1.1/" xmlns:rdf="http://www.w3.org/1999/02/22-rdf-syntax-ns#"><metadata id="metadata2"><rdf:RDF><cc:Work rdf:about=""><dc:format>image/svg+xml</dc:format><dc:type rdf:resource="http://purl.org/dc/dcmitype/StillImage"/><dc:title/></cc:Work></rdf:RDF></metadata><g id="g1081" fill="#fff" stroke="#00a14b"><rect id="rect828" x="11.548" y="4.2069" width="16.683" height="23.586" rx="3.5714" ry="4.0529" fill="none" stroke-linecap="square" stroke-width="2.1092"/><path id="path844" d="m15.67 11.865h8.4373" stroke-linecap="round" stroke-width="2.109"/><path id="path844-7" d="m15.67 16.685h8.4373" stroke-linecap="round" stroke-width="2.109"/><path id="path844-5" d="m15.67 21.506h8.4373" stroke-linecap="round" stroke-width="2.109"/></g><g id="g1075"><circle id="path982" cx="10.526" cy="13.605" r="7.8112" fill="#fff" style="font-variant-east_asian:normal"/><rect id="rect1039" transform="rotate(34.357)" x="11.465" y="-2.3914" width="3.4915" height="3.3898" rx=".23729" ry=".22412" fill="#fff" style="font-variant-east_asian:normal"/><circle id="circle4-3" cx="10.526" cy="13.605" r="5.7876" fill="none" stroke="#000" stroke-linecap="round" stroke-width="1.5"/><path id="path931" d="m7.8193 11.259 2.7963 2.4625 2.0412-1.372" fill="none" stroke="#000" stroke-linecap="round" stroke-linejoin="round" stroke-width="1.1533"/><rect id="rect984" x="9.6446" y="5.8947" width="1.7627" height="1.8983" rx=".23729" ry=".27119"/><g id="g1023" transform="translate(.47513 3.7001)"><rect id="rect984-0" transform="rotate(39.996)" x="13.318" y="-6.7559" width="1.7627" height="1.8983" rx=".23729" ry=".27119"/><rect id="rect984-0-9" transform="matrix(-.76609 .64274 .64274 .76609 0 0)" x="-2.0817" y="6.1642" width="1.7627" height="1.8983" rx=".23729" ry=".27119"/></g></g></svg>
