<?xml version="1.0" encoding="UTF-8"?>
<svg id="svg12" enable-background="new 0 0 32 32" version="1.1" viewBox="0 0 32 32" xml:space="preserve" xmlns="http://www.w3.org/2000/svg" xmlns:cc="http://creativecommons.org/ns#" xmlns:dc="http://purl.org/dc/elements/1.1/" xmlns:rdf="http://www.w3.org/1999/02/22-rdf-syntax-ns#"><metadata id="metadata2"><rdf:RDF><cc:Work rdf:about=""><dc:format>image/svg+xml</dc:format><dc:type rdf:resource="http://purl.org/dc/dcmitype/StillImage"/><dc:title/></cc:Work></rdf:RDF></metadata><path id="path16-3" d="m30.24 26.443c-0.2099-0.02224-13.302-0.01495-14.181-0.24464-1.4684-0.38394-1.4525-0.21784-2.0548-1.3356-1.084-2.0116 0.06041-19.343-4.7282-19.387-4.7886-0.044-3.6546 18.21-5.6019 19.861-1.9473 1.6509-1.9292 1.1062-1.9292 1.1062" fill="none" stroke="#00a14b" stroke-linecap="round" stroke-width="2.109"/><path id="path16-3-5-5" d="m28.024 23.52c-1.084-2.0116-0.05811-18-4.8468-18.044-0.84925-0.00778-1.5122 0.55994-2.0391 1.5085" fill="none" stroke="#758c80" stroke-linecap="round" stroke-width="2.109"/><path id="path16-3-5-5-1" d="m21.111 23.52c-1.084-2.0116-0.05811-18-4.8468-18.044-0.84925-0.00778-1.5122 0.55994-2.0391 1.5085" fill="none" stroke="#758c80" stroke-linecap="round" stroke-width="2.109"/></svg>
