<?xml version="1.0" encoding="UTF-8"?>
<svg id="svg20" version="1.1" viewBox="0 0 32 32" xml:space="preserve" xmlns="http://www.w3.org/2000/svg" xmlns:cc="http://creativecommons.org/ns#" xmlns:dc="http://purl.org/dc/elements/1.1/" xmlns:rdf="http://www.w3.org/1999/02/22-rdf-syntax-ns#"><metadata id="metadata26"><rdf:RDF><cc:Work rdf:about=""><dc:format>image/svg+xml</dc:format><dc:type rdf:resource="http://purl.org/dc/dcmitype/StillImage"/></cc:Work></rdf:RDF></metadata><path id="path869" d="m5.6949 6.5085 10.983 0.94915" fill="none" stroke="#000" stroke-width="1px"/><path id="path871" d="m16.678 7.4576 9.0847-1.0847" fill="none" stroke="#000" stroke-width="1px"/><path id="path873" d="m5.9661 13.695 9.2203 1.7627" fill="none" stroke="#000" stroke-width="1px"/><path id="path875" d="m24.949 15.729-9.7627-0.27119" fill="none" stroke="#000" stroke-width="1px"/><path id="path877" d="m6.2373 23.051 9.7627-0.94915" fill="none" stroke="#000" stroke-width="1px"/><path id="path879" d="m24.542 25.085-8.5424-2.9831" fill="none" stroke="#000" stroke-width="1px"/><path id="path881" d="m5.6949 6.5085 0.27119 7.1864" fill="none" stroke="#000" stroke-width="1px"/><path id="path883" d="m6.2373 23.051-0.27119-9.3559" fill="none" stroke="#000" stroke-width="1px"/><path id="path885" d="m16.678 7.4576-1.4915 8" fill="none" stroke="#000" stroke-width="1px"/><path id="path887" d="m16 22.102-0.81356-6.6441" fill="none" stroke="#000" stroke-width="1px"/><path id="path889" d="m25.763 6.3729-0.81356 9.3559" fill="none" stroke="#000" stroke-width="1px"/><path id="path891" d="m24.542 25.085 0.40678-9.3559" fill="none" stroke="#000" stroke-width="1px"/><circle id="path1925" cx="6.4407" cy="23.39" r="2.2373" fill="#00a651" stroke="#fff" stroke-width=".58929"/><circle id="path1925-3" cx="16.136" cy="22.373" r="2.2373" fill="#00a651" stroke="#fff" stroke-width=".58929"/><circle id="path1925-6" cx="24.136" cy="25.085" r="2.2373" fill="#00a651" stroke="#fff" stroke-width=".58929"/><circle id="path1925-7" cx="5.9661" cy="13.559" r="2.2373" fill="#00a651" stroke="#fff" stroke-width=".58929"/><circle id="path1925-5" cx="15.186" cy="15.186" r="2.2373" fill="#00a651" stroke="#fff" stroke-width=".58929"/><circle id="path1925-35" cx="25.085" cy="15.729" r="2.2373" fill="#00a651" stroke="#fff" stroke-width=".58929"/><circle id="path1925-62" cx="5.8305" cy="6.6441" r="2.2373" fill="#00a651" stroke="#fff" stroke-width=".58929"/><circle id="path1925-9" cx="16.678" cy="7.5932" r="2.2373" fill="#00a651" stroke="#fff" stroke-width=".58929"/><circle id="path1925-1" cx="25.763" cy="6.3729" r="2.2373" fill="#00a651" stroke="#fff" stroke-width=".58929"/></svg>
