<?xml version="1.0" encoding="UTF-8"?>
<!-- Created with Inkscape (http://www.inkscape.org/) -->
<svg id="svg2" width="32" height="32" version="1.1" xmlns="http://www.w3.org/2000/svg" xmlns:cc="http://creativecommons.org/ns#" xmlns:dc="http://purl.org/dc/elements/1.1/" xmlns:rdf="http://www.w3.org/1999/02/22-rdf-syntax-ns#">
 <metadata id="metadata4">
  <rdf:RDF>
   <cc:Work rdf:about="">
    <dc:format>image/svg+xml</dc:format>
    <dc:type rdf:resource="http://purl.org/dc/dcmitype/StillImage"/>
    <dc:title/>
   </cc:Work>
  </rdf:RDF>
 </metadata>
 <g id="text817" stroke-width=".18743" aria-label="Lima">
  <rect id="rect828" x=".89908" y=".89908" width="30.202" height="30.202" fill="#f0e68c"/>
  <g id="text824" transform="scale(.81466 1.2275)" stroke-width=".060088" aria-label="Spec">
   <path id="path830" d="m9.9286 7.4055v1.9786q-0.77016-0.34438-1.5028-0.5197-0.73259-0.17532-1.3838-0.17532-0.86408 0-1.2773 0.23794-0.41326 0.23794-0.41326 0.73885 0 0.37569 0.2755 0.58858 0.28177 0.20663 1.0144 0.3569l1.0269 0.20663q1.5591 0.31307 2.2166 0.95174 0.65745 0.63867 0.65745 1.8158 0 1.5466-0.92044 2.3042-0.91417 0.75138-2.7989 0.75138-0.88913 0-1.7845-0.16906-0.89539-0.16906-1.7908-0.50092v-2.035q0.89539 0.47587 1.7282 0.72007 0.83904 0.23794 1.6155 0.23794 0.78894 0 1.2085-0.26298t0.41952-0.75138q0-0.4383-0.28803-0.67624-0.28177-0.23794-1.1333-0.42578l-0.93296-0.20663q-1.4026-0.30055-2.0538-0.958-0.64493-0.65745-0.64493-1.772 0-1.3963 0.90165-2.1477t2.5922-0.75138q0.77016 0 1.5842 0.11897 0.81399 0.11271 1.6843 0.34438z"/>
   <path id="path832" d="m14.806 15.445v3.6817h-2.2416v-9.6802h2.2416v1.0269q0.46335-0.61362 1.0269-0.90165 0.56353-0.29429 1.2961-0.29429 1.2961 0 2.1289 1.0331 0.83278 1.0269 0.83278 2.6486t-0.83278 2.6549q-0.83278 1.0269-2.1289 1.0269-0.73259 0-1.2961-0.28803-0.56353-0.29429-1.0269-0.90791zm1.4902-4.5396q-0.72007 0-1.1083 0.53222-0.38195 0.52596-0.38195 1.5215 0 0.99557 0.38195 1.5278 0.38821 0.52596 1.1083 0.52596t1.0958-0.52596q0.38195-0.52596 0.38195-1.5278t-0.38195-1.5278q-0.37569-0.52596-1.0958-0.52596z"/>
   <path id="path834" d="m28.757 12.934v0.63867h-5.2408q0.0814 0.78894 0.56979 1.1834 0.4884 0.39447 1.365 0.39447 0.70755 0 1.4464-0.20663 0.74512-0.21289 1.5278-0.63867v1.7282q-0.79521 0.30055-1.5904 0.45082-0.79521 0.15654-1.5904 0.15654-1.9035 0-2.9617-0.96427-1.0519-0.97053-1.0519-2.7175 0-1.7156 1.0331-2.6987 1.0394-0.98305 2.8552-0.98305 1.653 0 2.6423 0.99557 0.99557 0.99557 0.99557 2.6611zm-2.3042-0.74511q0-0.63867-0.37569-1.0269-0.36943-0.39447-0.97053-0.39447-0.65119 0-1.0582 0.36943-0.407 0.36316-0.50718 1.0519z"/>
   <path id="path836" d="m36.114 9.6659v1.8283q-0.45709-0.31307-0.92044-0.46335-0.45709-0.15028-0.95174-0.15028-0.93922 0-1.4652 0.55101-0.5197 0.54475-0.5197 1.5278 0 0.98305 0.5197 1.5341 0.52596 0.54475 1.4652 0.54475 0.52596 0 0.99557-0.15654 0.47587-0.15654 0.87661-0.46335v1.8346q-0.52596 0.19411-1.0707 0.28803-0.53849 0.10018-1.0832 0.10018-1.8972 0-2.9679-0.97053-1.0707-0.97679-1.0707-2.7112 0-1.7344 1.0707-2.705 1.0707-0.97679 2.9679-0.97679 0.55101 0 1.0832 0.10018 0.53849 0.093922 1.0707 0.28803z"/>
  </g>
 </g>
</svg>
