<?xml version="1.0" encoding="UTF-8"?>
<!-- Created with Inkscape (http://www.inkscape.org/) -->
<svg id="svg2" width="32" height="32" version="1.1" xmlns="http://www.w3.org/2000/svg" xmlns:cc="http://creativecommons.org/ns#" xmlns:dc="http://purl.org/dc/elements/1.1/" xmlns:rdf="http://www.w3.org/1999/02/22-rdf-syntax-ns#">
 <metadata id="metadata4">
  <rdf:RDF>
   <cc:Work rdf:about="">
    <dc:format>image/svg+xml</dc:format>
    <dc:type rdf:resource="http://purl.org/dc/dcmitype/StillImage"/>
    <dc:title/>
   </cc:Work>
  </rdf:RDF>
 </metadata>
 <path id="path828" d="m5.0267 9.902v3.2218h-1.8439v-8.4708h1.8439v0.89858q0.38115-0.53696 0.8447-0.789 0.46356-0.25752 1.0662-0.25752 1.0662 0 1.7512 0.90406 0.68503 0.89858 0.68503 2.3177 0 1.4191-0.68503 2.3232-0.68503 0.89858-1.7512 0.89858-0.60262 0-1.0662-0.25204-0.46356-0.25752-0.8447-0.79448zm1.2259-3.9724q-0.59232 0-0.91166 0.46573-0.31419 0.46025-0.31419 1.3314 0 0.87119 0.31419 1.3369 0.31934 0.46025 0.91166 0.46025t0.90136-0.46025q0.31419-0.46025 0.31419-1.3369 0-0.87667-0.31419-1.3369-0.30904-0.46025-0.90136-0.46025z"/>
 <path id="path830" d="m16.262 7.7049v0.55888h-4.3111q0.066958 0.69038 0.46871 1.0356 0.40175 0.34519 1.1228 0.34519 0.58202 0 1.1898-0.18081 0.61292-0.18629 1.2568-0.55888v1.5123q-0.65413 0.263-1.3083 0.3945-0.65413 0.13698-1.3083 0.13698-1.5658 0-2.4362-0.84379-0.86531-0.84927-0.86531-2.378 0-1.5013 0.84985-2.3615 0.855-0.86023 2.3487-0.86023 1.3598 0 2.1736 0.87119 0.81895 0.87119 0.81895 2.3286zm-1.8954-0.65202q0-0.55888-0.30904-0.89858-0.30389-0.34519-0.79835-0.34519-0.53566 0-0.87046 0.32327-0.33479 0.31779-0.4172 0.9205z"/>
 <path id="path832" d="m19.977 8.0282q-0.57687 0-0.87046 0.20821-0.28844 0.20821-0.28844 0.61367 0 0.37258 0.23178 0.58627 0.23693 0.20821 0.65413 0.20821 0.52021 0 0.87561-0.3945 0.35539-0.39998 0.35539-0.99721v-0.22465zm2.8174-0.73969v3.5012h-1.8594v-0.90954q-0.37084 0.55887-0.8344 0.8164-0.46356 0.25204-1.128 0.25204-0.89621 0-1.4576-0.5534-0.55627-0.55888-0.55627-1.4465 0-1.0794 0.69534-1.5835 0.70048-0.50408 2.1942-0.50408h1.0868v-0.15342q0-0.46573-0.34509-0.67942-0.34509-0.21917-1.0765-0.21917-0.59232 0-1.1022 0.12602-0.50991 0.12602-0.94772 0.37806v-1.4958q0.59232-0.15342 1.1898-0.23013 0.59747-0.082188 1.1949-0.082188 1.5606 0 2.2508 0.6575 0.69534 0.65202 0.69534 2.1259z"/>
 <path id="path834" d="m23.491 2.2641h1.8439v4.6409l2.1221-2.2519h2.1427l-2.8174 2.8163 3.0389 3.3204h-2.2354l-2.2508-2.5588v2.5588h-1.8439z"/>
 <path id="path836" d="m11.569 13.888v1.5999q-0.376-0.27396-0.75714-0.40546-0.376-0.1315-0.7829-0.1315-0.7726 0-1.2052 0.48217-0.4275 0.47669-0.4275 1.3369t0.4275 1.3424q0.43265 0.47669 1.2052 0.47669 0.43265 0 0.81895-0.13698 0.39145-0.13698 0.72109-0.40546v1.6054q-0.43265 0.16986-0.88076 0.25204-0.44295 0.087667-0.89106 0.087667-1.5606 0-2.4414-0.84927-0.88076-0.85475-0.88076-2.3725 0-1.5177 0.88076-2.367 0.88076-0.85475 2.4414-0.85475 0.45326 0 0.89106 0.087666 0.44296 0.082188 0.88076 0.25204z"/>
 <path id="path838" d="m19.43 16.748v0.55888h-4.3111q0.066957 0.69038 0.46871 1.0356 0.40175 0.34519 1.1228 0.34519 0.58202 0 1.1898-0.18081 0.61292-0.18629 1.2568-0.55888v1.5123q-0.65413 0.263-1.3083 0.3945-0.65413 0.13698-1.3083 0.13698-1.5658 0-2.4362-0.84379-0.86531-0.84927-0.86531-2.378 0-1.5013 0.84986-2.3615 0.855-0.86023 2.3487-0.86023 1.3598 0 2.1736 0.87119 0.81895 0.87119 0.81895 2.3286zm-1.8954-0.65202q0-0.55888-0.30904-0.89858-0.30389-0.34519-0.79835-0.34519-0.53566 0-0.87046 0.32327-0.33479 0.31779-0.4172 0.9205z"/>
 <path id="path840" d="m26.899 16.255v3.7368h-1.8542v-2.8601q0-0.79448-0.036053-1.0958-0.030905-0.30136-0.11332-0.44381-0.10816-0.19177-0.29359-0.29588-0.18542-0.10958-0.42235-0.10958-0.57687 0-0.90651 0.47669-0.32964 0.47121-0.32964 1.3095v3.019h-1.8439v-6.1367h1.8439v0.89858q0.4172-0.53696 0.88591-0.789 0.46871-0.25752 1.0353-0.25752 0.99922 0 1.5143 0.65202 0.52021 0.65202 0.52021 1.8958z"/>
 <path id="path842" d="m8.2768 22.931v1.5999q-0.376-0.27396-0.75714-0.40546-0.376-0.1315-0.7829-0.1315-0.77259 0-1.2052 0.48217-0.4275 0.47669-0.4275 1.3369 0 0.86023 0.4275 1.3424 0.43265 0.47669 1.2052 0.47669 0.43265 0 0.81895-0.13698 0.39145-0.13698 0.72109-0.40546v1.6054q-0.43265 0.16985-0.88076 0.25204-0.44295 0.087667-0.89106 0.087667-1.5606 0-2.4414-0.84927-0.88076-0.85475-0.88076-2.3725 0-1.5177 0.88076-2.367 0.88076-0.85475 2.4414-0.85475 0.45326 0 0.89106 0.087667 0.44295 0.082189 0.88076 0.25204z"/>
 <path id="path844" d="m14.012 23.994q-0.61292 0-0.93742 0.47121-0.31934 0.46573-0.31934 1.3479 0 0.88215 0.31934 1.3534 0.32449 0.46573 0.93742 0.46573 0.60262 0 0.92196-0.46573 0.31934-0.47121 0.31934-1.3534 0-0.88214-0.31934-1.3479-0.31934-0.47121-0.92196-0.47121zm0-1.4027q1.4885 0 2.3229 0.85475 0.83955 0.85475 0.83955 2.367 0 1.5123-0.83955 2.367-0.8344 0.85475-2.3229 0.85475-1.4937 0-2.3384-0.85475-0.83955-0.85475-0.83955-2.367 0-1.5123 0.83955-2.367 0.8447-0.85475 2.3384-0.85475z"/>
 <path id="path846" d="m25.088 23.759q0.35024-0.56983 0.82925-0.86571 0.48416-0.30136 1.061-0.30136 0.99407 0 1.5143 0.65202 0.52021 0.65202 0.52021 1.8958v3.7368h-1.8542v-3.1998q0.00515-0.071229 0.00515-0.14794 0.005151-0.076709 0.005151-0.21917 0-0.65202-0.18027-0.94242-0.18027-0.29588-0.58202-0.29588-0.52536 0-0.8138 0.46025-0.28329 0.46025-0.29359 1.3314v3.0135h-1.8542v-3.1998q0-1.0191-0.16482-1.3095-0.16482-0.29588-0.58717-0.29588-0.53051 0-0.81895 0.46573-0.28843 0.46025-0.28843 1.3205v3.019h-1.8542v-6.1367h1.8542v0.89858q0.33994-0.52052 0.77774-0.78352 0.44296-0.263 0.97347-0.263 0.59747 0 1.0559 0.30684 0.45841 0.30683 0.69534 0.86023z"/>
</svg>
