<?xml version="1.0" encoding="UTF-8"?>
<svg enable-background="new 0 0 32 32" version="1.1" viewBox="0 0 32 32" xml:space="preserve" xmlns="http://www.w3.org/2000/svg" xmlns:cc="http://creativecommons.org/ns#" xmlns:dc="http://purl.org/dc/elements/1.1/" xmlns:rdf="http://www.w3.org/1999/02/22-rdf-syntax-ns#"><metadata><rdf:RDF><cc:Work rdf:about=""><dc:format>image/svg+xml</dc:format><dc:type rdf:resource="http://purl.org/dc/dcmitype/StillImage"/><dc:title/></cc:Work></rdf:RDF></metadata>
	
		






<path d="m17.184 6.1033c-0.206-1.621-2.504-1.482-3.643-1.048-2.667 1.016-4.664 2.552-6.696 4.454-3.776 3.541-8.54 12.757-2.391 16.604 6.31 3.944 26.231-2.853 26.321-15.534 0.082-12.117-14.64 5.746-14.425-0.618 1e-3 -2e-3 1.022-2.418 0.834-3.858z" fill="#fff" stroke="#00a14b" stroke-linecap="square" stroke-width="2.1092"/><path d="m19.479 27.572c0.038 0 0.038-5 0-5s-0.038 5 0 5z" fill="#d7df23"/><path d="m13.642 13.946c0.19304-0.70993-0.39116-1.002-1.0782-1.096-0.02921-0.06985-0.0889-0.13716-0.23114-0.19304-0.77216-0.30734-2.0739-0.09779-3.0099 0.21971-1.176 0.39878-2.3762 0.9525-3.2347 1.8631-0.40386 0.42418-0.81661 1.1747-0.69596 1.6231 0.16129 0.5969 0.91948 0.68707 1.6027 0.72263 1.1824 0.06604 2.5286-0.26289 3.7528-0.72898 1.1582-0.4445 2.5946-1.3106 2.8943-2.4105z" fill="#662d91" stroke-width="1.27"/><path d="m20.623 17.998c-0.0038 0-0.0038-0.0025-0.0051-0.0089-0.72263-0.40386-2.0536-0.19812-3.0023 0.15367-1.35 0.50292-3.843 2.0206-3.6271 3.3858 0.28829 1.8085 3.7719 1.19 5.475 0.40132 1.209-0.56134 2.2568-1.5405 2.6962-2.6086 0.4064-0.99187-0.47498-1.2916-1.5367-1.3233z" fill="#ee2a7b" stroke-width="1.27"/><path d="m27.939 11.949c-0.19668-0.70719-1.4967-0.76438-2.2694-0.73509-1.3279 0.053-2.699 0.46449-3.9962 1.095-0.51052 0.2455-0.7337 0.54121-0.71975 0.79228-0.10322 0.06835-0.2162 0.12554-0.31105 0.20086-0.63885 0.50215-1.1884 1.261-0.90945 1.8426 0.37382 0.76438 1.7157 0.76299 2.6656 0.75462 1.2637-0.01534 2.7395-0.44496 3.9307-1.18 1.1313-0.69325 1.8649-1.8287 1.6097-2.7702z" fill="#00aeef" stroke-width="1.3949"/><path d="m9.8209 18.593c-0.31242 0.0025-0.72009 0.05334-1.1328 0.15748-0.46101 0.05461-0.92964 0.16256-1.3195 0.33782-1.2459 0.55372-2.5717 1.5253-2.7356 2.7089-0.22987 1.665 2.6606 1.4859 4.064 1.1405 1.2814-0.31623 2.8283-1.2751 3.3871-2.4041 0.75946-1.5202-0.89027-1.9494-2.2631-1.9406z" fill="#d7df23" stroke-width="1.27"/><ellipse cx="16.075" cy="12.16" rx=".19304" ry=".00127" fill="#ee2a7b" stroke-width="1.27"/>
</svg>
