<?xml version="1.0" encoding="UTF-8"?>
<svg id="svg2" version="1.1" viewBox="0 0 32 32" xml:space="preserve" xmlns="http://www.w3.org/2000/svg" xmlns:cc="http://creativecommons.org/ns#" xmlns:dc="http://purl.org/dc/elements/1.1/" xmlns:rdf="http://www.w3.org/1999/02/22-rdf-syntax-ns#"><metadata id="metadata16"><rdf:RDF><cc:Work rdf:about=""><dc:format>image/svg+xml</dc:format><dc:type rdf:resource="http://purl.org/dc/dcmitype/StillImage"/></cc:Work></rdf:RDF></metadata><path id="path3800" d="m2.3414 15.335 4.8204-4.6827 8.3325-2.4102 8.8834 2.1348 5.0959 4.6138-4.2695 5.2336-8.539 3.0988-9.1588-2.5479z" fill="#fff" stroke="#000" stroke-width="1px"/><path id="path3004" d="m15.958 7.0647c-9.9775 0-14.988 8.1993-14.988 8.1993s5.8829 9.3599 15.521 9.0764c9.6386-0.28349 14.225-9.1146 14.225-9.1146s-4.7813-8.1612-14.759-8.1612zm-0.03814 2.517c7.4278 0 11.708 5.6823 11.708 5.6823s-3.9862 6.3162-11.365 6.5213c-7.3785 0.20509-12.089-6.5213-12.089-6.5213s4.3182-5.6823 11.746-5.6823z" fill="#9eabb0"/><path id="path3794" d="m15.996 10.726c-2.7641 0-5.034 2.2317-5.034 4.9959 0 2.7641 2.2699 4.9959 5.034 4.9959s4.9959-2.2317 4.9959-4.9959c0-2.7641-2.2317-4.9959-4.9959-4.9959zm-0.91527 1.6017c1.1076 0 1.9831 0.91358 1.9831 2.0212s-0.87545 1.9831-1.9831 1.9831-2.0212-0.87545-2.0212-1.9831 0.91358-2.0212 2.0212-2.0212z" color="#000000" fill="#9eabb0"/></svg>
