<?xml version="1.0" encoding="UTF-8" standalone="no"?>
<!-- Created with Inkscape (http://www.inkscape.org/) -->

<svg
   xmlns:dc="http://purl.org/dc/elements/1.1/"
   xmlns:cc="http://creativecommons.org/ns#"
   xmlns:rdf="http://www.w3.org/1999/02/22-rdf-syntax-ns#"
   xmlns:svg="http://www.w3.org/2000/svg"
   xmlns="http://www.w3.org/2000/svg"
   xmlns:sodipodi="http://sodipodi.sourceforge.net/DTD/sodipodi-0.dtd"
   xmlns:inkscape="http://www.inkscape.org/namespaces/inkscape"
   width="297mm"
   height="210mm"
   id="svg9402"
   version="1.1"
   inkscape:version="0.92.1 r15371"
   sodipodi:docname="axis_group_calc.svg">
  <defs
     id="defs9404" />
  <sodipodi:namedview
     inkscape:document-units="mm"
     pagecolor="#ffffff"
     bordercolor="#666666"
     borderopacity="1.0"
     inkscape:pageopacity="0.0"
     inkscape:pageshadow="2"
     inkscape:zoom="0.86831672"
     inkscape:cx="659.1717"
     inkscape:cy="532.32409"
     inkscape:current-layer="g6906"
     id="namedview9406"
     showgrid="true"
     inkscape:window-width="2067"
     inkscape:window-height="1160"
     inkscape:window-x="216"
     inkscape:window-y="81"
     inkscape:window-maximized="0">
    <inkscape:grid
       type="xygrid"
       id="grid4610" />
  </sodipodi:namedview>
  <metadata
     id="metadata9408">
    <rdf:RDF>
      <cc:Work
         rdf:about="">
        <dc:format>image/svg+xml</dc:format>
        <dc:type
           rdf:resource="http://purl.org/dc/dcmitype/StillImage" />
        <dc:title></dc:title>
      </cc:Work>
    </rdf:RDF>
  </metadata>
  <g
     inkscape:label="Layer 1"
     inkscape:groupmode="layer"
     id="layer1">
    <g
       style="display:inline"
       id="g6906"
       transform="matrix(0.41657128,0,0,0.41657128,465.25045,-1332.6991)">
      <g
         id="g3836-5-0-6-4-8-7"
         transform="matrix(1.6015625,0,0,1.9473506,-3738.8255,5624.5481)"
         style="fill:#0098d4;fill-opacity:1;stroke:#000000;stroke-width:3.5999999;stroke-miterlimit:4;stroke-dasharray:none;stroke-opacity:1">
        <g
           transform="matrix(1.2970297,0,0,1.1315791,-983.0231,-180.82269)"
           id="g5672-0-9-7-4-8-6-4"
           style="fill:#0098d4;fill-opacity:1;stroke:#000000;stroke-width:3.5999999;stroke-miterlimit:4;stroke-dasharray:none;stroke-opacity:1">
          <rect
             style="fill:#0098d4;fill-opacity:1;stroke:#000000;stroke-width:3.83999991;stroke-miterlimit:4;stroke-dasharray:none;stroke-opacity:1"
             id="rect3139-9-4-3-8-2-9-9-43-3-7-2-0"
             width="739.33026"
             height="237.54416"
             x="2304"
             y="-733.48022"
             ry="6.400003" />
        </g>
      </g>
      <text
         id="text2993-4-3-8-1-9-1-82-8-6-0-9-9"
         y="3666.0576"
         x="-537.96228"
         style="font-style:oblique;font-variant:normal;font-weight:bold;font-stretch:normal;font-size:22.60497284px;line-height:0%;font-family:sans-serif;-inkscape-font-specification:'Sans Bold Oblique';text-align:start;letter-spacing:0px;word-spacing:0px;writing-mode:lr-tb;text-anchor:start;fill:#000000;fill-opacity:1;stroke:none;stroke-width:1.88374782"
         xml:space="preserve"
         transform="scale(0.9068801,1.1026816)"><tspan
           style="font-size:67.81491852px;line-height:1;font-family:sans-serif;stroke-width:1.88374782"
           y="3666.0576"
           x="-537.96228"
           sodipodi:role="line"
           id="tspan4019-5-0-5-0-9-9-3-1-6-6-4">Calculational </tspan><tspan
           style="font-size:67.81491852px;line-height:1;font-family:sans-serif;stroke-width:1.88374782"
           id="tspan5531"
           y="3733.8726"
           x="-537.96228"
           sodipodi:role="line">Controller</tspan></text>
      <g
         style="fill:#4b4b4b;fill-opacity:1"
         transform="matrix(1.6015625,0,0,1.9473506,-8353.0339,3489.2133)"
         id="g6285-4-6-0-8">
        <path
           sodipodi:nodetypes="cccccccccccc"
           inkscape:connector-curvature="0"
           id="path6241-2-4-6-8"
           d="m 4928,-8.1468765 h 85.3333 V 34.51979 h -16 L 5034.6667,77.186457 5072,34.51979 h -16 V -8.1468765 h 215.4667 V 183.85312 H 4928 V -8.1468765"
           style="fill:#4b4b4b;fill-opacity:1;stroke:#000000;stroke-width:2.13333344;stroke-linecap:butt;stroke-linejoin:miter;stroke-miterlimit:4;stroke-dasharray:none;stroke-opacity:1" />
      </g>
      <text
         id="text2993-4-3-8-1-9-1-82-8-6-0-9-4-2"
         y="3262.9358"
         x="-183.81763"
         style="font-style:oblique;font-variant:normal;font-weight:bold;font-stretch:normal;font-size:22.60497284px;line-height:0%;font-family:sans-serif;-inkscape-font-specification:'Sans Bold Oblique';text-align:start;letter-spacing:0px;word-spacing:0px;writing-mode:lr-tb;text-anchor:start;fill:#f4a300;fill-opacity:1;stroke:none;stroke-width:1.88374782"
         xml:space="preserve"
         transform="scale(0.9068801,1.1026816)"><tspan
           style="font-size:67.81491852px;line-height:1;font-family:sans-serif;stroke-width:1.88374782"
           y="3262.9358"
           x="-183.81763"
           sodipodi:role="line"
           id="tspan4019-5-0-5-0-9-9-3-1-6-6-5-45">Virtual</tspan><tspan
           style="font-size:67.81491852px;line-height:1;font-family:sans-serif;stroke-width:1.88374782"
           id="tspan5525"
           y="3330.7507"
           x="-183.81763"
           sodipodi:role="line">Axis</tspan></text>
      <path
         sodipodi:nodetypes="ccccccccccc"
         inkscape:connector-curvature="0"
         id="path2603-8-8-8-4-8-5-5"
         d="m -238.45061,3421.0632 -50.9624,-81.341 -51.53752,81.341 h 20.5 v 139.1707 h -22.20834 l 52.95834,74.7783 52.95831,-74.7783 h -22.20839 v -139.1707 z"
         style="fill:#7db7e7;fill-opacity:1;fill-rule:evenodd;stroke:#132577;stroke-width:3.51072836;stroke-linejoin:round;stroke-opacity:1" />
      <g
         style="fill:#4b4b4b;fill-opacity:1"
         transform="matrix(1.6015625,0,0,1.9473506,-7498.8673,3489.2133)"
         id="g6285-4-6-0-8-1">
        <path
           sodipodi:nodetypes="cccccccccccc"
           inkscape:connector-curvature="0"
           id="path6241-2-4-6-8-8"
           d="m 4928,-8.1468765 h 85.3333 V 34.51979 h -16 L 5034.6667,77.186457 5072,34.51979 h -16 V -8.1468765 h 215.4667 V 183.85312 H 4928 V -8.1468765"
           style="fill:#4b4b4b;fill-opacity:1;stroke:#000000;stroke-width:2.13333344;stroke-linecap:butt;stroke-linejoin:miter;stroke-miterlimit:4;stroke-dasharray:none;stroke-opacity:1" />
      </g>
      <text
         id="text2993-4-3-8-1-9-1-82-8-6-0-9-4-2-9"
         y="3262.9358"
         x="761.82373"
         style="font-style:oblique;font-variant:normal;font-weight:bold;font-stretch:normal;font-size:22.60497284px;line-height:0%;font-family:sans-serif;-inkscape-font-specification:'Sans Bold Oblique';text-align:start;letter-spacing:0px;word-spacing:0px;writing-mode:lr-tb;text-anchor:start;fill:#f4a300;fill-opacity:1;stroke:none;stroke-width:1.88374782"
         xml:space="preserve"
         transform="scale(0.9068801,1.1026816)"><tspan
           style="font-size:67.81491852px;line-height:1;font-family:sans-serif;stroke-width:1.88374782"
           y="3262.9358"
           x="761.82373"
           sodipodi:role="line"
           id="tspan4019-5-0-5-0-9-9-3-1-6-6-5-45-2">Virtual</tspan><tspan
           style="font-size:67.81491852px;line-height:1;font-family:sans-serif;stroke-width:1.88374782"
           id="tspan5529"
           y="3330.7507"
           x="761.82373"
           sodipodi:role="line">Axis</tspan></text>
      <path
         sodipodi:nodetypes="ccccccccccc"
         inkscape:connector-curvature="0"
         id="path2603-8-8-8-4-8-5-5-7"
         d="m 615.71613,3421.0632 -50.96248,-81.341 -51.53752,81.341 h 20.5 v 139.1707 h -22.20834 l 52.95834,74.7783 52.95833,-74.7783 h -22.20833 v -139.1707 z"
         style="fill:#7db7e7;fill-opacity:1;fill-rule:evenodd;stroke:#132577;stroke-width:3.51072836;stroke-linejoin:round;stroke-opacity:1" />
      <text
         id="text2993-4-3-4-4-3-0-9-4-1"
         y="2995.4434"
         x="-463.34177"
         style="font-style:normal;font-variant:normal;font-weight:normal;font-stretch:normal;font-size:22.60497284px;line-height:0%;font-family:'Courier 10 Pitch';-inkscape-font-specification:'Courier 10 Pitch';text-align:start;letter-spacing:0px;word-spacing:0px;writing-mode:lr-tb;text-anchor:start;fill:#132500;fill-opacity:1;stroke:none;stroke-width:1.88374782"
         xml:space="preserve"
         transform="scale(0.9068801,1.1026816)"><tspan
           y="2995.4434"
           x="-463.34177"
           sodipodi:role="line"
           id="tspan4019-5-3-3-6-5-5-3-2"
           style="font-size:60.27993011px;line-height:1.25;stroke-width:1.88374782">axis.move()</tspan></text>
      <text
         id="text2993-4-3-4-4-3-0-9-4-3"
         y="2995.4434"
         x="454.12051"
         style="font-style:normal;font-variant:normal;font-weight:normal;font-stretch:normal;font-size:22.60497284px;line-height:0%;font-family:'Courier 10 Pitch';-inkscape-font-specification:'Courier 10 Pitch';text-align:start;letter-spacing:0px;word-spacing:0px;writing-mode:lr-tb;text-anchor:start;fill:#132500;fill-opacity:1;stroke:none;stroke-width:1.88374782"
         xml:space="preserve"
         transform="scale(0.9068801,1.1026816)"><tspan
           y="2995.4434"
           x="454.12051"
           sodipodi:role="line"
           id="tspan4019-5-3-3-6-5-5-3-3"
           style="font-size:60.27993011px;line-height:1.25;stroke-width:1.88374782">axis.move()</tspan></text>
      <rect
         style="fill:#0098d4;fill-opacity:1;stroke:#000000;stroke-width:8.21566296;stroke-miterlimit:4;stroke-dasharray:none;stroke-opacity:1"
         id="rect3139-9-4-3-8-2-9-9-43-3-7-2-5-1"
         width="1537.5"
         height="373.8913"
         x="-528.86725"
         y="4603.3311"
         ry="14.102927" />
      <path
         sodipodi:nodetypes="ccccc"
         inkscape:connector-curvature="0"
         id="path7923-1"
         d="m -494.70054,4246.0573 v 585.7631 H 947.13284 l 1.70838,-585.7631 z"
         style="display:inline;fill:#ffd96e;fill-opacity:1;stroke:#000000;stroke-width:1.88374782px;stroke-linecap:butt;stroke-linejoin:miter;stroke-opacity:1" />
      <path
         style="fill:#4b4b4b;fill-opacity:1;stroke:#000000;stroke-width:3.76749563;stroke-linecap:butt;stroke-linejoin:miter;stroke-miterlimit:4;stroke-dasharray:none;stroke-opacity:1"
         d="M 256.96619,4416.3855 H 393.6328 v 83.087 h -25.625 l 59.79161,83.0868 59.79177,-83.0868 h -25.625 v -83.087 h 437.33327 v 373.8913 H 256.96619 v -373.8913"
         id="path6241-2-4-6-6-1-1"
         inkscape:connector-curvature="0"
         sodipodi:nodetypes="cccccccccccc" />
      <text
         id="text2993-4-3-8-1-9-1-82-8-6-0-9-1-7"
         y="4457.2319"
         x="-536.07849"
         style="font-style:normal;font-variant:normal;font-weight:bold;font-stretch:normal;font-size:22.60497284px;line-height:0%;font-family:sans-serif;-inkscape-font-specification:'Sans Bold';text-align:start;letter-spacing:0px;word-spacing:0px;writing-mode:lr-tb;text-anchor:start;fill:#000000;fill-opacity:1;stroke:none;stroke-width:1.88374782"
         xml:space="preserve"
         transform="scale(0.9068801,1.1026816)"><tspan
           style="font-size:67.81491852px;line-height:1;font-family:sans-serif;stroke-width:1.88374782"
           y="4457.2319"
           x="-536.07849"
           sodipodi:role="line"
           id="tspan4019-5-0-5-0-9-9-3-1-6-6-9-7">Controller</tspan></text>
      <g
         style="fill:#4b4b4b;fill-opacity:1"
         transform="matrix(1.6015625,0,0,1.9473506,-8353.0339,4432.2505)"
         id="g6285-4-6-0-2-9">
        <path
           sodipodi:nodetypes="cccccccccccc"
           inkscape:connector-curvature="0"
           id="path6241-2-4-6-6-3"
           d="m 4928,-8.1468765 h 166.952 V 34.51979 h -16 l 37.3334,42.666667 37.3333,-42.666667 h -16 V -8.1468765 h 191.448 V 183.85312 H 4928 V -8.1468765"
           style="fill:#4b4b4b;fill-opacity:1;stroke:#000000;stroke-width:2.13333344;stroke-linecap:butt;stroke-linejoin:miter;stroke-miterlimit:4;stroke-dasharray:none;stroke-opacity:1" />
      </g>
      <text
         id="text2993-4-3-8-1-9-1-82-8-6-0-9-4-9-7-9"
         y="4159.6006"
         x="579.08044"
         style="font-style:normal;font-variant:normal;font-weight:bold;font-stretch:normal;font-size:22.60497284px;line-height:0%;font-family:sans-serif;-inkscape-font-specification:'Sans Bold';text-align:start;letter-spacing:0px;word-spacing:0px;writing-mode:lr-tb;text-anchor:start;fill:#f4a300;fill-opacity:1;stroke:none;stroke-width:1.88374782"
         xml:space="preserve"
         transform="scale(0.9068801,1.1026816)"><tspan
           style="font-size:67.81491852px;line-height:1;font-family:sans-serif;stroke-width:1.88374782"
           y="4159.6006"
           x="579.08044"
           sodipodi:role="line"
           id="tspan4019-5-0-5-0-9-9-3-1-6-6-5-6-3-8">Real</tspan><tspan
           style="font-size:67.81491852px;line-height:1;font-family:sans-serif;stroke-width:1.88374782"
           id="tspan5546"
           y="4227.4155"
           x="579.08044"
           sodipodi:role="line">Axis</tspan></text>
      <text
         id="text2993-4-3-8-1-9-1-82-8-6-0-9-4-9-0"
         y="4159.6006"
         x="-63.234554"
         style="font-style:normal;font-variant:normal;font-weight:bold;font-stretch:normal;font-size:22.60497284px;line-height:0%;font-family:sans-serif;-inkscape-font-specification:'Sans Bold';text-align:start;letter-spacing:0px;word-spacing:0px;writing-mode:lr-tb;text-anchor:start;fill:#f4a300;fill-opacity:1;stroke:none;stroke-width:1.88374782"
         xml:space="preserve"
         transform="scale(0.9068801,1.1026816)"><tspan
           style="font-size:67.81491852px;line-height:1;font-family:sans-serif;stroke-width:1.88374782"
           y="4159.6006"
           x="-63.234554"
           sodipodi:role="line"
           id="tspan4019-5-0-5-0-9-9-3-1-6-6-5-6-2">Real</tspan><tspan
           style="font-size:67.81491852px;line-height:1;font-family:sans-serif;stroke-width:1.88374782"
           id="tspan5544"
           y="4227.4155"
           x="-63.234554"
           sodipodi:role="line">Axis </tspan></text>
      <path
         sodipodi:nodetypes="ccccccccccccccccccccccccccccccccccc"
         id="path2603-8-8-8-4-8-5-9-25-1-5-0-0"
         d="m -67.617219,3847.2399 v 124.6305 H 188.6328 v 20.7716 h -68.33339 v 162.0195 h 68.33339 v 141.248 l -378.36593,-2.0772 v 207.7174 h -25.625 l 56.37501,78.9326 56.37495,-78.9326 h -23.91662 v -143.325 l 521.86598,-2.0772 v 145.4022 h -23.91678 l 56.37484,76.8803 54.66693,-76.8803 h -22.20839 v -205.6402 l -203.2916,-2e-4 V 4154.6615 H 332.1328 V 3992.642 h -75.16661 v -20.7718 l 256.24999,2e-4 V 3847.2399 H 444.8828 v 62.3152 H 0.71616825 v -62.3152 z"
         style="display:inline;fill:#132577;fill-opacity:0.4627451;fill-rule:evenodd;stroke:#132577;stroke-width:3.51072836;stroke-linejoin:round;stroke-miterlimit:4;stroke-dasharray:none;stroke-opacity:1"
         inkscape:connector-curvature="0" />
      <text
         xml:space="preserve"
         style="font-style:normal;font-variant:normal;font-weight:bold;font-stretch:normal;font-size:22.60497284px;line-height:0%;font-family:sans-serif;-inkscape-font-specification:'Sans Bold';text-align:start;letter-spacing:0px;word-spacing:0px;writing-mode:lr-tb;text-anchor:start;fill:#000000;fill-opacity:1;stroke:none;stroke-width:1.88374782"
         x="773.12616"
         y="3948.6199"
         id="text2993-4-3-8-1-9-1-82-8-6-0-9-1-6-8"
         transform="scale(0.9068801,1.1026816)"><tspan
           style="font-size:67.81491852px;line-height:1;font-family:sans-serif;stroke-width:1.88374782"
           id="tspan4019-5-0-5-0-9-9-3-1-6-6-9-6-6"
           sodipodi:role="line"
           x="773.12616"
           y="3948.6199">Group</tspan></text>
      <rect
         y="3994.7195"
         x="122.00787"
         height="157.86516"
         width="208.41667"
         id="rect3139-9-9-8-5-2-5-3-6"
         style="fill:#d1d2d4;fill-opacity:1;stroke:none;stroke-width:1.88374782" />
      <g
         transform="matrix(0.45222931,0,0,0.52417501,-769.3776,3861.417)"
         id="g7234">
        <path
           inkscape:connector-curvature="0"
           style="fill:none;stroke:#000000;stroke-width:2.9333334;stroke-miterlimit:4;stroke-dasharray:none"
           d="m 2244.0042,308.54323 2.9372,-1.00736 3.7753,-0.33248 7.484,1.35552 1.0468,4.50731 -6.1208,4.51488 -3.5353,1.36523 -3.0807,0.39018 0.4211,7.8447 3.1048,0.0576 3.6605,0.97973 6.57,3.83232 -0.558,4.5952 -7.2958,2.14763 -3.7899,0.0757 -3.0277,-0.68757 -2.2867,7.5153 2.8972,1.11648 3.1054,2.17302 4.8624,5.84853 -2.096,4.12555 -7.591,-0.47648 -3.5863,-1.22592 -2.6101,-1.68139 -4.7189,6.27979 2.3398,2.03989 2.1761,3.104 2.5681,7.15872 -3.38,3.16117 -6.9706,-3.04394 -2.9505,-2.37878 -1.8784,-2.47221 -6.5824,4.28597 1.5016,2.71744 0.9825,3.66038 -0.034,7.6064 -4.258,1.81344 -5.5083,-5.24406 -1.959,-3.24416 -0.9199,-2.9664 -7.6513,1.77686 0.4813,3.06816 -0.3288,3.77546 -2.6335,7.13483 -4.6214,0.24864 -3.3824,-6.81301 -0.7311,-3.71883 0.1504,-3.10101 -7.7976,-0.94656 -0.5967,3.04704 -1.6003,3.43562 -4.9157,5.80427 -4.4272,-1.34816 -0.8495,-7.55787 0.5855,-3.74528 1.2012,-2.86218 -7.0033,-3.55755 -1.602,2.65963 -2.679,2.68074 -6.6041,3.77312 -3.6996,-2.77973 1.7873,-7.39275 1.83,-3.31914 2.1087,-2.27904 -5.3646,-5.73846 -2.4147,1.95147 -3.4353,1.60267 -7.4957,1.28736 -2.5259,-3.87904 4.2088,-6.33547 2.8541,-2.49269 2.7615,-1.41984 -3.0789,-7.22742 -2.9373,1.00736 -3.7752,0.33248 -7.4841,-1.35552 -1.0467,-4.5072 6.1207,-4.51498 3.5354,-1.36523 3.0806,-0.39019 -0.4211,-7.84458 -3.1047,-0.0576 -3.6605,-0.97984 -6.57,-3.83232 0.5579,-4.5952 7.2958,-2.14763 3.79,-0.0757 3.0276,0.68757 2.2867,-7.5152 -2.8971,-1.11648 -3.1054,-2.17312 -4.8624,-5.84843 2.096,-4.12565 7.5909,0.47659 3.5864,1.22581 2.6101,1.68139 4.7188,-6.27979 -2.3397,-2.03989 -2.1761,-3.1039 -2.5681,-7.15882 3.3799,-3.16118 6.9707,3.04395 2.9505,2.37877 1.8784,2.47222 6.5824,-4.28598 -1.5017,-2.71744 -0.9825,-3.66026 0.034,-7.60651 4.258,-1.81333 5.5083,5.24405 1.959,3.24405 0.9199,2.9664 7.6513,-1.77685 -0.4814,-3.06816 0.3289,-3.77547 2.6335,-7.13482 4.6214,-0.24864 3.3824,6.81301 0.7311,3.71883 -0.1504,3.10101 7.7975,0.94656 0.5967,-3.04704 1.6004,-3.43552 4.9157,-5.80437 4.4272,1.34816 0.8495,7.55786 -0.5855,3.74528 -1.2013,2.86219 7.0033,3.55755 1.602,-2.65952 2.6791,-2.68086 6.604,-3.77301 3.6997,2.77963 -1.7873,7.39274 -1.83,3.31926 -2.1087,2.27893 5.3646,5.73845 2.4147,-1.95146 3.4353,-1.60267 7.4957,-1.28736 2.5259,3.87904 -4.2088,6.33547 -2.8542,2.49269 -2.7615,1.41984 z"
           id="path47307-0" />
        <path
           style="fill:none;stroke:#000000;stroke-width:2.9333334;stroke-miterlimit:4;stroke-dasharray:none;stroke-opacity:1"
           d="m 2173.9935,287.90547 c -14.8377,6.52992 -24.2832,21.49611 -23.8304,37.6671 l 30.9107,-7.17835 z m 15.6305,-3.42442 7.0351,30.29386 29.8718,-6.93706 c -6.5684,-14.38379 -21.128,-23.5824 -36.9069,-23.3568 z m -35.8416,56.6768 c 6.7202,14.71498 21.7946,23.98741 37.9911,23.3104 l -7.0803,-30.48875 z m 46.496,-10.79776 7.0351,30.29386 c 14.2634,-6.75114 23.2788,-21.42485 22.8367,-37.23093 z"
           id="path6987"
           inkscape:connector-curvature="0" />
        <path
           inkscape:connector-curvature="0"
           style="fill:none;stroke:#000000;stroke-width:2.9333334;stroke-miterlimit:4;stroke-dasharray:none"
           d="m 2322.3054,465.99923 2.9373,-1.00736 3.7752,-0.33248 7.4841,1.35552 1.0467,4.50731 -6.1208,4.51488 -3.5353,1.36533 -3.0807,0.39019 0.4212,7.84459 3.1047,0.0576 3.6605,0.97973 6.57,3.83232 -0.558,4.5952 -7.2957,2.14763 -3.79,0.0757 -3.0276,-0.68757 -2.2868,7.5153 2.8972,1.11648 3.1054,2.17302 4.8624,5.84853 -2.096,4.12565 -7.5909,-0.47658 -3.5864,-1.22582 -2.6101,-1.68149 -4.7188,6.27989 2.3397,2.03979 2.1761,3.104 2.5681,7.15872 -3.3799,3.16117 -6.9707,-3.04394 -2.9505,-2.37867 -1.8784,-2.47232 -6.5824,4.28597 1.5016,2.71744 0.9825,3.66038 -0.034,7.6064 -4.258,1.81344 -5.5083,-5.24406 -1.959,-3.24416 -0.9199,-2.9664 -7.6513,1.77686 0.4814,3.06826 -0.3289,3.77547 -2.6335,7.13472 -4.6214,0.24864 -3.3824,-6.81301 -0.7311,-3.71872 0.1504,-3.10112 -7.7976,-0.94646 -0.5967,3.04694 -1.6003,3.43562 -4.9157,5.80427 -4.4272,-1.34805 -0.8495,-7.55787 0.5855,-3.74528 1.2013,-2.86229 -7.0033,-3.55755 -1.6021,2.65963 -2.679,2.68085 -6.6041,3.77301 -3.6996,-2.77973 1.7873,-7.39275 1.83,-3.31914 2.1087,-2.27904 -5.3646,-5.73846 -2.4147,1.95158 -3.4353,1.60256 -7.4957,1.28736 -2.5259,-3.87904 4.2088,-6.33547 2.8542,-2.49259 2.7615,-1.41994 -3.079,-7.22742 -2.9373,1.00736 -3.7752,0.33248 -7.4841,-1.35552 -1.0467,-4.5072 6.1208,-4.51498 3.5353,-1.36523 3.0807,-0.39019 -0.4212,-7.84458 -3.1047,-0.0576 -3.6605,-0.97974 -6.57,-3.83242 0.558,-4.5951 7.2958,-2.14773 3.7899,-0.0757 3.0277,0.68768 2.2867,-7.51531 -2.8972,-1.11648 -3.1054,-2.17312 -4.8624,-5.84843 2.096,-4.12565 7.5909,0.47659 3.5864,1.22581 2.6101,1.68139 4.7189,-6.27979 -2.3398,-2.03989 -2.1761,-3.1039 -2.5681,-7.15882 3.38,-3.16118 6.9706,3.04395 2.9505,2.37877 1.8784,2.47222 6.5824,-4.28587 -1.5016,-2.71744 -0.9825,-3.66037 0.034,-7.6064 4.258,-1.81344 5.5083,5.24405 1.959,3.24416 0.9199,2.9664 7.6513,-1.77685 -0.4814,-3.06827 0.3289,-3.77547 2.6335,-7.13482 4.6214,-0.24864 3.3824,6.81312 0.7311,3.71872 -0.1504,3.10112 7.7976,0.94645 0.5967,-3.04704 1.6003,-3.43552 4.9157,-5.80437 4.4272,1.34816 0.8495,7.55786 -0.5855,3.74528 -1.2013,2.86219 7.0033,3.55765 1.6021,-2.65962 2.679,-2.68086 6.6041,-3.77301 3.6996,2.77963 -1.7873,7.39285 -1.83,3.31915 -2.1087,2.27904 5.3646,5.73834 2.4147,-1.95146 3.4353,-1.60267 7.4957,-1.28736 2.5259,3.87904 -4.2088,6.33557 -2.8542,2.49259 -2.7614,1.41995 z"
           id="path47307-0-9" />
        <path
           style="fill:none;stroke:#000000;stroke-width:2.9333334;stroke-miterlimit:4;stroke-dasharray:none;stroke-opacity:1"
           d="m 2252.2946,445.36158 c -14.8376,6.52981 -24.2832,21.496 -23.8304,37.66709 l 30.9108,-7.17845 z m 15.6306,-3.42443 7.0351,30.29376 29.8717,-6.93706 c -6.5684,-14.38379 -21.1279,-23.5824 -36.9068,-23.3567 z m -35.8416,56.6767 c 6.7202,14.71509 21.7945,23.98752 37.9912,23.3104 l -7.0805,-30.48875 z m 46.496,-10.79766 7.0351,30.29376 c 14.2633,-6.75114 23.2788,-21.42485 22.8367,-37.23082 z"
           id="path6987-1"
           inkscape:connector-curvature="0" />
        <path
           inkscape:connector-curvature="0"
           style="fill:none;stroke:#000000;stroke-width:2.9333334;stroke-miterlimit:4;stroke-dasharray:none"
           d="m 2364.3951,360.00233 3.0891,-0.3168 3.7525,0.53013 6.9835,3.01333 v 4.6272 l -6.9835,3.01334 -3.7525,0.53013 -3.0891,-0.3168 -1.3643,7.73653 3.0112,0.7584 3.344,1.7824 5.5328,5.2192 -1.5829,4.34987 -7.5925,0.4416 -3.7088,-0.784 -2.7936,-1.35467 -3.9275,6.8032 2.5696,1.74294 2.5333,2.8192 3.4134,6.7968 -2.975,3.54453 -7.2864,-2.18133 -3.216,-2.00534 -2.1621,-2.22826 -6.0171,5.0496 1.8176,2.51626 1.4176,3.51574 0.8822,7.55413 -4.0075,2.31467 -6.1013,-4.54187 -2.336,-2.98453 -1.2704,-2.83307 -7.3814,2.68587 0.848,2.98666 0.1291,3.78774 -1.7536,7.4016 -4.5579,0.8032 -4.1792,-6.35414 -1.1744,-3.6032 -0.225,-3.0976 h -7.855 l -0.225,3.0976 -1.1744,3.6032 -4.1792,6.35414 -4.5579,-0.8032 -1.7536,-7.4016 0.1291,-3.78774 0.848,-2.98666 -7.3814,-2.68587 -1.2704,2.83307 -2.336,2.98453 -6.1013,4.54187 -4.0075,-2.31467 0.8822,-7.55413 1.4176,-3.51574 1.8176,-2.51626 -6.0171,-5.0496 -2.1621,2.22826 -3.216,2.00534 -7.2864,2.18133 -2.975,-3.54453 3.4134,-6.7968 2.5333,-2.8192 2.5696,-1.74294 -3.9275,-6.8032 -2.7936,1.35467 -3.7088,0.784 -7.5925,-0.4416 -1.5829,-4.34987 5.5328,-5.2192 3.344,-1.7824 3.0112,-0.7584 -1.3643,-7.73653 -3.0891,0.3168 -3.7525,-0.53013 -6.9835,-3.01334 v -4.6272 l 6.9835,-3.01333 3.7525,-0.53013 3.0891,0.3168 1.3643,-7.73654 -3.0112,-0.7584 -3.344,-1.7824 -5.5328,-5.2192 1.5829,-4.34986 7.5925,-0.4416 3.7088,0.784 2.7936,1.35466 3.9275,-6.8032 -2.5696,-1.74293 -2.5333,-2.8192 -3.4134,-6.7968 2.975,-3.54453 7.2864,2.18133 3.216,2.00533 2.1621,2.22827 6.0171,-5.0496 -1.8176,-2.51627 -1.4176,-3.51573 -0.8822,-7.55413 4.0075,-2.31467 6.1013,4.54187 2.336,2.98453 1.2704,2.83307 7.3814,-2.68587 -0.848,-2.98667 -0.1291,-3.78773 1.7536,-7.4016 4.5579,-0.8032 4.1792,6.35413 1.1744,3.6032 0.225,3.0976 h 7.855 l 0.225,-3.0976 1.1744,-3.6032 4.1792,-6.35413 4.5579,0.8032 1.7536,7.4016 -0.1291,3.78773 -0.848,2.98667 7.3814,2.68587 1.2704,-2.83307 2.336,-2.98453 6.1013,-4.54187 4.0075,2.31467 -0.8822,7.55413 -1.4176,3.51573 -1.8176,2.51627 6.0171,5.0496 2.1621,-2.22827 3.216,-2.00533 7.2864,-2.18133 2.975,3.54453 -3.4134,6.7968 -2.5333,2.8192 -2.5696,1.74293 3.9275,6.8032 2.7936,-1.35466 3.7088,-0.784 7.5925,0.4416 1.5829,4.34986 -5.5328,5.2192 -3.344,1.7824 -3.0112,0.7584 z"
           id="path47307-5" />
        <circle
           r="10.666667"
           cy="363.48605"
           cx="2311.1919"
           style="fill:none;stroke:#000000;stroke-width:2.9333334;stroke-miterlimit:4;stroke-dasharray:none;stroke-opacity:1"
           id="path7129" />
        <path
           inkscape:connector-curvature="0"
           style="fill:none;stroke:#000000;stroke-width:2.9333334;stroke-miterlimit:4;stroke-dasharray:none"
           d="m 2153.4412,403.26409 3.089,-0.3168 3.7526,0.53013 6.9834,3.01333 v 4.6272 l -6.9834,3.01334 -3.7526,0.53013 -3.089,-0.3168 -1.3643,7.73653 3.0112,0.7584 3.344,1.7824 5.5328,5.2192 -1.5829,4.34987 -7.5926,0.4416 -3.7088,-0.784 -2.7936,-1.35467 -3.9274,6.8032 2.5696,1.74294 2.5333,2.8192 3.4133,6.7968 -2.9749,3.54453 -7.2864,-2.18133 -3.216,-2.00534 -2.1621,-2.22826 -6.0171,5.0496 1.8176,2.51626 1.4176,3.51574 0.8821,7.55413 -4.0074,2.31467 -6.1014,-4.54187 -2.336,-2.98453 -1.2704,-2.83307 -7.3813,2.68587 0.848,2.98666 0.1291,3.78774 -1.7536,7.4016 -4.5579,0.8032 -4.1792,-6.35414 -1.1744,-3.6032 -0.2251,-3.0976 h -7.8549 l -0.2251,3.0976 -1.1744,3.6032 -4.1792,6.35414 -4.5578,-0.8032 -1.7536,-7.4016 0.129,-3.78774 0.848,-2.98666 -7.3813,-2.68587 -1.2704,2.83307 -2.336,2.98453 -6.1013,4.54187 -4.0075,-2.31467 0.8821,-7.55413 1.4176,-3.51574 1.8176,-2.51626 -6.017,-5.0496 -2.1622,2.22826 -3.216,2.00534 -7.2864,2.18133 -2.9749,-3.54453 3.4133,-6.7968 2.5334,-2.8192 2.5696,-1.74294 -3.9275,-6.8032 -2.7936,1.35467 -3.7088,0.784 -7.5925,-0.4416 -1.583,-4.34987 5.5328,-5.2192 3.344,-1.7824 3.0112,-0.7584 -1.3642,-7.73653 -3.0891,0.3168 -3.7525,-0.53013 -6.9835,-3.01334 v -4.6272 l 6.9835,-3.01333 3.7525,-0.53013 3.0891,0.3168 1.3642,-7.73654 -3.0112,-0.7584 -3.344,-1.7824 -5.5328,-5.2192 1.583,-4.34986 7.5925,-0.4416 3.7088,0.784 2.7936,1.35466 3.9275,-6.8032 -2.5696,-1.74293 -2.5334,-2.8192 -3.4133,-6.7968 2.9749,-3.54453 7.2864,2.18133 3.216,2.00533 2.1622,2.22827 6.017,-5.0496 -1.8176,-2.51627 -1.4176,-3.51573 -0.8821,-7.55413 4.0075,-2.31467 6.1013,4.54187 2.336,2.98453 1.2704,2.83307 7.3813,-2.68587 -0.848,-2.98667 -0.129,-3.78773 1.7536,-7.4016 4.5578,-0.8032 4.1792,6.35413 1.1744,3.6032 0.2251,3.0976 h 7.8549 l 0.2251,-3.0976 1.1744,-3.6032 4.1792,-6.35413 4.5579,0.8032 1.7536,7.4016 -0.1291,3.78773 -0.848,2.98667 7.3813,2.68587 1.2704,-2.83307 2.336,-2.98453 6.1014,-4.54187 4.0074,2.31467 -0.8821,7.55413 -1.4176,3.51573 -1.8176,2.51627 6.0171,5.0496 2.1621,-2.22827 3.216,-2.00533 7.2864,-2.18133 2.9749,3.54453 -3.4133,6.7968 -2.5333,2.8192 -2.5696,1.74293 3.9274,6.8032 2.7936,-1.35466 3.7088,-0.784 7.5926,0.4416 1.5829,4.34986 -5.5328,5.2192 -3.344,1.7824 -3.0112,0.7584 z"
           id="path47307-5-8" />
        <circle
           r="37.333332"
           cy="406.74771"
           cx="2100.238"
           style="fill:none;stroke:#000000;stroke-width:2.9333334;stroke-miterlimit:4;stroke-dasharray:none;stroke-opacity:1"
           id="path7129-4" />
      </g>
      <text
         id="text2993-4-3-4-4-3-0-9-4-3-9"
         y="4096.0059"
         x="-1137.3313"
         style="font-style:normal;font-variant:normal;font-weight:normal;font-stretch:normal;font-size:22.60497284px;line-height:0%;font-family:'Courier 10 Pitch';-inkscape-font-specification:'Courier 10 Pitch';text-align:start;letter-spacing:0px;word-spacing:0px;writing-mode:lr-tb;text-anchor:start;display:inline;fill:#132500;fill-opacity:1;stroke:none;stroke-width:1.88374782"
         xml:space="preserve"
         transform="scale(0.9068801,1.1026816)"><tspan
           y="4096.0059"
           x="-1137.3313"
           sodipodi:role="line"
           id="tspan4019-5-3-3-6-5-5-3-3-9"
           style="font-size:60.27993011px;line-height:1.25;stroke-width:1.88374782">axis.move()</tspan></text>
      <text
         id="text2993-4-3-4-4-3-0-9-4-3-7"
         y="4092.6931"
         x="1306.3848"
         style="font-style:normal;font-variant:normal;font-weight:normal;font-stretch:normal;font-size:22.60497284px;line-height:0%;font-family:'Courier 10 Pitch';-inkscape-font-specification:'Courier 10 Pitch';text-align:start;letter-spacing:0px;word-spacing:0px;writing-mode:lr-tb;text-anchor:start;display:inline;fill:#132500;fill-opacity:1;stroke:none;stroke-width:1.88374782"
         xml:space="preserve"
         transform="scale(0.9068801,1.1026816)"><tspan
           y="4092.6931"
           x="1306.3848"
           sodipodi:role="line"
           id="tspan4019-5-3-3-6-5-5-3-3-8"
           style="font-size:60.27993011px;line-height:1.25;stroke-width:1.88374782">axis.move()</tspan></text>
      <path
         sodipodi:nodetypes="ccccccccccc"
         inkscape:connector-curvature="0"
         id="path2603-8-8-8-4-8-5-5-7-2-5-9"
         d="m 1038.2375,4566.3566 101.4223,-61.9657 -101.4223,-62.6648 v 34.2756 H 864.70921 v -36.3528 l -93.23914,64.3925 93.23914,64.3922 v -36.3525 h 173.52829 z"
         style="display:inline;fill:#7db7e7;fill-opacity:1;fill-rule:evenodd;stroke:#132577;stroke-width:4.32273674;stroke-linejoin:round;stroke-opacity:1" />
      <path
         sodipodi:nodetypes="ccccccccccc"
         inkscape:connector-curvature="0"
         id="path2603-8-8-8-4-8-5-5-7-2-5-9-8"
         d="m -384.79561,4557.0072 101.42233,-61.9657 -101.42233,-62.6648 v 34.2755 h -173.52825 v -36.3527 l -93.23913,64.3924 93.23913,64.3923 v -36.3526 h 173.52825 z"
         style="display:inline;fill:#7db7e7;fill-opacity:1;fill-rule:evenodd;stroke:#132577;stroke-width:4.32273674;stroke-linejoin:round;stroke-opacity:1" />
    </g>
  </g>
</svg>
