<?xml version="1.0" encoding="UTF-8" standalone="no"?>
<!-- Created with Inkscape (http://www.inkscape.org/) -->

<svg
   xmlns:dc="http://purl.org/dc/elements/1.1/"
   xmlns:cc="http://creativecommons.org/ns#"
   xmlns:rdf="http://www.w3.org/1999/02/22-rdf-syntax-ns#"
   xmlns:svg="http://www.w3.org/2000/svg"
   xmlns="http://www.w3.org/2000/svg"
   xmlns:sodipodi="http://sodipodi.sourceforge.net/DTD/sodipodi-0.dtd"
   xmlns:inkscape="http://www.inkscape.org/namespaces/inkscape"
   width="297mm"
   height="210mm"
   viewBox="0 0 297 210"
   version="1.1"
   id="svg8"
   inkscape:version="0.92.4 (5da689c313, 2019-01-14)"
   sodipodi:docname="mca_classes_path.svg">
  <defs
     id="defs2">
    <marker
       inkscape:stockid="Arrow1Lend"
       orient="auto"
       refY="0.0"
       refX="0.0"
       id="Arrow1Lend"
       style="overflow:visible;"
       inkscape:isstock="true">
      <path
         id="path848"
         d="M 0.0,0.0 L 5.0,-5.0 L -12.5,0.0 L 5.0,5.0 L 0.0,0.0 z "
         style="fill-rule:evenodd;stroke:#000000;stroke-width:1pt;stroke-opacity:1;fill:#000000;fill-opacity:1"
         transform="scale(0.8) rotate(180) translate(12.5,0)" />
    </marker>
    <marker
       inkscape:stockid="Arrow1Lend"
       orient="auto"
       refY="0"
       refX="0"
       id="Arrow1Lend-3"
       style="overflow:visible"
       inkscape:isstock="true">
      <path
         inkscape:connector-curvature="0"
         id="path848-3"
         d="M 0,0 5,-5 -12.5,0 5,5 Z"
         style="fill:#000000;fill-opacity:1;fill-rule:evenodd;stroke:#000000;stroke-width:1.00000003pt;stroke-opacity:1"
         transform="matrix(-0.8,0,0,-0.8,-10,0)" />
    </marker>
    <marker
       inkscape:stockid="Arrow1Lend"
       orient="auto"
       refY="0"
       refX="0"
       id="Arrow1Lend-6"
       style="overflow:visible"
       inkscape:isstock="true">
      <path
         inkscape:connector-curvature="0"
         id="path848-0"
         d="M 0,0 5,-5 -12.5,0 5,5 Z"
         style="fill:#000000;fill-opacity:1;fill-rule:evenodd;stroke:#000000;stroke-width:1.00000003pt;stroke-opacity:1"
         transform="matrix(-0.8,0,0,-0.8,-10,0)" />
    </marker>
    <marker
       inkscape:stockid="Arrow1Lend"
       orient="auto"
       refY="0"
       refX="0"
       id="Arrow1Lend-8"
       style="overflow:visible"
       inkscape:isstock="true">
      <path
         inkscape:connector-curvature="0"
         id="path848-8"
         d="M 0,0 5,-5 -12.5,0 5,5 Z"
         style="fill:#000000;fill-opacity:1;fill-rule:evenodd;stroke:#000000;stroke-width:1.00000003pt;stroke-opacity:1"
         transform="matrix(-0.8,0,0,-0.8,-10,0)" />
    </marker>
    <marker
       inkscape:stockid="Arrow1Lend"
       orient="auto"
       refY="0"
       refX="0"
       id="Arrow1Lend-8-7"
       style="overflow:visible"
       inkscape:isstock="true">
      <path
         inkscape:connector-curvature="0"
         id="path848-8-7"
         d="M 0,0 5,-5 -12.5,0 5,5 Z"
         style="fill:#000000;fill-opacity:1;fill-rule:evenodd;stroke:#000000;stroke-width:1.00000003pt;stroke-opacity:1"
         transform="matrix(-0.8,0,0,-0.8,-10,0)" />
    </marker>
    <marker
       inkscape:stockid="Arrow1Lend"
       orient="auto"
       refY="0"
       refX="0"
       id="Arrow1Lend-4"
       style="overflow:visible"
       inkscape:isstock="true">
      <path
         inkscape:connector-curvature="0"
         id="path848-30"
         d="M 0,0 5,-5 -12.5,0 5,5 Z"
         style="fill:#000000;fill-opacity:1;fill-rule:evenodd;stroke:#000000;stroke-width:1.00000003pt;stroke-opacity:1"
         transform="matrix(-0.8,0,0,-0.8,-10,0)" />
    </marker>
    <marker
       inkscape:stockid="Arrow1Lend"
       orient="auto"
       refY="0"
       refX="0"
       id="Arrow1Lend-3-0"
       style="overflow:visible"
       inkscape:isstock="true">
      <path
         inkscape:connector-curvature="0"
         id="path848-3-9"
         d="M 0,0 5,-5 -12.5,0 5,5 Z"
         style="fill:#000000;fill-opacity:1;fill-rule:evenodd;stroke:#000000;stroke-width:1.00000003pt;stroke-opacity:1"
         transform="matrix(-0.8,0,0,-0.8,-10,0)" />
    </marker>
  </defs>
  <sodipodi:namedview
     id="base"
     pagecolor="#ffffff"
     bordercolor="#666666"
     borderopacity="1.0"
     inkscape:pageopacity="0.0"
     inkscape:pageshadow="2"
     inkscape:zoom="0.98994949"
     inkscape:cx="303.20799"
     inkscape:cy="370.01268"
     inkscape:document-units="mm"
     inkscape:current-layer="layer1"
     showgrid="false"
     inkscape:window-width="1836"
     inkscape:window-height="1236"
     inkscape:window-x="661"
     inkscape:window-y="39"
     inkscape:window-maximized="0" />
  <metadata
     id="metadata5">
    <rdf:RDF>
      <cc:Work
         rdf:about="">
        <dc:format>image/svg+xml</dc:format>
        <dc:type
           rdf:resource="http://purl.org/dc/dcmitype/StillImage" />
        <dc:title></dc:title>
      </cc:Work>
    </rdf:RDF>
  </metadata>
  <g
     inkscape:label="Layer 1"
     inkscape:groupmode="layer"
     id="layer1"
     transform="translate(0,-87)">
    <g
       aria-label="BaseMca"
       style="font-style:normal;font-weight:normal;font-size:10.58333302px;line-height:1.25;font-family:sans-serif;letter-spacing:0px;word-spacing:0px;fill:#000000;fill-opacity:1;stroke:none;stroke-width:0.26458332"
       id="text817">
      <path
         d="m 122.08657,115.0467 v 2.8267 h 1.67432 q 0.84233,0 1.2454,-0.34623 0.40825,-0.3514 0.40825,-1.0697 0,-0.72347 -0.40825,-1.06454 -0.40307,-0.34623 -1.2454,-0.34623 z m 0,-3.17293 v 2.32544 h 1.54513 q 0.76481,0 1.13688,-0.28422 0.37724,-0.28939 0.37724,-0.8785 0,-0.58394 -0.37724,-0.87333 -0.37207,-0.28939 -1.13688,-0.28939 z m -1.04386,-0.85783 h 2.6665 q 1.19373,0 1.83968,0.49609 0.64596,0.4961 0.64596,1.41077 0,0.70797 -0.33073,1.12655 -0.33073,0.41858 -0.97152,0.52193 0.76998,0.16536 1.19373,0.69246 0.42891,0.52194 0.42891,1.30742 0,1.03353 -0.7028,1.5968 -0.7028,0.56327 -1.99987,0.56327 h -2.76986 z"
         style="stroke-width:0.26458332"
         id="path1054" />
      <path
         d="m 130.88707,115.82185 q -1.15238,0 -1.5968,0.26355 -0.44442,0.26355 -0.44442,0.89917 0,0.50643 0.33073,0.80615 0.3359,0.29456 0.9095,0.29456 0.79065,0 1.26608,-0.55811 0.48059,-0.56327 0.48059,-1.49345 v -0.21187 z m 1.89652,-0.39274 v 3.30212 h -0.95084 v -0.8785 q -0.32556,0.5271 -0.81132,0.78032 -0.48576,0.24804 -1.18856,0.24804 -0.88883,0 -1.41593,-0.49609 -0.52194,-0.50126 -0.52194,-1.33842 0,-0.97668 0.65113,-1.47278 0.65629,-0.49609 1.95337,-0.49609 h 1.33325 v -0.093 q 0,-0.65629 -0.43408,-1.01286 -0.42892,-0.36173 -1.20923,-0.36173 -0.4961,0 -0.96635,0.11885 -0.47026,0.11886 -0.90434,0.35657 v -0.8785 q 0.52193,-0.20154 1.01286,-0.29972 0.49093,-0.10335 0.95601,-0.10335 1.25574,0 1.87586,0.65112 0.62011,0.65112 0.62011,1.97404 z"
         style="stroke-width:0.26458332"
         id="path1056" />
      <path
         d="m 138.437,113.114 v 0.89917 q -0.40308,-0.2067 -0.83716,-0.31006 -0.43408,-0.10335 -0.89917,-0.10335 -0.70797,0 -1.06454,0.21704 -0.3514,0.21704 -0.3514,0.65113 0,0.33073 0.25322,0.52193 0.25321,0.18603 1.01802,0.35657 l 0.32557,0.0723 q 1.01285,0.21704 1.4366,0.61495 0.42891,0.39274 0.42891,1.10071 0,0.80615 -0.64078,1.27641 -0.63562,0.47025 -1.75183,0.47025 -0.46509,0 -0.97152,-0.093 -0.50126,-0.0878 -1.05937,-0.26872 v -0.98185 q 0.5271,0.27388 1.0387,0.41341 0.5116,0.13436 1.01286,0.13436 0.67179,0 1.03353,-0.22738 0.36173,-0.23254 0.36173,-0.65112 0,-0.38758 -0.26355,-0.59428 -0.25838,-0.20671 -1.14205,-0.39791 l -0.33073,-0.0775 q -0.88366,-0.18603 -1.27641,-0.56844 -0.39274,-0.38757 -0.39274,-1.05936 0,-0.81649 0.57878,-1.26091 0.57878,-0.44441 1.64331,-0.44441 0.5271,0 0.99219,0.0775 0.46509,0.0775 0.85783,0.23254 z"
         style="stroke-width:0.26458332"
         id="path1058" />
      <path
         d="m 145.21694,115.59964 v 0.46509 h -4.37182 q 0.062,0.98185 0.58911,1.49861 0.53227,0.5116 1.47794,0.5116 0.54777,0 1.05937,-0.13436 0.51677,-0.13436 1.02319,-0.40307 v 0.89917 q -0.51159,0.21704 -1.04903,0.33073 -0.53743,0.11368 -1.09037,0.11368 -1.38493,0 -2.19625,-0.80615 -0.80615,-0.80615 -0.80615,-2.18074 0,-1.42111 0.76481,-2.2531 0.76998,-0.83715 2.07223,-0.83715 1.16788,0 1.84484,0.75447 0.68213,0.74931 0.68213,2.04122 z m -0.95084,-0.27905 q -0.0103,-0.78032 -0.43925,-1.2454 -0.42375,-0.46509 -1.12655,-0.46509 -0.79582,0 -1.27641,0.44958 -0.47542,0.44959 -0.54777,1.26607 z"
         style="stroke-width:0.26458332"
         id="path1060" />
      <path
         d="m 146.81891,111.01594 h 1.55546 l 1.96888,5.25033 1.9792,-5.25033 h 1.55546 v 7.71529 h -1.01802 v -6.77478 l -1.98955,5.29167 h -1.04903 l -1.98954,-5.29167 v 6.77478 h -1.01286 z"
         style="stroke-width:0.26458332"
         id="path1062" />
      <path
         d="m 160.07909,113.16568 v 0.88883 q -0.40308,-0.2222 -0.81132,-0.33072 -0.40308,-0.11369 -0.81649,-0.11369 -0.92501,0 -1.43661,0.58911 -0.51159,0.58394 -0.51159,1.64331 0,1.05937 0.51159,1.64848 0.5116,0.58394 1.43661,0.58394 0.41341,0 0.81649,-0.10852 0.40824,-0.11369 0.81132,-0.3359 v 0.8785 q -0.39791,0.18604 -0.82683,0.27906 -0.42374,0.093 -0.90433,0.093 -1.30742,0 -2.0774,-0.82165 -0.76998,-0.82166 -0.76998,-2.21692 0,-1.41593 0.77515,-2.22725 0.78031,-0.81132 2.13424,-0.81132 0.43925,0 0.85783,0.093 0.41858,0.0878 0.81132,0.26872 z"
         style="stroke-width:0.26458332"
         id="path1064" />
      <path
         d="m 164.3734,115.82185 q -1.15239,0 -1.5968,0.26355 -0.44442,0.26355 -0.44442,0.89917 0,0.50643 0.33073,0.80615 0.33589,0.29456 0.9095,0.29456 0.79065,0 1.26608,-0.55811 0.48059,-0.56327 0.48059,-1.49345 v -0.21187 z m 1.89652,-0.39274 v 3.30212 h -0.95084 v -0.8785 q -0.32557,0.5271 -0.81132,0.78032 -0.48576,0.24804 -1.18856,0.24804 -0.88884,0 -1.41594,-0.49609 -0.52193,-0.50126 -0.52193,-1.33842 0,-0.97668 0.65113,-1.47278 0.65629,-0.49609 1.95336,-0.49609 h 1.33326 v -0.093 q 0,-0.65629 -0.43409,-1.01286 -0.42891,-0.36173 -1.20922,-0.36173 -0.4961,0 -0.96635,0.11885 -0.47026,0.11886 -0.90434,0.35657 v -0.8785 q 0.52193,-0.20154 1.01286,-0.29972 0.49092,-0.10335 0.95601,-0.10335 1.25574,0 1.87586,0.65112 0.62011,0.65112 0.62011,1.97404 z"
         style="stroke-width:0.26458332"
         id="path1066" />
    </g>
    <g
       aria-label="BaseXIA"
       style="font-style:normal;font-weight:normal;font-size:10.58333302px;line-height:1.25;font-family:sans-serif;letter-spacing:0px;word-spacing:0px;fill:#000000;fill-opacity:1;stroke:none;stroke-width:0.26458332"
       id="text821">
      <path
         d="m 68.098124,172.8814 v 2.8267 h 1.674316 q 0.842326,0 1.245402,-0.34623 0.408244,-0.3514 0.408244,-1.0697 0,-0.72347 -0.408244,-1.06453 -0.403076,-0.34624 -1.245402,-0.34624 z m 0,-3.17293 v 2.32544 h 1.545125 q 0.764812,0 1.136882,-0.28422 0.377238,-0.28939 0.377238,-0.8785 0,-0.58394 -0.377238,-0.87333 -0.37207,-0.28939 -1.136882,-0.28939 z m -1.043864,-0.85783 h 2.666504 q 1.193726,0 1.839681,0.4961 0.645955,0.49609 0.645955,1.41076 0,0.70797 -0.330729,1.12655 -0.330729,0.41858 -0.971517,0.52193 0.769979,0.16537 1.193726,0.69246 0.428914,0.52194 0.428914,1.30742 0,1.03353 -0.702799,1.5968 -0.7028,0.56327 -1.999878,0.56327 H 67.05426 Z"
         style="stroke-width:0.26458332"
         id="path1014" />
      <path
         d="m 76.89862,173.65655 q -1.152384,0 -1.596801,0.26355 -0.444418,0.26355 -0.444418,0.89917 0,0.50643 0.33073,0.80615 0.335896,0.29456 0.909505,0.29456 0.790649,0 1.266072,-0.55811 0.480591,-0.56327 0.480591,-1.49345 v -0.21187 z m 1.896526,-0.39274 v 3.30212 h -0.950847 v -0.8785 q -0.325561,0.5271 -0.81132,0.78032 -0.485758,0.24804 -1.188558,0.24804 -0.888834,0 -1.415934,-0.49609 -0.521932,-0.50126 -0.521932,-1.33842 0,-0.97668 0.651123,-1.47278 0.656291,-0.49609 1.953369,-0.49609 h 1.333252 v -0.093 q 0,-0.65629 -0.434082,-1.01286 -0.428914,-0.36173 -1.209228,-0.36173 -0.496094,0 -0.96635,0.11885 -0.470255,0.11886 -0.904337,0.35657 v -0.8785 q 0.521932,-0.20154 1.012858,-0.29972 0.490926,-0.10335 0.956014,-0.10335 1.255737,0 1.875854,0.65112 0.620118,0.65112 0.620118,1.97404 z"
         style="stroke-width:0.26458332"
         id="path1016" />
      <path
         d="m 84.448547,170.94871 v 0.89917 q -0.403076,-0.20671 -0.837158,-0.31006 -0.434082,-0.10336 -0.89917,-0.10336 -0.707967,0 -1.064535,0.21704 -0.351399,0.21705 -0.351399,0.65113 0,0.33073 0.253214,0.52193 0.253215,0.18603 1.018026,0.35657 l 0.325561,0.0723 q 1.012858,0.21705 1.436605,0.61495 0.428914,0.39274 0.428914,1.10071 0,0.80615 -0.640787,1.27641 -0.63562,0.47025 -1.751831,0.47025 -0.465088,0 -0.971517,-0.093 -0.501262,-0.0879 -1.059367,-0.26872 v -0.98185 q 0.5271,0.27388 1.038696,0.41341 0.511597,0.13436 1.012858,0.13436 0.671794,0 1.033529,-0.22738 0.361735,-0.23254 0.361735,-0.65112 0,-0.38757 -0.26355,-0.59428 -0.258382,-0.20671 -1.142049,-0.39791 l -0.330729,-0.0775 q -0.883667,-0.18604 -1.276408,-0.56844 -0.392741,-0.38758 -0.392741,-1.05937 0,-0.81649 0.578776,-1.26091 0.578776,-0.44441 1.643311,-0.44441 0.527099,0 0.992187,0.0775 0.465088,0.0775 0.857829,0.23255 z"
         style="stroke-width:0.26458332"
         id="path1018" />
      <path
         d="m 91.228494,173.43434 v 0.46509 h -4.371826 q 0.06201,0.98185 0.589111,1.49862 0.532267,0.51159 1.477946,0.51159 0.54777,0 1.059367,-0.13436 0.516764,-0.13435 1.023193,-0.40307 v 0.89917 q -0.511596,0.21704 -1.049031,0.33073 -0.537435,0.11368 -1.090373,0.11368 -1.384928,0 -2.196248,-0.80615 -0.806153,-0.80615 -0.806153,-2.18074 0,-1.4211 0.764811,-2.2531 0.769979,-0.83715 2.072225,-0.83715 1.167888,0 1.844849,0.75447 0.682129,0.74931 0.682129,2.04122 z m -0.950846,-0.27905 q -0.01034,-0.78032 -0.43925,-1.2454 -0.423747,-0.46509 -1.126546,-0.46509 -0.795817,0 -1.276408,0.44958 -0.475423,0.44959 -0.54777,1.26608 z"
         style="stroke-width:0.26458332"
         id="path1020" />
      <path
         d="m 92.458393,168.85064 h 1.121379 l 1.917195,2.86804 1.927531,-2.86804 h 1.121379 l -2.480469,3.7052 2.645833,4.01009 h -1.121378 l -2.17041,-3.28145 -2.185913,3.28145 h -1.126547 l 2.754354,-4.11861 z"
         style="stroke-width:0.26458332"
         id="path1022" />
      <path
         d="m 100.08583,168.85064 h 1.04387 v 7.71529 h -1.04387 z"
         style="stroke-width:0.26458332"
         id="path1024" />
      <path
         d="m 105.78575,169.879 -1.41594,3.83956 h 2.83704 z m -0.58912,-1.02836 h 1.1834 l 2.94038,7.71529 h -1.0852 l -0.7028,-1.9792 h -3.47782 l -0.7028,1.9792 h -1.10071 z"
         style="stroke-width:0.26458332"
         id="path1026" />
    </g>
    <g
       aria-label="XMAP"
       style="font-style:normal;font-weight:normal;font-size:10.58333302px;line-height:1.25;font-family:sans-serif;letter-spacing:0px;word-spacing:0px;fill:#000000;fill-opacity:1;stroke:none;stroke-width:0.26458332"
       id="text825">
      <path
         d="m 17.504606,225.73783 h 1.121379 l 1.917195,2.86805 1.927531,-2.86805 h 1.121379 l -2.480469,3.7052 2.645833,4.01009 h -1.121378 l -2.17041,-3.28145 -2.185913,3.28145 h -1.126547 l 2.754354,-4.11861 z"
         style="stroke-width:0.26458332"
         id="path968" />
      <path
         d="m 25.132048,225.73783 h 1.55546 l 1.968872,5.25033 1.979207,-5.25033 h 1.555461 v 7.71529 h -1.018026 v -6.77478 l -1.989542,5.29167 h -1.049032 l -1.989542,-5.29167 v 6.77478 h -1.012858 z"
         style="stroke-width:0.26458332"
         id="path970" />
      <path
         d="m 36.847094,226.76619 -1.415934,3.83956 h 2.837036 z m -0.589111,-1.02836 h 1.18339 l 2.940389,7.71529 h -1.085205 l -0.7028,-1.9792 h -3.477823 l -0.7028,1.9792 h -1.100708 z"
         style="stroke-width:0.26458332"
         id="path972" />
      <path
         d="m 42.547005,226.59566 v 2.89905 h 1.312582 q 0.728637,0 1.126546,-0.37724 0.397908,-0.37724 0.397908,-1.07487 0,-0.69246 -0.397908,-1.0697 -0.397909,-0.37724 -1.126546,-0.37724 z m -1.043864,-0.85783 h 2.356446 q 1.297078,0 1.958536,0.58912 0.666626,0.58394 0.666626,1.71565 0,1.14205 -0.666626,1.726 -0.661458,0.58394 -1.958536,0.58394 h -1.312582 v 3.10058 h -1.043864 z"
         style="stroke-width:0.26458332"
         id="path974" />
    </g>
    <g
       aria-label="XIA"
       style="font-style:normal;font-weight:normal;font-size:10.58333302px;line-height:1.25;font-family:sans-serif;letter-spacing:0px;word-spacing:0px;fill:#000000;fill-opacity:1;stroke:none;stroke-width:0.26458332"
       id="text829">
      <path
         d="m 105.28326,225.73783 h 1.12138 l 1.91719,2.86805 1.92753,-2.86805 h 1.12138 l -2.48047,3.7052 2.64583,4.01009 h -1.12137 l -2.17041,-3.28145 -2.18592,3.28145 h -1.12654 l 2.75435,-4.11861 z"
         style="stroke-width:0.26458332"
         id="path992" />
      <path
         d="m 112.9107,225.73783 h 1.04386 v 7.71529 h -1.04386 z"
         style="stroke-width:0.26458332"
         id="path994" />
      <path
         d="m 118.61061,226.76619 -1.41594,3.83956 h 2.83704 z m -0.58911,-1.02836 h 1.18339 l 2.94039,7.71529 h -1.08521 l -0.7028,-1.9792 h -3.47782 l -0.7028,1.9792 h -1.10071 z"
         style="stroke-width:0.26458332"
         id="path996" />
    </g>
    <g
       aria-label="Mercury"
       style="font-style:normal;font-weight:normal;font-size:10.58333302px;line-height:1.25;font-family:sans-serif;letter-spacing:0px;word-spacing:0px;fill:#000000;fill-opacity:1;stroke:none;stroke-width:0.26458332"
       id="text833">
      <path
         d="m 51.879009,225.73783 h 1.555461 l 1.968872,5.25033 1.979207,-5.25033 h 1.555461 v 7.71529 h -1.018026 v -6.77478 l -1.989543,5.29167 H 54.88141 l -1.989543,-5.29167 v 6.77478 h -1.012858 z"
         style="stroke-width:0.26458332"
         id="path977" />
      <path
         d="m 65.924663,230.32153 v 0.46509 h -4.371826 q 0.06201,0.98185 0.589111,1.49862 0.532267,0.51159 1.477946,0.51159 0.54777,0 1.059367,-0.13435 0.516764,-0.13436 1.023193,-0.40308 v 0.89917 q -0.511597,0.21704 -1.049031,0.33073 -0.537435,0.11369 -1.090373,0.11369 -1.384928,0 -2.196248,-0.80616 -0.806153,-0.80615 -0.806153,-2.18074 0,-1.4211 0.764811,-2.25309 0.769979,-0.83716 2.072225,-0.83716 1.167888,0 1.844849,0.75447 0.682129,0.74931 0.682129,2.04122 z m -0.950847,-0.27905 q -0.01033,-0.78031 -0.439249,-1.2454 -0.423747,-0.46509 -1.126546,-0.46509 -0.795817,0 -1.276408,0.44959 -0.475423,0.44958 -0.54777,1.26607 z"
         style="stroke-width:0.26458332"
         id="path979" />
      <path
         d="m 70.839091,228.5542 q -0.160196,-0.093 -0.351399,-0.13436 -0.186035,-0.0465 -0.413412,-0.0465 -0.806152,0 -1.240234,0.5271 -0.428914,0.52193 -0.428914,1.50379 v 3.0489 h -0.956014 v -5.78776 h 0.956014 v 0.89917 q 0.299723,-0.52709 0.780314,-0.78031 0.480591,-0.25838 1.167887,-0.25838 0.09818,0 0.217041,0.0155 0.118856,0.0103 0.26355,0.0362 z"
         style="stroke-width:0.26458332"
         id="path981" />
      <path
         d="m 75.784527,227.88757 v 0.88884 q -0.403076,-0.22221 -0.81132,-0.33073 -0.403076,-0.11369 -0.816488,-0.11369 -0.925008,0 -1.436605,0.58911 -0.511596,0.58395 -0.511596,1.64331 0,1.05937 0.511596,1.64848 0.511597,0.58394 1.436605,0.58394 0.413412,0 0.816488,-0.10852 0.408244,-0.11368 0.81132,-0.33589 v 0.8785 q -0.397909,0.18603 -0.826823,0.27905 -0.423747,0.093 -0.904338,0.093 -1.307413,0 -2.077392,-0.82166 -0.769979,-0.82165 -0.769979,-2.21692 0,-1.41593 0.775146,-2.22725 0.780314,-0.81132 2.134237,-0.81132 0.43925,0 0.857829,0.093 0.418579,0.0878 0.81132,0.26871 z"
         style="stroke-width:0.26458332"
         id="path983" />
      <path
         d="m 77.350323,231.16903 v -3.50367 h 0.950846 v 3.46749 q 0,0.82166 0.320394,1.23507 0.320394,0.40824 0.961182,0.40824 0.769978,0 1.214396,-0.49092 0.449585,-0.49093 0.449585,-1.33842 v -3.28146 h 0.950846 v 5.78776 h -0.950846 v -0.88883 q -0.346233,0.5271 -0.806153,0.78548 -0.454752,0.25322 -1.059367,0.25322 -0.997355,0 -1.514119,-0.62012 -0.516764,-0.62012 -0.516764,-1.81384 z m 2.392618,-3.64319 z"
         style="stroke-width:0.26458332"
         id="path985" />
      <path
         d="m 87.520242,228.5542 q -0.160197,-0.093 -0.3514,-0.13436 -0.186035,-0.0465 -0.413411,-0.0465 -0.806153,0 -1.240235,0.5271 -0.428914,0.52193 -0.428914,1.50379 v 3.0489 h -0.956014 v -5.78776 h 0.956014 v 0.89917 q 0.299723,-0.52709 0.780314,-0.78031 0.480591,-0.25838 1.167887,-0.25838 0.09819,0 0.217041,0.0155 0.118856,0.0103 0.26355,0.0362 z"
         style="stroke-width:0.26458332"
         id="path987" />
      <path
         d="m 90.936055,233.99056 q -0.403076,1.03353 -0.785481,1.34875 -0.382406,0.31523 -1.023194,0.31523 h -0.759643 v -0.79582 h 0.558105 q 0.392741,0 0.609782,-0.18603 0.217041,-0.18604 0.480591,-0.8785 l 0.170532,-0.43408 -2.340942,-5.69475 h 1.00769 l 1.808675,4.52686 1.808675,-4.52686 h 1.007691 z"
         style="stroke-width:0.26458332"
         id="path989" />
    </g>
    <g
       aria-label="FalconX"
       style="font-style:normal;font-weight:normal;font-size:10.58333302px;line-height:1.25;font-family:sans-serif;letter-spacing:0px;word-spacing:0px;fill:#000000;fill-opacity:1;stroke:none;stroke-width:0.26458332"
       id="text837">
      <path
         d="m 134.67345,225.73783 h 4.43383 v 0.8785 h -3.38997 v 2.27377 h 3.05925 v 0.8785 h -3.05925 v 3.68452 h -1.04386 z"
         style="stroke-width:0.26458332"
         id="path999" />
      <path
         d="m 142.38874,230.54374 q -1.15239,0 -1.5968,0.26355 -0.44442,0.26355 -0.44442,0.89917 0,0.50643 0.33073,0.80615 0.33589,0.29456 0.9095,0.29456 0.79065,0 1.26608,-0.55811 0.48059,-0.56327 0.48059,-1.49344 v -0.21188 z m 1.89652,-0.39274 v 3.30212 h -0.95084 v -0.87849 q -0.32557,0.5271 -0.81132,0.78031 -0.48576,0.24805 -1.18856,0.24805 -0.88884,0 -1.41594,-0.4961 -0.52193,-0.50126 -0.52193,-1.33842 0,-0.97668 0.65113,-1.47277 0.65629,-0.4961 1.95336,-0.4961 h 1.33326 v -0.093 q 0,-0.65629 -0.43409,-1.01285 -0.42891,-0.36174 -1.20922,-0.36174 -0.4961,0 -0.96635,0.11886 -0.47026,0.11885 -0.90434,0.35656 v -0.8785 q 0.52193,-0.20153 1.01286,-0.29972 0.49092,-0.10335 0.95601,-0.10335 1.25574,0 1.87586,0.65112 0.62011,0.65112 0.62011,1.97404 z"
         style="stroke-width:0.26458332"
         id="path1001" />
      <path
         d="m 146.24897,225.41227 h 0.95084 v 8.04085 h -0.95084 z"
         style="stroke-width:0.26458332"
         id="path1003" />
      <path
         d="m 153.34931,227.88757 v 0.88884 q -0.40308,-0.22221 -0.81132,-0.33073 -0.40308,-0.11369 -0.81649,-0.11369 -0.92501,0 -1.4366,0.58911 -0.5116,0.58395 -0.5116,1.64331 0,1.05937 0.5116,1.64848 0.51159,0.58394 1.4366,0.58394 0.41341,0 0.81649,-0.10852 0.40824,-0.11368 0.81132,-0.33589 v 0.8785 q -0.39791,0.18603 -0.82683,0.27905 -0.42374,0.093 -0.90433,0.093 -1.30742,0 -2.0774,-0.82166 -0.76997,-0.82165 -0.76997,-2.21692 0,-1.41593 0.77514,-2.22725 0.78032,-0.81132 2.13424,-0.81132 0.43925,0 0.85783,0.093 0.41858,0.0878 0.81132,0.26871 z"
         style="stroke-width:0.26458332"
         id="path1005" />
      <path
         d="m 157.25605,228.33199 q -0.76481,0 -1.20923,0.59945 -0.44442,0.59428 -0.44442,1.63297 0,1.0387 0.43925,1.63815 0.44442,0.59427 1.2144,0.59427 0.75964,0 1.20406,-0.59944 0.44441,-0.59945 0.44441,-1.63298 0,-1.02836 -0.44441,-1.62781 -0.44442,-0.60461 -1.20406,-0.60461 z m 0,-0.80615 q 1.24023,0 1.9482,0.80615 0.70796,0.80615 0.70796,2.23242 0,1.4211 -0.70796,2.23242 -0.70797,0.80616 -1.9482,0.80616 -1.24541,0 -1.95337,-0.80616 -0.7028,-0.81132 -0.7028,-2.23242 0,-1.42627 0.7028,-2.23242 0.70796,-0.80615 1.95337,-0.80615 z"
         style="stroke-width:0.26458332"
         id="path1007" />
      <path
         d="m 166.29426,229.9598 v 3.49332 h -0.95085 v -3.46232 q 0,-0.82165 -0.32039,-1.22989 -0.3204,-0.40825 -0.96119,-0.40825 -0.76998,0 -1.21439,0.49093 -0.44442,0.49092 -0.44442,1.33842 v 3.27111 h -0.95601 v -5.78776 h 0.95601 v 0.89917 q 0.34106,-0.52193 0.80098,-0.78031 0.46509,-0.25838 1.06971,-0.25838 0.99735,0 1.50895,0.62012 0.5116,0.61495 0.5116,1.81384 z"
         style="stroke-width:0.26458332"
         id="path1009" />
      <path
         d="m 167.87038,225.73783 h 1.12138 l 1.9172,2.86805 1.92753,-2.86805 h 1.12138 l -2.48047,3.7052 2.64583,4.01009 h -1.12138 l -2.17041,-3.28145 -2.18591,3.28145 h -1.12655 l 2.75436,-4.11861 z"
         style="stroke-width:0.26458332"
         id="path1011" />
    </g>
    <g
       aria-label="SimulatedMCA"
       style="font-style:normal;font-weight:normal;font-size:10.58333302px;line-height:1.25;font-family:sans-serif;letter-spacing:0px;word-spacing:0px;fill:#000000;fill-opacity:1;stroke:none;stroke-width:0.26458332"
       id="text841">
      <path
         d="m 167.62905,169.26662 v 1.01803 q -0.59428,-0.28422 -1.12137,-0.42375 -0.5271,-0.13953 -1.01803,-0.13953 -0.85266,0 -1.31775,0.33073 -0.45992,0.33073 -0.45992,0.94051 0,0.5116 0.30489,0.77515 0.31006,0.25838 1.16789,0.41858 l 0.63045,0.12919 q 1.16789,0.22221 1.72083,0.78548 0.5581,0.55811 0.5581,1.49862 0,1.12138 -0.75447,1.70015 -0.74931,0.57878 -2.20142,0.57878 -0.54777,0 -1.16789,-0.12402 -0.61495,-0.12403 -1.27641,-0.36691 v -1.07487 q 0.63562,0.35657 1.24541,0.53744 0.60978,0.18087 1.19889,0.18087 0.894,0 1.37976,-0.3514 0.48576,-0.3514 0.48576,-1.00253 0,-0.56844 -0.3514,-0.88883 -0.34623,-0.32039 -1.14205,-0.48059 l -0.63562,-0.12402 q -1.16789,-0.23255 -1.68982,-0.72864 -0.52193,-0.4961 -0.52193,-1.37976 0,-1.0232 0.7183,-1.61231 0.72347,-0.58911 1.98954,-0.58911 0.54261,0 1.10588,0.0982 0.56327,0.0982 1.15238,0.29455 z"
         style="stroke-width:0.26458332"
         id="path1029" />
      <path
         d="m 169.68061,170.94094 h 0.95084 v 5.78776 h -0.95084 z m 0,-2.25309 h 0.95084 v 1.20406 h -0.95084 z"
         style="stroke-width:0.26458332"
         id="path1031" />
      <path
         d="m 177.12201,172.05198 q 0.35657,-0.64079 0.85266,-0.94568 0.4961,-0.30489 1.16789,-0.30489 0.90434,0 1.39527,0.63562 0.49092,0.63045 0.49092,1.79834 v 3.49333 h -0.95601 v -3.46232 q 0,-0.83199 -0.29456,-1.23507 -0.29455,-0.40307 -0.89917,-0.40307 -0.73897,0 -1.16788,0.49092 -0.42892,0.49093 -0.42892,1.33842 v 3.27112 h -0.95601 v -3.46232 q 0,-0.83716 -0.29456,-1.23507 -0.29455,-0.40307 -0.9095,-0.40307 -0.72864,0 -1.15756,0.49609 -0.42891,0.49092 -0.42891,1.33325 v 3.27112 h -0.95601 v -5.78776 h 0.95601 v 0.89917 q 0.32556,-0.53227 0.78031,-0.78548 0.45476,-0.25322 1.08004,-0.25322 0.63045,0 1.0697,0.3204 0.44442,0.32039 0.65629,0.93017 z"
         style="stroke-width:0.26458332"
         id="path1033" />
      <path
         d="m 182.83226,174.4446 v -3.50366 h 0.95085 v 3.46749 q 0,0.82165 0.32039,1.23506 0.32039,0.40825 0.96118,0.40825 0.76998,0 1.2144,-0.49093 0.44958,-0.49092 0.44958,-1.33842 v -3.28145 h 0.95085 v 5.78776 h -0.95085 v -0.88884 q -0.34623,0.5271 -0.80615,0.78549 -0.45475,0.25321 -1.05937,0.25321 -0.99735,0 -1.51412,-0.62012 -0.51676,-0.62011 -0.51676,-1.81384 z m 2.39262,-3.64319 z"
         style="stroke-width:0.26458332"
         id="path1035" />
      <path
         d="m 189.64838,168.68785 h 0.95085 v 8.04085 h -0.95085 z"
         style="stroke-width:0.26458332"
         id="path1037" />
      <path
         d="m 195.21393,173.81932 q -1.15238,0 -1.5968,0.26355 -0.44442,0.26355 -0.44442,0.89917 0,0.50642 0.33073,0.80615 0.3359,0.29455 0.90951,0.29455 0.79065,0 1.26607,-0.5581 0.48059,-0.56328 0.48059,-1.49345 v -0.21187 z m 1.89653,-0.39275 v 3.30213 h -0.95085 v -0.8785 q -0.32556,0.5271 -0.81132,0.78031 -0.48576,0.24805 -1.18856,0.24805 -0.88883,0 -1.41593,-0.49609 -0.52193,-0.50126 -0.52193,-1.33842 0,-0.97669 0.65112,-1.47278 0.65629,-0.49609 1.95337,-0.49609 h 1.33325 v -0.093 q 0,-0.65629 -0.43408,-1.01286 -0.42892,-0.36174 -1.20923,-0.36174 -0.49609,0 -0.96635,0.11886 -0.47025,0.11886 -0.90434,0.35657 v -0.8785 q 0.52194,-0.20154 1.01286,-0.29973 0.49093,-0.10335 0.95602,-0.10335 1.25573,0 1.87585,0.65113 0.62012,0.65112 0.62012,1.97403 z"
         style="stroke-width:0.26458332"
         id="path1039" />
      <path
         d="m 200.01467,169.29763 v 1.64331 h 1.95854 v 0.73897 h -1.95854 v 3.14193 q 0,0.70797 0.1912,0.9095 0.19637,0.20154 0.79065,0.20154 h 0.97669 v 0.79582 h -0.97669 q -1.1007,0 -1.51928,-0.40825 -0.41858,-0.41341 -0.41858,-1.49861 v -3.14193 h -0.69763 v -0.73897 h 0.69763 v -1.64331 z"
         style="stroke-width:0.26458332"
         id="path1041" />
      <path
         d="m 208.17955,173.59711 v 0.46508 h -4.37183 q 0.062,0.98186 0.58911,1.49862 0.53227,0.5116 1.47795,0.5116 0.54777,0 1.05937,-0.13436 0.51676,-0.13436 1.02319,-0.40308 v 0.89917 q -0.5116,0.21704 -1.04903,0.33073 -0.53744,0.11369 -1.09038,0.11369 -1.38492,0 -2.19624,-0.80615 -0.80616,-0.80615 -0.80616,-2.18075 0,-1.4211 0.76482,-2.25309 0.76997,-0.83716 2.07222,-0.83716 1.16789,0 1.84485,0.75448 0.68213,0.74931 0.68213,2.04122 z m -0.95085,-0.27906 q -0.0103,-0.78031 -0.43925,-1.2454 -0.42375,-0.46509 -1.12654,-0.46509 -0.79582,0 -1.27641,0.44959 -0.47543,0.44958 -0.54777,1.26607 z"
         style="stroke-width:0.26458332"
         id="path1043" />
      <path
         d="m 213.54873,171.81944 v -3.13159 h 0.95085 v 8.04085 h -0.95085 v -0.86817 q -0.29972,0.51677 -0.75964,0.76998 -0.45476,0.24805 -1.09555,0.24805 -1.04903,0 -1.71048,-0.83716 -0.6563,-0.83716 -0.6563,-2.20141 0,-1.36426 0.6563,-2.20142 0.66145,-0.83716 1.71048,-0.83716 0.64079,0 1.09555,0.25322 0.45992,0.24804 0.75964,0.76481 z m -3.24011,2.02055 q 0,1.04903 0.42891,1.64847 0.43408,0.59428 1.18856,0.59428 0.75447,0 1.18856,-0.59428 0.43408,-0.59944 0.43408,-1.64847 0,-1.04904 -0.43408,-1.64331 -0.43409,-0.59945 -1.18856,-0.59945 -0.75448,0 -1.18856,0.59945 -0.42891,0.59427 -0.42891,1.64331 z"
         style="stroke-width:0.26458332"
         id="path1045" />
      <path
         d="m 216.49945,169.01341 h 1.55547 l 1.96887,5.25032 1.9792,-5.25032 h 1.55546 v 7.71529 h -1.01802 v -6.77478 l -1.98954,5.29167 h -1.04903 l -1.98955,-5.29167 v 6.77478 h -1.01286 z"
         style="stroke-width:0.26458332"
         id="path1047" />
      <path
         d="m 231.41327,169.60769 v 1.1007 q -0.5271,-0.49092 -1.12655,-0.7338 -0.59428,-0.24288 -1.26607,-0.24288 -1.32292,0 -2.02571,0.81132 -0.7028,0.80615 -0.7028,2.33577 0,1.52446 0.7028,2.33578 0.70279,0.80615 2.02571,0.80615 0.67179,0 1.26607,-0.24288 0.59945,-0.24288 1.12655,-0.7338 v 1.09037 q -0.54777,0.37207 -1.16272,0.55811 -0.60978,0.18603 -1.29191,0.18603 -1.75183,0 -2.75952,-1.0697 -1.00769,-1.07487 -1.00769,-2.93006 0,-1.86035 1.00769,-2.93005 1.00769,-1.07487 2.75952,-1.07487 0.69246,0 1.30225,0.18604 0.61495,0.18086 1.15238,0.54777 z"
         style="stroke-width:0.26458332"
         id="path1049" />
      <path
         d="m 235.61457,170.04177 -1.41594,3.83956 h 2.83704 z m -0.58912,-1.02836 h 1.18339 l 2.94039,7.71529 h -1.0852 l -0.7028,-1.97921 h -3.47783 l -0.70279,1.97921 h -1.10071 z"
         style="stroke-width:0.26458332"
         id="path1051" />
    </g>
    <path
       style="fill:none;stroke:#000000;stroke-width:0.26499999;stroke-linecap:butt;stroke-linejoin:miter;stroke-miterlimit:4;stroke-dasharray:none;stroke-opacity:1;marker-end:url(#Arrow1Lend)"
       d="M 35.546846,221.91249 72.162773,181.02025"
       id="path843"
       inkscape:connector-curvature="0"
       sodipodi:nodetypes="cc" />
    <path
       style="fill:none;stroke:#000000;stroke-width:0.26499999;stroke-linecap:butt;stroke-linejoin:miter;stroke-miterlimit:4;stroke-dasharray:none;stroke-opacity:1;marker-end:url(#Arrow1Lend-3)"
       d="M 144.84717,221.91249 108.23124,181.02025"
       id="path843-8"
       inkscape:connector-curvature="0"
       sodipodi:nodetypes="cc" />
    <path
       style="fill:none;stroke:#000000;stroke-width:0.26499999;stroke-linecap:butt;stroke-linejoin:miter;stroke-miterlimit:4;stroke-dasharray:none;stroke-opacity:1;marker-end:url(#Arrow1Lend-6)"
       d="M 71.980287,221.91249 84.185595,181.02025"
       id="path843-4"
       inkscape:connector-curvature="0"
       sodipodi:nodetypes="cc" />
    <path
       style="fill:none;stroke:#000000;stroke-width:0.26499999;stroke-linecap:butt;stroke-linejoin:miter;stroke-miterlimit:4;stroke-dasharray:none;stroke-opacity:1;marker-end:url(#Arrow1Lend-8)"
       d="M 108.41373,221.91249 96.208418,181.02025"
       id="path843-89"
       inkscape:connector-curvature="0"
       sodipodi:nodetypes="cc" />
    <path
       style="fill:none;stroke:#000000;stroke-width:0.26499999;stroke-linecap:butt;stroke-linejoin:miter;stroke-miterlimit:4;stroke-dasharray:none;stroke-opacity:1;marker-end:url(#Arrow1Lend-4)"
       d="M 91.684847,164.98266 128.30078,124.09042"
       id="path843-3"
       inkscape:connector-curvature="0"
       sodipodi:nodetypes="cc" />
    <path
       style="fill:none;stroke:#000000;stroke-width:0.26499999;stroke-linecap:butt;stroke-linejoin:miter;stroke-miterlimit:4;stroke-dasharray:none;stroke-opacity:1;marker-end:url(#Arrow1Lend-3-0)"
       d="M 190.81905,164.98267 154.20311,124.09042"
       id="path843-8-2"
       inkscape:connector-curvature="0"
       sodipodi:nodetypes="cc" />
  </g>
</svg>
