<?xml version="1.0" encoding="UTF-8" standalone="no"?><svg xmlns="http://www.w3.org/2000/svg" xmlns:xlink="http://www.w3.org/1999/xlink" contentScriptType="application/ecmascript" contentStyleType="text/css" height="389px" preserveAspectRatio="none" style="width:268px;height:389px;" version="1.1" viewBox="0 0 268 389" width="268px" zoomAndPan="magnify"><defs><filter height="300%" id="f1vewgn2wu1m4g" width="300%" x="-1" y="-1"><feGaussianBlur result="blurOut" stdDeviation="2.0"/><feColorMatrix in="blurOut" result="blurOut2" type="matrix" values="0 0 0 0 0 0 0 0 0 0 0 0 0 0 0 0 0 0 .4 0"/><feOffset dx="4.0" dy="4.0" in="blurOut2" result="blurOut3"/><feBlend in="SourceGraphic" in2="blurOut3" mode="normal"/></filter></defs><g><text fill="#000000" font-family="sans-serif" font-size="18" lengthAdjust="spacingAndGlyphs" textLength="218" x="24" y="26.708">SamplingMode.SAMPLES</text><ellipse cx="132" cy="40.9531" fill="#000000" filter="url(#f1vewgn2wu1m4g)" rx="10" ry="10" style="stroke: none; stroke-width: 1.0;"/><rect fill="#FEFECE" filter="url(#f1vewgn2wu1m4g)" height="33.9688" rx="12.5" ry="12.5" style="stroke: #A80036; stroke-width: 1.5;" width="158" x="53" y="114.9531"/><text fill="#000000" font-family="sans-serif" font-size="12" lengthAdjust="spacingAndGlyphs" textLength="138" x="63" y="136.0918">read data from device</text><rect fill="#FEFECE" filter="url(#f1vewgn2wu1m4g)" height="33.9688" rx="12.5" ry="12.5" style="stroke: #A80036; stroke-width: 1.5;" width="196" x="34" y="176.4219"/><text fill="#000000" font-family="sans-serif" font-size="12" lengthAdjust="spacingAndGlyphs" textLength="176" x="44" y="197.5605">append read values to a list</text><polygon fill="#FEFECE" filter="url(#f1vewgn2wu1m4g)" points="132,70.9531,144,82.9531,132,94.9531,120,82.9531,132,70.9531" style="stroke: #A80036; stroke-width: 1.5;"/><polygon fill="#FEFECE" filter="url(#f1vewgn2wu1m4g)" points="76,230.3906,188,230.3906,200,242.3906,188,254.3906,76,254.3906,64,242.3906,76,230.3906" style="stroke: #A80036; stroke-width: 1.5;"/><text fill="#000000" font-family="sans-serif" font-size="11" lengthAdjust="spacingAndGlyphs" textLength="112" x="76" y="246.1987">counting time over?</text><rect fill="#FEFECE" filter="url(#f1vewgn2wu1m4g)" height="61.9063" rx="12.5" ry="12.5" style="stroke: #A80036; stroke-width: 1.5;" width="244" x="10" y="274.3906"/><text fill="#000000" font-family="sans-serif" font-size="12" lengthAdjust="spacingAndGlyphs" textLength="174" x="20" y="295.5293">return like SIMPLE_AVERAGE</text><text fill="#000000" font-family="sans-serif" font-size="12" lengthAdjust="spacingAndGlyphs" textLength="24" x="20" y="309.498">and</text><text fill="#000000" font-family="sans-serif" font-size="12" lengthAdjust="spacingAndGlyphs" textLength="224" x="20" y="323.4668">publish all samples read as 1d data</text><ellipse cx="132" cy="367.2969" fill="#FFFFFF" filter="url(#f1vewgn2wu1m4g)" rx="11" ry="11" style="stroke: #000000; stroke-width: 1.0;"/><ellipse cx="132" cy="367.2969" fill="#000000" rx="6" ry="6" style="stroke: #7F7F7F; stroke-width: 1.0;"/><line style="stroke: #A80036; stroke-width: 1.5;" x1="132" x2="132" y1="148.9219" y2="176.4219"/><polygon fill="#A80036" points="128,166.4219,132,176.4219,136,166.4219,132,170.4219" style="stroke: #A80036; stroke-width: 1.0;"/><line style="stroke: #A80036; stroke-width: 1.5;" x1="132" x2="132" y1="94.9531" y2="114.9531"/><polygon fill="#A80036" points="128,104.9531,132,114.9531,136,104.9531,132,108.9531" style="stroke: #A80036; stroke-width: 1.0;"/><line style="stroke: #A80036; stroke-width: 1.5;" x1="200" x2="242" y1="242.3906" y2="242.3906"/><polygon fill="#A80036" points="238,168.9219,242,158.9219,246,168.9219,242,164.9219" style="stroke: #A80036; stroke-width: 1.5;"/><line style="stroke: #A80036; stroke-width: 1.5;" x1="242" x2="242" y1="82.9531" y2="242.3906"/><line style="stroke: #A80036; stroke-width: 1.5;" x1="242" x2="144" y1="82.9531" y2="82.9531"/><polygon fill="#A80036" points="154,78.9531,144,82.9531,154,86.9531,150,82.9531" style="stroke: #A80036; stroke-width: 1.0;"/><line style="stroke: #A80036; stroke-width: 1.5;" x1="132" x2="132" y1="210.3906" y2="230.3906"/><polygon fill="#A80036" points="128,220.3906,132,230.3906,136,220.3906,132,224.3906" style="stroke: #A80036; stroke-width: 1.0;"/><line style="stroke: #A80036; stroke-width: 1.5;" x1="132" x2="132" y1="50.9531" y2="70.9531"/><polygon fill="#A80036" points="128,60.9531,132,70.9531,136,60.9531,132,64.9531" style="stroke: #A80036; stroke-width: 1.0;"/><line style="stroke: #A80036; stroke-width: 1.5;" x1="132" x2="132" y1="254.3906" y2="274.3906"/><polygon fill="#A80036" points="128,264.3906,132,274.3906,136,264.3906,132,268.3906" style="stroke: #A80036; stroke-width: 1.0;"/><line style="stroke: #A80036; stroke-width: 1.5;" x1="132" x2="132" y1="336.2969" y2="356.2969"/><polygon fill="#A80036" points="128,346.2969,132,356.2969,136,346.2969,132,350.2969" style="stroke: #A80036; stroke-width: 1.0;"/><!--
@startuml
title SamplingMode.SAMPLES
start

repeat
  :read data from device;
  :append read values to a list;
repeat while (counting time over?)

:return like SIMPLE_AVERAGE
and
publish all samples read as 1d data;

stop
@enduml

PlantUML version 1.2019.08(Sat Jul 13 19:25:14 UTC 2019)
(GPL source distribution)
Java Runtime: Java(TM) SE Runtime Environment
JVM: Java HotSpot(TM) 64-Bit Server VM
Java Version: 1.7.0_25-b15
Operating System: Linux
Default Encoding: UTF-8
Language: en
Country: US
--></g></svg>