<?xml version="1.0" encoding="UTF-8" standalone="no"?><svg xmlns="http://www.w3.org/2000/svg" xmlns:xlink="http://www.w3.org/1999/xlink" contentScriptType="application/ecmascript" contentStyleType="text/css" height="415px" preserveAspectRatio="none" style="width:319px;height:415px;" version="1.1" viewBox="0 0 319 415" width="319px" zoomAndPan="magnify"><defs><filter height="300%" id="f1rva88sqb7luy" width="300%" x="-1" y="-1"><feGaussianBlur result="blurOut" stdDeviation="2.0"/><feColorMatrix in="blurOut" result="blurOut2" type="matrix" values="0 0 0 0 0 0 0 0 0 0 0 0 0 0 0 0 0 0 .4 0"/><feOffset dx="4.0" dy="4.0" in="blurOut2" result="blurOut3"/><feBlend in="SourceGraphic" in2="blurOut3" mode="normal"/></filter></defs><g><text fill="#000000" font-family="sans-serif" font-size="18" lengthAdjust="spacingAndGlyphs" textLength="295" x="12" y="26.708">SamplingMode.SIMPLE_AVERAGE</text><ellipse cx="160" cy="40.9531" fill="#000000" filter="url(#f1rva88sqb7luy)" rx="10" ry="10" style="stroke: none; stroke-width: 1.0;"/><rect fill="#FEFECE" filter="url(#f1rva88sqb7luy)" height="33.9688" rx="12.5" ry="12.5" style="stroke: #A80036; stroke-width: 1.5;" width="64" x="128" y="70.9531"/><text fill="#000000" font-family="sans-serif" font-size="12" lengthAdjust="spacingAndGlyphs" textLength="44" x="138" y="92.0918">sum=0</text><rect fill="#FEFECE" filter="url(#f1rva88sqb7luy)" height="33.9688" rx="12.5" ry="12.5" style="stroke: #A80036; stroke-width: 1.5;" width="158" x="81" y="168.9219"/><text fill="#000000" font-family="sans-serif" font-size="12" lengthAdjust="spacingAndGlyphs" textLength="138" x="91" y="190.0605">read data from device</text><rect fill="#FEFECE" filter="url(#f1rva88sqb7luy)" height="33.9688" rx="12.5" ry="12.5" style="stroke: #A80036; stroke-width: 1.5;" width="161" x="79.5" y="230.3906"/><text fill="#000000" font-family="sans-serif" font-size="12" lengthAdjust="spacingAndGlyphs" textLength="141" x="89.5" y="251.5293">add read value to sum</text><polygon fill="#FEFECE" filter="url(#f1rva88sqb7luy)" points="160,124.9219,172,136.9219,160,148.9219,148,136.9219,160,124.9219" style="stroke: #A80036; stroke-width: 1.5;"/><polygon fill="#FEFECE" filter="url(#f1rva88sqb7luy)" points="104,284.3594,216,284.3594,228,296.3594,216,308.3594,104,308.3594,92,296.3594,104,284.3594" style="stroke: #A80036; stroke-width: 1.5;"/><text fill="#000000" font-family="sans-serif" font-size="11" lengthAdjust="spacingAndGlyphs" textLength="112" x="104" y="300.1675">counting time over?</text><rect fill="#FEFECE" filter="url(#f1rva88sqb7luy)" height="33.9688" rx="12.5" ry="12.5" style="stroke: #A80036; stroke-width: 1.5;" width="240" x="40" y="328.3594"/><text fill="#000000" font-family="sans-serif" font-size="12" lengthAdjust="spacingAndGlyphs" textLength="220" x="50" y="349.498">return sum / number of read cycles</text><ellipse cx="160" cy="393.3281" fill="#FFFFFF" filter="url(#f1rva88sqb7luy)" rx="11" ry="11" style="stroke: #000000; stroke-width: 1.0;"/><ellipse cx="160" cy="393.3281" fill="#000000" rx="6" ry="6" style="stroke: #7F7F7F; stroke-width: 1.0;"/><line style="stroke: #A80036; stroke-width: 1.5;" x1="160" x2="160" y1="50.9531" y2="70.9531"/><polygon fill="#A80036" points="156,60.9531,160,70.9531,164,60.9531,160,64.9531" style="stroke: #A80036; stroke-width: 1.0;"/><line style="stroke: #A80036; stroke-width: 1.5;" x1="160" x2="160" y1="202.8906" y2="230.3906"/><polygon fill="#A80036" points="156,220.3906,160,230.3906,164,220.3906,160,224.3906" style="stroke: #A80036; stroke-width: 1.0;"/><line style="stroke: #A80036; stroke-width: 1.5;" x1="160" x2="160" y1="148.9219" y2="168.9219"/><polygon fill="#A80036" points="156,158.9219,160,168.9219,164,158.9219,160,162.9219" style="stroke: #A80036; stroke-width: 1.0;"/><line style="stroke: #A80036; stroke-width: 1.5;" x1="228" x2="252.5" y1="296.3594" y2="296.3594"/><polygon fill="#A80036" points="248.5,222.8906,252.5,212.8906,256.5,222.8906,252.5,218.8906" style="stroke: #A80036; stroke-width: 1.5;"/><line style="stroke: #A80036; stroke-width: 1.5;" x1="252.5" x2="252.5" y1="136.9219" y2="296.3594"/><line style="stroke: #A80036; stroke-width: 1.5;" x1="252.5" x2="172" y1="136.9219" y2="136.9219"/><polygon fill="#A80036" points="182,132.9219,172,136.9219,182,140.9219,178,136.9219" style="stroke: #A80036; stroke-width: 1.0;"/><line style="stroke: #A80036; stroke-width: 1.5;" x1="160" x2="160" y1="264.3594" y2="284.3594"/><polygon fill="#A80036" points="156,274.3594,160,284.3594,164,274.3594,160,278.3594" style="stroke: #A80036; stroke-width: 1.0;"/><line style="stroke: #A80036; stroke-width: 1.5;" x1="160" x2="160" y1="104.9219" y2="124.9219"/><polygon fill="#A80036" points="156,114.9219,160,124.9219,164,114.9219,160,118.9219" style="stroke: #A80036; stroke-width: 1.0;"/><line style="stroke: #A80036; stroke-width: 1.5;" x1="160" x2="160" y1="308.3594" y2="328.3594"/><polygon fill="#A80036" points="156,318.3594,160,328.3594,164,318.3594,160,322.3594" style="stroke: #A80036; stroke-width: 1.0;"/><line style="stroke: #A80036; stroke-width: 1.5;" x1="160" x2="160" y1="362.3281" y2="382.3281"/><polygon fill="#A80036" points="156,372.3281,160,382.3281,164,372.3281,160,376.3281" style="stroke: #A80036; stroke-width: 1.0;"/><!--
@startuml
title SamplingMode.SIMPLE_AVERAGE
start

:sum=0;
repeat
  :read data from device;
  :add read value to sum;
repeat while (counting time over?)

:return sum / number of read cycles;

stop
@enduml

PlantUML version 1.2019.08(Sat Jul 13 19:25:14 UTC 2019)
(GPL source distribution)
Java Runtime: Java(TM) SE Runtime Environment
JVM: Java HotSpot(TM) 64-Bit Server VM
Java Version: 1.7.0_25-b15
Operating System: Linux
Default Encoding: UTF-8
Language: en
Country: US
--></g></svg>