<?xml version="1.0" encoding="UTF-8" standalone="no"?><svg xmlns="http://www.w3.org/2000/svg" xmlns:xlink="http://www.w3.org/1999/xlink" contentScriptType="application/ecmascript" contentStyleType="text/css" height="415px" preserveAspectRatio="none" style="width:361px;height:415px;" version="1.1" viewBox="0 0 361 415" width="361px" zoomAndPan="magnify"><defs><filter height="300%" id="f9adq2a1dpr9t" width="300%" x="-1" y="-1"><feGaussianBlur result="blurOut" stdDeviation="2.0"/><feColorMatrix in="blurOut" result="blurOut2" type="matrix" values="0 0 0 0 0 0 0 0 0 0 0 0 0 0 0 0 0 0 .4 0"/><feOffset dx="4.0" dy="4.0" in="blurOut2" result="blurOut3"/><feBlend in="SourceGraphic" in2="blurOut3" mode="normal"/></filter></defs><g><text fill="#000000" font-family="sans-serif" font-size="18" lengthAdjust="spacingAndGlyphs" textLength="241" x="59" y="26.708">SamplingMode.INTEGRATE</text><ellipse cx="180" cy="40.9531" fill="#000000" filter="url(#f9adq2a1dpr9t)" rx="10" ry="10" style="stroke: none; stroke-width: 1.0;"/><rect fill="#FEFECE" filter="url(#f9adq2a1dpr9t)" height="33.9688" rx="12.5" ry="12.5" style="stroke: #A80036; stroke-width: 1.5;" width="64" x="148" y="70.9531"/><text fill="#000000" font-family="sans-serif" font-size="12" lengthAdjust="spacingAndGlyphs" textLength="44" x="158" y="92.0918">sum=0</text><rect fill="#FEFECE" filter="url(#f9adq2a1dpr9t)" height="33.9688" rx="12.5" ry="12.5" style="stroke: #A80036; stroke-width: 1.5;" width="158" x="101" y="168.9219"/><text fill="#000000" font-family="sans-serif" font-size="12" lengthAdjust="spacingAndGlyphs" textLength="138" x="111" y="190.0605">read data from device</text><rect fill="#FEFECE" filter="url(#f9adq2a1dpr9t)" height="33.9688" rx="12.5" ry="12.5" style="stroke: #A80036; stroke-width: 1.5;" width="161" x="99.5" y="230.3906"/><text fill="#000000" font-family="sans-serif" font-size="12" lengthAdjust="spacingAndGlyphs" textLength="141" x="109.5" y="251.5293">add read value to sum</text><polygon fill="#FEFECE" filter="url(#f9adq2a1dpr9t)" points="180,124.9219,192,136.9219,180,148.9219,168,136.9219,180,124.9219" style="stroke: #A80036; stroke-width: 1.5;"/><polygon fill="#FEFECE" filter="url(#f9adq2a1dpr9t)" points="124,284.3594,236,284.3594,248,296.3594,236,308.3594,124,308.3594,112,296.3594,124,284.3594" style="stroke: #A80036; stroke-width: 1.5;"/><text fill="#000000" font-family="sans-serif" font-size="11" lengthAdjust="spacingAndGlyphs" textLength="112" x="124" y="300.1675">counting time over?</text><rect fill="#FEFECE" filter="url(#f9adq2a1dpr9t)" height="33.9688" rx="12.5" ry="12.5" style="stroke: #A80036; stroke-width: 1.5;" width="340" x="10" y="328.3594"/><text fill="#000000" font-family="sans-serif" font-size="12" lengthAdjust="spacingAndGlyphs" textLength="320" x="20" y="349.498">return sum * counting time / number of read cycles</text><ellipse cx="180" cy="393.3281" fill="#FFFFFF" filter="url(#f9adq2a1dpr9t)" rx="11" ry="11" style="stroke: #000000; stroke-width: 1.0;"/><ellipse cx="180" cy="393.3281" fill="#000000" rx="6" ry="6" style="stroke: #7F7F7F; stroke-width: 1.0;"/><line style="stroke: #A80036; stroke-width: 1.5;" x1="180" x2="180" y1="50.9531" y2="70.9531"/><polygon fill="#A80036" points="176,60.9531,180,70.9531,184,60.9531,180,64.9531" style="stroke: #A80036; stroke-width: 1.0;"/><line style="stroke: #A80036; stroke-width: 1.5;" x1="180" x2="180" y1="202.8906" y2="230.3906"/><polygon fill="#A80036" points="176,220.3906,180,230.3906,184,220.3906,180,224.3906" style="stroke: #A80036; stroke-width: 1.0;"/><line style="stroke: #A80036; stroke-width: 1.5;" x1="180" x2="180" y1="148.9219" y2="168.9219"/><polygon fill="#A80036" points="176,158.9219,180,168.9219,184,158.9219,180,162.9219" style="stroke: #A80036; stroke-width: 1.0;"/><line style="stroke: #A80036; stroke-width: 1.5;" x1="248" x2="272.5" y1="296.3594" y2="296.3594"/><polygon fill="#A80036" points="268.5,222.8906,272.5,212.8906,276.5,222.8906,272.5,218.8906" style="stroke: #A80036; stroke-width: 1.5;"/><line style="stroke: #A80036; stroke-width: 1.5;" x1="272.5" x2="272.5" y1="136.9219" y2="296.3594"/><line style="stroke: #A80036; stroke-width: 1.5;" x1="272.5" x2="192" y1="136.9219" y2="136.9219"/><polygon fill="#A80036" points="202,132.9219,192,136.9219,202,140.9219,198,136.9219" style="stroke: #A80036; stroke-width: 1.0;"/><line style="stroke: #A80036; stroke-width: 1.5;" x1="180" x2="180" y1="264.3594" y2="284.3594"/><polygon fill="#A80036" points="176,274.3594,180,284.3594,184,274.3594,180,278.3594" style="stroke: #A80036; stroke-width: 1.0;"/><line style="stroke: #A80036; stroke-width: 1.5;" x1="180" x2="180" y1="104.9219" y2="124.9219"/><polygon fill="#A80036" points="176,114.9219,180,124.9219,184,114.9219,180,118.9219" style="stroke: #A80036; stroke-width: 1.0;"/><line style="stroke: #A80036; stroke-width: 1.5;" x1="180" x2="180" y1="308.3594" y2="328.3594"/><polygon fill="#A80036" points="176,318.3594,180,328.3594,184,318.3594,180,322.3594" style="stroke: #A80036; stroke-width: 1.0;"/><line style="stroke: #A80036; stroke-width: 1.5;" x1="180" x2="180" y1="362.3281" y2="382.3281"/><polygon fill="#A80036" points="176,372.3281,180,382.3281,184,372.3281,180,376.3281" style="stroke: #A80036; stroke-width: 1.0;"/><!--
@startuml
title SamplingMode.INTEGRATE
start

:sum=0;
repeat
  :read data from device;
  :add read value to sum;
repeat while (counting time over?)

:return sum * counting time / number of read cycles;

stop
@enduml

PlantUML version 1.2019.08(Sat Jul 13 19:25:14 UTC 2019)
(GPL source distribution)
Java Runtime: Java(TM) SE Runtime Environment
JVM: Java HotSpot(TM) 64-Bit Server VM
Java Version: 1.7.0_25-b15
Operating System: Linux
Default Encoding: UTF-8
Language: en
Country: US
--></g></svg>