<?xml version="1.0" encoding="UTF-8" standalone="no"?>
<svg
   xmlns:dc="http://purl.org/dc/elements/1.1/"
   xmlns:cc="http://creativecommons.org/ns#"
   xmlns:rdf="http://www.w3.org/1999/02/22-rdf-syntax-ns#"
   xmlns:svg="http://www.w3.org/2000/svg"
   xmlns="http://www.w3.org/2000/svg"
   id="svg8"
   version="1.1"
   viewBox="0 0 41.438519 13.493753"
   height="13.493753mm"
   width="41.438519mm">
  <defs
     id="defs2" />
  <metadata
     id="metadata5">
    <rdf:RDF>
      <cc:Work
         rdf:about="">
        <dc:format>image/svg+xml</dc:format>
        <dc:type
           rdf:resource="http://purl.org/dc/dcmitype/StillImage" />
        <dc:title></dc:title>
      </cc:Work>
    </rdf:RDF>
  </metadata>
  <g
     transform="translate(-50.056782,-98.430208)"
     id="layer1">
    <path
       id="path12"
       d="m 52.916667,111.79167 1.322917,-2.64583 1.322917,-2.64584 h 2.645832 l 1.322917,-2.64584 h -2.645833 l 1.322917,-2.64583 2.645833,0 2.645834,0 1.322916,-2.64583 -2.645834,0 H 59.53125 l -2.645833,0 -1.322917,2.64583 -1.322917,2.64584 -1.322916,2.64583 -1.322917,2.64583 -1.322916,2.64584 z"
       style="fill:none;stroke:#000000;stroke-width:0.26458332px;stroke-linecap:butt;stroke-linejoin:miter;stroke-opacity:1" />
    <path
       id="path14"
       d="M 60.854166,111.79167 62.177083,109.14583 63.5,106.5 l 1.322917,-2.64583 1.322916,-2.64584 1.322916,-2.64583 h 2.645834 l -1.322916,2.64583 -1.322917,2.64584 -1.322917,2.64583 -1.322916,2.64583 -1.322918,2.64584 v 0 z"
       style="fill:none;stroke:#000000;stroke-width:0.26458332px;stroke-linecap:butt;stroke-linejoin:miter;stroke-opacity:1" />
    <path
       id="path16"
       d="m 66.145832,111.79167 1.322918,-2.64584 1.322917,-2.64583 1.322916,-2.64583 h 2.645834 L 71.4375,106.5 l -1.322917,2.64583 -1.322917,2.64584 z"
       style="fill:none;stroke:#000000;stroke-width:0.26458332px;stroke-linecap:butt;stroke-linejoin:miter;stroke-opacity:1" />
    <path
       id="path18"
       d="m 71.437499,101.20833 1.322917,-2.64583 h 2.645833 l -1.322916,2.64583 v 0 z"
       style="fill:none;stroke:#000000;stroke-width:0.26458332px;stroke-linecap:butt;stroke-linejoin:miter;stroke-opacity:1" />
    <path
       id="path22"
       d="m 76.729166,111.79167 1.322917,-2.64584 1.322916,-2.64583 h -2.645833 l -1.322916,2.64583 -1.322918,2.64584 h -2.645833 l 1.322918,-2.64584 1.322916,-2.64583 1.322916,-2.64583 h 2.645834 2.645834 2.645832 l -1.322916,2.64583 -1.322916,2.64583 -1.322918,2.64584 z"
       style="fill:none;stroke:#000000;stroke-width:0.26458332px;stroke-linecap:butt;stroke-linejoin:miter;stroke-opacity:1" />
    <path
       id="path24"
       d="m 82.020832,111.79167 1.322918,-2.64584 1.322917,-2.64583 1.322916,-2.64583 1.322917,-2.64584 h 2.645833 l -1.322917,2.64583 H 91.28125 L 89.958333,106.5 H 87.3125 l -1.322917,2.64583 -1.322917,2.64584 z"
       style="fill:none;stroke:#000000;stroke-width:0.26458332px;stroke-linecap:butt;stroke-linejoin:miter;stroke-opacity:1" />
  </g>
</svg>
