<?xml version="1.0" encoding="UTF-8"?>
<!-- Created with Inkscape (http://www.inkscape.org/) -->
<svg width="41.439mm" height="13.494mm" version="1.1" viewBox="0 0 41.439 13.494" xmlns="http://www.w3.org/2000/svg" xmlns:cc="http://creativecommons.org/ns#" xmlns:dc="http://purl.org/dc/elements/1.1/" xmlns:rdf="http://www.w3.org/1999/02/22-rdf-syntax-ns#">
 <metadata>
  <rdf:RDF>
   <cc:Work rdf:about="">
    <dc:format>image/svg+xml</dc:format>
    <dc:type rdf:resource="http://purl.org/dc/dcmitype/StillImage"/>
    <dc:title/>
   </cc:Work>
  </rdf:RDF>
 </metadata>
 <g transform="translate(-50.057 -98.43)" fill="none" stroke="#000" stroke-width=".26458px">
  <path d="m52.917 111.79 2.6458-5.2917h2.6458l1.3229-2.6458h-2.6458l1.3229-2.6458h2.6458 2.6458l1.3229-2.6458h-2.6458-2.6458-2.6458l-6.6146 13.229z"/>
  <path d="m60.854 111.79 1.3229-2.6458 5.2917-10.583h2.6458l-6.6146 13.229z"/>
  <path d="m66.146 111.79 1.3229-2.6458 2.6458-5.2917h2.6458l-3.9688 7.9375z"/>
  <path d="m71.437 101.21 1.3229-2.6458h2.6458l-1.3229 2.6458z"/>
  <path d="m76.729 111.79 1.3229-2.6458 1.3229-2.6458h-2.6458l-2.6458 5.2917h-2.6458l3.9688-7.9375h7.9375l-3.9688 7.9375z"/>
  <path d="m82.021 111.79 1.3229-2.6458 3.9688-7.9375h2.6458l-1.3229 2.6458h2.6458l-1.3229 2.6458h-2.6458l-2.6458 5.2917z"/>
 </g>
</svg>
